<?xml version="1.0" standalone="no"?>
<!DOCTYPE svg PUBLIC "-//W3C//DTD SVG 1.1//EN" "http://www.w3.org/Graphics/SVG/1.1/DTD/svg11.dtd" >
<svg xmlns="http://www.w3.org/2000/svg">
<metadata></metadata>
<defs>
<font id="margien_handwritingregular" horiz-adv-x="703" >
<font-face units-per-em="2048" ascent="1057" descent="-991" />
<missing-glyph horiz-adv-x="561" />
<glyph horiz-adv-x="0" />
<glyph unicode="&#xd;" horiz-adv-x="856" />
<glyph horiz-adv-x="57" />
<glyph horiz-adv-x="57" />
<glyph unicode=" "  horiz-adv-x="561" />
<glyph unicode="&#x09;" horiz-adv-x="561" />
<glyph unicode="&#xa0;" horiz-adv-x="561" />
<glyph unicode="!" horiz-adv-x="768" d="M141 15q0 8 6 13.5t14.5 8t18.5 3t18 0.5q24 0 44 -5q-1 -7 -1 -13v-11q-13 -20 -27 -27.5t-38 -7.5q-35 0 -35 39zM311 291v16q0 16 10.5 57.5t26.5 93t34.5 108t35.5 105.5l36 110v-2l6 18q5 12 9.5 21t15.5 15q9 3 23 3h21q-27 -47 -50.5 -97t-44.5 -104 q-6 -15 -11.5 -38.5t-10.5 -50.5t-10.5 -55.5t-9.5 -56.5q-6 -43 -12 -76.5t-10 -46.5q-7 -8 -17.5 -14.5t-20.5 -6.5h-9t-9 1h-3z" />
<glyph unicode="&#x22;" horiz-adv-x="649" d="M221 478l21 3v-20zM224 499q2 14 10 39.5t19.5 54.5t26.5 58.5t30 53.5t29.5 39.5t27.5 15.5t22.5 -10.5t9.5 -24.5q0 -8 -8.5 -26.5t-20 -38t-23 -37t-17.5 -23.5q0 -7 -0.5 -8l-1.5 -3l-5 -9q-2 -5 -4.5 -11.5t-4.5 -11.5q-6 -15 -12 -27t-13.5 -21t-19 -16.5 t-27.5 -11.5v2zM478 563q0 26 10 54.5t25.5 56t35.5 53t40 44.5q8 -8 14 -15.5t6 -18.5q0 -33 -15 -67t-33 -69q-11 -22 -20.5 -43t-17.5 -45q-18 5 -31.5 17.5t-13.5 32.5zM577 784l23 -1l-6 -6t-5 -6l-2 3z" />
<glyph unicode="#" horiz-adv-x="997" d="M-35 154q0 28 20 36t44 8q11 0 22 -1t23 -2q12 -2 26.5 -3t27.5 -1q32 0 56.5 11t43 31t31 47t23.5 60q-40 13 -80 20.5t-81 7.5h-17t-17 -1q-3 0 -6.5 -0.5t-6.5 -0.5q10 7 25 14.5t31.5 13.5t33.5 12t32 10q14 4 26 7.5t23 7.5h-1q31 10 49 26.5t27.5 37t13 42.5 t5.5 43q2 25 6.5 41.5t21.5 16.5q22 0 35 -13l10 -26q-1 -24 -8 -47.5t-15 -45.5l-6 -22l33 -30q8 0 22 -0.5t23 -0.5q8 -1 18.5 -1h19.5q31 0 55 20.5t42.5 51.5t33.5 69.5t27 75.5v-1q15 43 27 74.5t21 31.5q7 0 12.5 -6.5t9 -16t5 -19.5t1.5 -18q1 -12 -3 -29t-11 -36.5 t-16 -41t-17 -42.5q-4 -10 -9 -23l-10 -26t-10 -25t-7 -19q24 -5 46.5 -11.5t41.5 -16.5q-26 -6 -49.5 -16t-44.5 -24.5t-38 -34.5t-27 -46q10 -25 25.5 -40.5t33.5 -28.5q10 -7 21 -15.5t19 -17.5q-45 -12 -89 -33t-78 -58l-6 -14q-16 -33 -32.5 -62t-46.5 -43q0 10 0.5 15 t1.5 9t2.5 8.5t3.5 13.5v4l42 114l-31 9q-20 6 -42.5 12t-46.5 6q-28 0 -47 -11t-32.5 -28.5t-22 -38.5t-15.5 -41q-8 -2 -15.5 -2.5t-15.5 -0.5h-9q-3 0 -7.5 3.5t-8.5 8.5l-8 16q-8 0 -27 1.5t-42.5 4t-48.5 6t-45.5 8.5t-34 11t-12.5 15zM303 313q0 -108 104 -107 q55 0 99 38q45 37 45 99q0 104 -111 104q-137 0 -137 -134zM738 444q10 -5 19.5 -10.5t17.5 -11.5l9 32q-11 -2 -22 -4.5t-24 -5.5z" />
<glyph unicode="$" horiz-adv-x="1193" d="M-55 181q0 28 7.5 53t24.5 45q-1 -9 -1 -17.5v-16.5q0 -55 16 -109t60 -120q17 17 28 29.5t18 23.5t12.5 20.5t11.5 21.5q20 32 42.5 66.5t45 69.5t44 67.5t39.5 59.5q39 59 81.5 123t81.5 127q12 17 27 41.5t32 53.5q19 34 41 69t42 67.5t38 58t33 39.5q11 12 21.5 21.5 t25.5 9.5q3 0 7.5 -6.5t8.5 -13.5l2 -3q-15 -36 -40 -71.5t-53 -70.5q-39 -47 -73 -96.5t-46 -106.5l20 -22q66 9 112 29.5t80 48t58.5 59.5t47.5 65q15 23 31 44.5t35 40.5t42 34t53 24q-20 -40 -47 -77t-57 -72l-54 -67q14 -9 28.5 -19.5t25.5 -22t18.5 -25t7.5 -27.5 q-1 -17 -35.5 -27.5t-78.5 -18.5q-31 -6 -61 -13.5t-53.5 -18.5t-39 -29.5t-15.5 -46.5q2 -10 8 -22.5t17 -29.5q9 -14 18.5 -31t18.5 -35t14.5 -36.5t5.5 -35.5q0 -43 -19.5 -81t-53 -71.5t-77 -62t-91 -53.5t-96 -46.5t-91.5 -40.5h1l-73 -30q-14 32 -41.5 56.5 t-71.5 47.5l-29 -51q-8 -15 -17.5 -32t-19.5 -30.5t-22 -22t-25 -8.5q-12 0 -21 15q3 7 5.5 14t4.5 15l7 19l36 73q-9 15 -23 40.5t-27.5 53t-23 52.5t-9.5 39zM98 73l24 38l3 6l7 12l-34 8v-64zM104 73q0 -35 15.5 -60t57.5 -25q24 0 55 22t65 57t68 78t64 85t53 79t34 60 v17q-9 8 -11.5 11t-3.5 5q-14 16 -30 30.5t-42 14.5q-27 0 -52 -28l-23 -30q-46 -59 -93.5 -116t-106.5 -112q-18 -19 -34 -40.5t-16 -47.5zM301 0h69q10 0 28 5t40 14.5t46 21t48 24.5q25 12 48.5 25t42.5 26.5t33.5 26t20.5 21.5q19 32 19 68q0 44 -30 90q-29 41 -73 77 q-19 -22 -32.5 -34.5t-24.5 -20.5q-9 -8 -20.5 -18t-19.5 -19q-22 -19 -42 -45t-38.5 -55.5t-36 -60t-32.5 -59.5zM431 444q5 -6 18.5 -12t28.5 -11.5t27.5 -9t17.5 -3.5q32 0 58 16t46 42t34.5 56t22.5 58l-31 33q-92 0 -142.5 -42.5t-79.5 -126.5z" />
<glyph unicode="%" horiz-adv-x="905" d="M-27 446q0 34 21 65t53.5 55t70 37.5t70.5 13.5q11 0 22 -0.5t18 -4.5q0 -17 4.5 -36.5t10.5 -35.5q4 -14 7 -27.5t3 -26.5q0 -31 -14 -51.5t-36 -33.5t-49.5 -19t-55.5 -6q-17 0 -38.5 3t-41 11t-32.5 21.5t-13 34.5zM12 -28q3 0 6.5 -0.5t6.5 -0.5q2 0 3 -0.5t3 -0.5 v-15zM15 446l5 -18q22 -14 39.5 -17t36.5 -3q61 0 119 39v34q0 40 -18 65t-59 25q-24 0 -46 -11t-39 -29t-27.5 -40.5t-10.5 -44.5zM31 -30q5 40 26 70q14 17 33.5 38.5t35.5 38.5q27 27 53 55.5t51 56.5q26 30 51.5 57.5t52.5 54.5q45 43 90.5 91t86.5 94q32 36 79 84 t101 97q1 0 1.5 0.5t1.5 0.5h1q-14 -49 -40.5 -92.5t-62.5 -78.5l-95 -87q-47 -43 -100.5 -93.5t-105.5 -103.5t-99.5 -108t-80.5 -107l1 2l-14 -20q-12 -17 -27 -33.5t-33 -16.5h-7zM469 109q0 32 17.5 60.5t44.5 50t60.5 34t66.5 12.5q6 0 11 -0.5t10 -1.5q5 -41 0.5 -83 t-19 -75.5t-40 -54.5t-62.5 -21q-18 0 -36 5.5t-38 13.5q-5 14 -10 29.5t-5 30.5zM498 108q8 -20 26 -37t44 -17q48 0 73 42q10 19 15.5 37t5.5 36q0 24 -13 40.5t-39 16.5q-19 0 -38 -11t-35 -28.5t-26.5 -38.5t-12.5 -40zM676 703v36h51q-8 -8 -16.5 -14.5t-16.5 -14.5h3 l-3 -2l-1 1l-2 -2q-8 -3 -15 -4zM679 264q33 -8 44 -40q-7 5 -18.5 15t-25.5 25zM723 224q5 -4 9 -4q1 0 3 1q1 0 4.5 0.5t8.5 0.5l-19 -20q-2 6 -3 11.5t-3 10.5z" />
<glyph unicode="&#x26;" horiz-adv-x="866" d="M57 167q0 57 12 103.5t36.5 86.5t62.5 75.5t90 71.5q-5 20 -7 33.5t-2.5 23t-0.5 17v15.5q0 36 8 75t27 71t50 52.5t77 19.5q27 -1 41 -15t21 -34t8 -42t1 -38q0 -28 -11.5 -50t-30.5 -41t-42 -34.5t-46 -31.5l-58 -36q3 -20 14.5 -49.5t27 -63.5t34 -69t36 -66t31.5 -55 t21 -38q18 9 39.5 30t42.5 42.5t41 37.5t35 17l2 1q3 -18 -4.5 -30t-24.5 -26q-8 -6 -23 -18.5t-31.5 -26.5t-33 -29t-26.5 -27q15 -26 27 -42t25 -30.5t29.5 -31.5t41.5 -45q-2 1 -9.5 -2.5t-14.5 -3.5q-11 0 -30.5 19t-39 43t-34.5 46t-18 29q-22 -12 -32 -20.5t-23 -18.5 q-20 -14 -44 -31.5t-51.5 -32t-55.5 -25t-56 -10.5q-37 0 -62 20t-40 51t-22.5 66.5t-7.5 66.5zM92 187q0 -30 3 -65t16 -64.5t39.5 -47t72.5 -9.5q24 4 51 18t54.5 32.5t54.5 39.5t50 39l-9.5 19t-10 18.5t-13.5 22.5t-18 31q-14 26 -30.5 57t-33 64t-31 66t-24.5 64 q-45 -32 -77 -62.5t-52.5 -64t-31 -71.5t-10.5 -87zM275.5 600q-2.5 -46 6.5 -84q16 9 44.5 25.5t56.5 39t48.5 50.5t20.5 61q0 17 -1.5 33t-8 28t-17 18.5t-28.5 6.5q-40 0 -66 -26.5t-39.5 -66t-16 -85.5z" />
<glyph unicode="'" horiz-adv-x="206" d="M122 426l12 -5q3 -3 3 3q-10 2 -15 2zM137 424v5q0 16 4.5 51t13.5 70t22 61.5t31 26.5q13 0 13 -11q0 -9 -8.5 -37.5t-18.5 -61.5q-11 -30 -19 -56.5t-12 -45.5q-5 0 -5 -1t-3 -3l-1 -1l-11 2q-2 0 -3 0.5t-3 0.5zM154 420q3 0 2.5 0.5t-2.5 0.5q-1 -1 0 -1z" />
<glyph unicode="(" horiz-adv-x="518" d="M154 215q0 46 30.5 111t81 135.5t114 142t129.5 129t127.5 95t107.5 42.5q12 1 15.5 -1t1 -6t-8.5 -9t-12 -9q-52 -28 -114 -69.5t-123.5 -92.5t-118 -110t-100.5 -121.5t-70.5 -126.5t-26.5 -125q0 -43 11 -82.5t41.5 -85.5t87 -103t147.5 -134q12 -22 14 -30t-2 -9 t-11 1.5t-13 2.5l-96 89q-42 39 -80.5 76.5t-68 80t-46.5 93.5t-17 116zM647 1046l2 7l7 -3zM656 1050l12 5l1 -11zM667 1062l6 -4l-5 -3zM669 1044l11 -4l-9 -6z" />
<glyph unicode=")" horiz-adv-x="507" d="M15 944q2 7 10 10t17 3q14 0 36 -27.5t49.5 -73t56.5 -104.5t57 -120q40 -88 73.5 -171t53.5 -151q19 -62 19 -87q0 -40 -20.5 -88t-52.5 -97t-71 -94.5t-76 -78.5t-66 -50t-43 -9q-9 5 -3 13t19 17t29 19.5t28 20.5q35 31 75 74.5t73.5 90t55 91t18.5 75.5 q-5 54 -26 125.5t-51 148.5t-66 153t-72 140t-68 109.5t-55 60.5z" />
<glyph unicode="*" horiz-adv-x="880" d="M59 385v4l8 -3q14 -6 30 -11t35 -5q52 0 112 15t125 38q-5 3 -20 12.5t-33.5 22.5t-38.5 27t-37 26.5t-27.5 22.5t-10.5 13q0 9 2.5 13.5t10.5 9.5q20 -7 42.5 -24t42.5 -35q15 -13 31.5 -26.5t47.5 -29.5l23 35q4 11 11.5 28t16.5 34.5t19.5 35.5t21.5 32v-9.5 t-0.5 -0.5t-1.5 1t-4 -6q-17 -35 -18 -66v-8.5t2 -9.5v-10.5t0.5 -18.5t0.5 -19v-10q3 3 6 7t8 8l4 -16h50q-20 -7 -38.5 -15t-37.5 -15l-41 -17q8 -14 24.5 -43.5t33 -60t28.5 -57.5t11 -35q0 -8 -5.5 -12.5t-12.5 -4.5q-8 0 -21 23t-26 53.5t-24.5 60.5t-15.5 43 q-31 -22 -53 -49t-37 -56t-26 -60t-20 -58v1l-7 -16q4 14 9 28t11 30q8 24 16.5 47.5t8.5 51.5q0 3 -0.5 9t-0.5 12q-2 5 -2 17.5v24.5l-26 -15q-23 2 -45.5 4.5t-36.5 2.5q-18 0 -40 1t-40.5 4t-31.5 8.5t-13 15.5zM68 182q14 14 29 27.5t31 28.5l-13 -18q-7 -11 -19 -24.5 t-25 -13.5h-3zM128 238q16 14 33.5 28t33.5 25v-1q12 8 30 23t44 36h-3l-26 -13q-22 -12 -36 -21t-25 -18.5t-23 -23.5t-28 -35zM234 136l14 -17q0 6 0.5 12.5t1.5 12.5l-3 -12q-7 2 -6 2t-7 2zM460 492l4 -14q7 8 15 17t20 19q-3 -22 4 -19t13 11.5t3.5 14t-25.5 -8.5z M518 462h8q49 0 102 15l41 10h-17q-36 0 -68.5 -7t-65.5 -18zM669 487q8 2 16 2.5t16 2.5v-2v-2q0 -1 0.5 -3t0.5 -3q-8 2 -16 3t-17 2z" />
<glyph unicode="+" horiz-adv-x="864" d="M1 311q0 27 30 29l47 -23h127q-17 -4 -32 -8t-31 -8q-24 -7 -46 -12t-48 -5q-18 0 -32.5 4t-14.5 23zM205 317h27q20 0 38 4q-5 0 -10 0.5t-10 0.5q-12 0 -23 -1.5t-22 -3.5zM270 321q37 7 58.5 26t33 45t15 55.5t5.5 58.5q2 33 6.5 57.5t22.5 24.5q25 0 24 -21 q0 -14 -5 -30t-10 -31q-8 -19 -13.5 -38t-5.5 -41q0 -25 8.5 -40t21.5 -24t31 -12t38 -3q25 0 49 2.5t48 5.5q24 4 46.5 7t46.5 3q11 0 18.5 -7t12.5 -15q-12 -5 -24 -8.5t-23 -3.5q-24 0 -49 2l-50 4q-24 2 -47.5 4t-49.5 2q-41 0 -64 -19t-33.5 -48t-13 -66t-3.5 -72 q-1 -33 -2.5 -58t-9.5 -33q-8 -1 -13 -2t-12 -2l-28 -4q0 7 0 5t-1 3q0 5 -0.5 9t-0.5 12q0 23 7 44t15 42q9 22 16.5 43.5t7.5 48.5q0 39 -21 54t-52 20zM721 344q2 -4 3.5 -7.5t3.5 -7.5l8 21l-14 -6l1 1z" />
<glyph unicode="," horiz-adv-x="475" d="M196 42q0 14 13 21.5t24 7.5q19 0 35 -9.5t26.5 -24t15.5 -33.5t5 -38q0 -11 -5.5 -23.5t-14 -25.5t-19.5 -26.5t-21 -26.5q-4 -4 -11 -16.5t-15.5 -24.5t-16 -20t-10.5 -2q-2 2 3.5 13t14 25.5t17.5 29t15 23.5q22 34 27.5 63t-10.5 49q-6 7 -18 11.5t-24.5 8.5t-21.5 8 t-9 10z" />
<glyph unicode="-" horiz-adv-x="594" d="M110.5 272.5q-2.5 10.5 19.5 16.5q33 -3 58.5 -3.5t47.5 1t43.5 4t45.5 3.5q28 1 47 1t37 -1t37.5 -3t47.5 -4q5 0 9.5 -4.5t6 -10.5t-0.5 -10t-8 -3q-14 3 -23 4t-17 1h-18.5t-27.5 1q-40 3 -74 1.5t-66 -3.5t-66.5 -4t-76.5 1q-19 2 -21.5 12.5z" />
<glyph unicode="." horiz-adv-x="503" d="M179 17q0 20 8 25.5t25 5.5q8 0 11.5 -3t20.5 -8q8 -12 11.5 -18.5t3 -10t-5.5 -6l-15 -7.5q-15 -7 -24 -4.5t-24 6.5q-6 6 -8.5 9t-2.5 11z" />
<glyph unicode="/" horiz-adv-x="752" d="M-25.5 -138q0.5 9 10.5 21q42 58 92.5 117t111 127t129.5 147t148 179q50 63 87.5 108t67.5 85.5t57.5 83t57.5 99.5q6 11 17 15t10 -8q-2 -20 -25 -59.5t-60 -91.5t-84.5 -114t-100 -127t-106.5 -129.5t-104 -122.5t-91.5 -105.5t-69.5 -79.5q-23 -26 -56 -62t-58 -77 q-8 -13 -16 -17.5t-13 -1t-4.5 12.5z" />
<glyph unicode="0" horiz-adv-x="647" d="M44 111q0 40 14.5 95t39.5 114.5t60.5 117.5t76 104t86.5 74t93 28q45 0 73 -26t41 -67t12 -92t-12 -100q-13 -31 -35 -70.5t-52 -81.5t-68 -82.5t-82 -71t-94 -48.5t-104 -16q-17 1 -27 13.5t-14.5 31t-6 39.5t-1.5 38zM75 96q0 -11 1 -24.5t4 -25.5t9 -21t17 -10 q35 -4 79 13t89 49t87.5 75t76 91.5t54 99.5t20.5 98q0 24 -1.5 52.5t-9 54.5t-24 44.5t-47.5 20.5q-48 3 -93 -23t-85 -71.5t-73.5 -103t-57.5 -116t-36 -112.5t-10 -91z" />
<glyph unicode="1" horiz-adv-x="434" d="M99 406q-7 5 7 17.5t40 30.5t60.5 40t68.5 45.5t64.5 47.5t47.5 47q8 0 14 -1t11 -6q-2 -24 -10 -43t-20 -44q-16 -27 -35.5 -67t-40.5 -87.5t-42.5 -100.5t-41 -104t-37 -98.5t-29.5 -85.5q-4 0 -9.5 -2t-9.5 -2.5t-6.5 1.5t-2.5 9q0 10 3 17t8 25q13 34 24.5 61.5 t21 53.5t18.5 51.5t19 52.5q20 58 59.5 139t85.5 168q-58 -33 -95.5 -59t-57.5 -40q-16 -11 -29.5 -23t-27 -21t-27 -15.5t-31.5 -6.5z" />
<glyph unicode="2" horiz-adv-x="671" d="M55 96q-8 13 6.5 21t50.5 17q24 32 58 62t62 51q42 32 82 63t72.5 68t54 82t26.5 105q1 12 -4.5 21.5t-14 15.5t-18.5 9t-18 3q-20 0 -37.5 -7t-30.5 -18t-24.5 -24.5t-21.5 -25.5q-10 -13 -19 -24t-20 -16q-1 2 -3.5 4t-1.5 4q5 23 19.5 47t35.5 43.5t47.5 32t56.5 12.5 q37 0 58.5 -20.5t21.5 -59.5q0 -57 -22 -104.5t-58.5 -89t-82.5 -79t-94 -74.5q-26 -20 -53.5 -43t-44.5 -51q16 -9 23 -27t20 -36.5t40.5 -32.5t85.5 -15q24 0 45 4t42.5 12t43.5 17t46 19q16 7 38.5 19t42 21.5t32 12.5t11.5 -9q-3 -5 -14.5 -13t-29 -18t-38 -21 t-41.5 -19q-53 -23 -98.5 -37t-84.5 -14q-36 0 -68 5t-60 29q-19 17 -27.5 30.5t-12.5 23t-7.5 13.5t-14.5 4h-14t-18 0.5t-16.5 2t-8.5 4.5z" />
<glyph unicode="3" horiz-adv-x="602" d="M-17 30q-2 9 21 9q11 0 20 -4.5t20.5 -10.5t29 -10.5t46.5 -4.5q49 0 102 12.5t98 36t74 59t29 80.5q0 32 -18.5 54.5t-46 40t-59 29.5t-55.5 20q-11 3 -17.5 4t-10.5 1.5t-7.5 1t-9.5 2.5q-4 2 -3.5 10t3.5 11t12.5 6.5t29.5 5.5q17 2 47 14t63.5 30.5t65.5 43 t52.5 51.5t27 54.5t-12.5 53.5q-10 14 -29 17t-41.5 -0.5t-47.5 -12t-47.5 -17.5t-41 -15.5t-27.5 -6.5q-10 0 -11.5 3t0.5 7t7 11q26 9 52.5 19.5t52.5 20t51 15t48 5.5q14 0 27 -8t23.5 -19.5t16.5 -27t6 -30.5q0 -29 -21.5 -62.5t-57 -66t-83 -59.5t-97.5 -43 q45 -12 82 -31t61.5 -42t36 -50.5t6.5 -57.5q-9 -54 -43.5 -91.5t-80 -61t-97 -34t-94.5 -10.5q-15 0 -34 1t-37 3.5t-34 7t-26 12.5q-19 15 -21 24z" />
<glyph unicode="4" horiz-adv-x="620" d="M47 307q19 46 49 94t59.5 96t52.5 97t29 100h17q8 -12 2 -33.5t-11 -38.5q-13 -49 -36 -91t-47.5 -79.5t-46.5 -73t-34 -72.5q-2 -6 1.5 -9.5t9.5 -5.5t14 -2.5t15 -0.5q95 0 159.5 3.5t103.5 8.5q15 27 35.5 61.5t42.5 71.5t45 73.5t45 66.5q7 5 14.5 0.5t5.5 -9.5 q-3 -7 -16.5 -32t-35 -61.5t-48 -82t-53.5 -92t-53 -91.5t-46.5 -81.5t-33.5 -61.5t-14 -31q-4 -14 -6.5 -24t-4.5 -22q-2 -11 -7.5 -15.5t-11 -4t-10 3.5t-4.5 6q0 28 13.5 63.5t34.5 74t45 78t46 77.5q-84 -6 -142 -8t-105 -2q-11 0 -24 2t-24 7t-18 15t-7 25z" />
<glyph unicode="5" horiz-adv-x="645" d="M-17 -15q0 14 14.5 21t33.5 8q24 -3 25 -5.5t-8 -15.5q36 9 82 23.5t87.5 35.5t70.5 49.5t29 65.5q0 29 -12.5 53t-32 46t-42 42.5t-42 41.5t-32.5 43t-13 47q0 20 7.5 45.5t19.5 49t28 43.5t33 31q37 2 88 -5t108 -16t119 -15.5t123 -2.5q16 0 20.5 -3.5t16.5 -16.5 q-3 -7 -10 -9.5t-14 -2.5t-15.5 1t-14.5 1q-45 0 -97 6.5t-107 14.5t-108 15.5t-99 9.5q-10 -7 -21 -22.5t-20 -35t-14.5 -41t-5.5 -40.5q0 -28 12 -48.5t29.5 -39.5t38.5 -37.5t39.5 -39.5t33 -46t18.5 -59q5 -43 -24 -77.5t-75.5 -61t-102 -44.5t-101.5 -28 q-11 -2 -22.5 -1.5t-21 3t-15.5 7.5t-6 10z" />
<glyph unicode="6" horiz-adv-x="587" d="M72 67q0 103 28.5 197.5t77 181t113 165.5t136.5 153l23 -7q-2 -5 -18 -25t-40.5 -50t-54 -65t-57.5 -71.5t-50.5 -70t-33.5 -58.5q58 15 101 9t71 -27.5t42 -56.5t14 -78q0 -34 -10.5 -71t-28.5 -73t-44 -68.5t-55.5 -55t-62.5 -32.5t-66 -3q-49 10 -67 36t-18 70z M103.5 73.5q-0.5 -14.5 1 -28t6 -25.5t13.5 -19q32 -24 77.5 -15t88 45t73 96t32.5 140q1 36 -10 61t-30 41t-43.5 22.5t-49 6t-48 -8t-39.5 -19.5q-10 -19 -22.5 -52t-23 -70.5t-18 -76.5t-7.5 -71q0 -12 -0.5 -26.5z" />
<glyph unicode="7" horiz-adv-x="550" d="M66 -140q12 38 29 75t34 72.5t34 68t28 59.5q6 15 8.5 23.5t2 13.5t-3.5 10t-7 16q-5 17 -5 24t6.5 8.5t19 1.5t31.5 5q23 50 49.5 102.5t47 102.5t31 94t0.5 76q-9 28 -35.5 41t-63.5 11l-176 -12q-7 0 -13 3.5t-9 8.5t-1 9t12 5q41 3 66.5 5.5t44.5 5t35.5 3.5t38.5 1 q28 0 52 -4.5t42.5 -17t29 -33.5t10.5 -52q0 -43 -12.5 -85.5t-31.5 -85.5t-42 -87t-45 -90q25 -2 48.5 -3t48 0t51 1.5t57.5 0.5q7 0 19.5 0.5t24.5 -0.5t19 -4.5t5 -10.5q-4 -13 -30.5 -12.5t-56.5 0.5q-48 0 -93 -0.5t-104 -2.5q-41 -77 -85 -168.5t-84 -184.5 q-2 -5 -7 -6.5t-9.5 0t-8 5t-2.5 7.5z" />
<glyph unicode="8" horiz-adv-x="686" d="M23 67q0 43 23.5 86.5t60.5 82t83 70t90 48.5q-6 25 -14 46.5t-14 42.5t-10 43t-4 48q0 18 9 45.5t29 51.5q15 19 42 34t58 25t62 16t56 6q43 0 65 -23t22 -66q0 -35 -30 -75.5t-72 -80t-87.5 -73.5t-77.5 -55l64 -117q11 -26 14.5 -47t3.5 -46q0 -46 -23 -77.5 t-57.5 -50.5t-76 -28t-79.5 -9q-24 0 -48 5.5t-44 18t-32.5 32t-12.5 47.5zM54 78q-1 -27 9.5 -43.5t26.5 -25.5t36.5 -12.5t39.5 -3.5q81 0 129.5 26t64.5 71.5t-1.5 105.5t-67.5 128q-34 -13 -74.5 -38.5t-76.5 -58t-60.5 -71t-25.5 -78.5zM267 513q3 -16 4 -29t4.5 -29 t10 -36.5t18.5 -54.5q29 17 63 41.5t67 52.5t61 58.5t44 59t17 54.5t-19 46q-9 9 -35 10t-57.5 -5t-65.5 -20.5t-60.5 -35.5t-42 -49t-9.5 -63z" />
<glyph unicode="9" horiz-adv-x="651" d="M20 53q0 13 9 19t20 6q16 0 19 -6t3 -15.5t1.5 -21t15 -22t45 -19t89.5 -11.5q44 -3 77.5 16.5t58 54t42 79t30.5 90.5t24 90t21 78q-40 -11 -70.5 -17.5t-58 -10.5t-54.5 -5t-59 -1q-26 0 -52 6.5t-48.5 18.5t-37 31t-14.5 46q-1 53 32 93.5t83 66.5t109 39t109 12 q31 0 63 -10t55.5 -28.5t34 -44.5t-2.5 -59q-14 -36 -30 -72t-27 -70v1q-14 -36 -26.5 -82t-26.5 -94t-32 -94t-44.5 -82.5t-64.5 -58.5t-90 -22q-20 0 -54.5 5t-67 17t-57 31t-24.5 46zM108 457q-2 -31 21.5 -46t52.5 -21q34 -7 79 -6q46 0 104.5 6.5t126.5 33.5 q7 18 17 41.5t18.5 47.5t11 44t-7.5 31q-25 31 -55 41.5t-68 10.5q-43 0 -94 -8.5t-95.5 -29t-76 -56.5t-34.5 -89z" />
<glyph unicode=":" horiz-adv-x="438" d="M195 101q0 20 11.5 36.5t32.5 16.5q15 0 19 -10t4 -25q0 -38 -40 -38q-11 0 -19 4.5t-8 15.5zM285.5 488q1.5 8 10.5 13t31 5q15 0 25 -15.5t10 -29.5q0 -9 -7 -13.5t-17 -4t-21.5 5t-18.5 10.5q-6 5 -10 13t-2.5 16z" />
<glyph unicode=";" horiz-adv-x="512" d="M201 121q0 14 13 21.5t25 7.5q19 0 34.5 -9.5t26 -24.5t16 -33.5t5.5 -37.5q0 -11 -6 -23.5t-14.5 -25.5t-19.5 -26.5t-21 -26.5q-4 -4 -11 -16.5t-15.5 -25t-16 -20t-10.5 -1.5q-2 2 3.5 13t14 25t17.5 29t15 24q22 34 27.5 62.5t-10.5 49.5q-6 7 -18 11.5t-24.5 8 t-21.5 8t-9 10.5zM245.5 488q1.5 8 10.5 13t31 5q15 0 25.5 -15.5t10.5 -29.5q0 -9 -7.5 -13.5t-17.5 -4t-21.5 5t-18.5 10.5q-6 5 -10 13t-2.5 16z" />
<glyph unicode="&#x3c;" horiz-adv-x="1087" d="M62 284q1 12 25.5 32.5t60 45t77 51t77.5 51.5q37 27 77 55.5t82 61.5q59 45 117.5 90t107.5 83.5t86 67t52 41.5q7 6 15 5t12.5 -5.5t5 -11t-5.5 -11.5q-48 -43 -122 -101t-172 -135q-36 -29 -81 -61.5t-91.5 -65.5t-90.5 -63.5t-79 -55t-55.5 -41t-20.5 -20.5 q0 -5 23.5 -12t57.5 -16.5t70.5 -19.5t62.5 -20q48 -17 80.5 -30t58.5 -24.5t51 -24t59 -27.5q5 -2 4.5 -7.5t-5 -10.5t-12 -7.5t-17.5 0.5q-44 17 -72 29.5t-49.5 21.5t-39.5 16t-41 14t-54.5 16t-79.5 21q-25 6 -55 14t-57 16.5t-45 18t-17 19.5z" />
<glyph unicode="=" horiz-adv-x="692" d="M41 164q-2 12 13 9.5t39 -2.5q76 0 146.5 4.5t140.5 11.5q32 3 62.5 6t63.5 3q15 0 39 -6q9 -4 9 -15q0 -13 -13 -12t-27 1q-65 0 -124 -5.5t-121 -8.5q-56 -2 -106 -5.5t-102 -3.5q-10 0 -14 6t-6 17zM115 373q0 16 12 16.5t26 0.5h161q5 0 23 -0.5t42.5 -1t53 -1 t53.5 -1t43.5 -1t23.5 -0.5q10 0 13.5 -5.5t3 -12t-4.5 -12t-10 -5.5l-190 6h-30.5h-40.5t-40.5 0.5t-30.5 1.5q-15 1 -27 0t-22.5 -1.5t-22 -0.5t-26.5 3q-10 4 -10 14z" />
<glyph unicode="&#x3e;" horiz-adv-x="1116" d="M37.5 -52q-0.5 8 2.5 15.5t11 10.5q50 18 114 52t134 78t142.5 94.5t140 100.5t127.5 97t104.5 85t70.5 63.5t26 32.5q1 10 -24 24t-70 33.5t-106 45.5t-132 58q-84 39 -159 88.5t-124 93.5q-3 3 -5 9.5t0 12t9.5 6.5t23.5 -6q11 -6 25 -16t26 -20q13 -11 27 -23 q66 -48 134 -82.5t138 -64t140.5 -59t139.5 -67.5q8 -5 11.5 -9.5t5.5 -9.5t2 -11q-4 -20 -19 -34.5t-26 -25.5q-83 -66 -158 -124q-32 -25 -65 -51t-64.5 -50t-58 -45t-44.5 -34q-55 -42 -110.5 -81.5t-114 -75.5t-122.5 -68t-137 -58q-7 -3 -11 2t-4.5 13z" />
<glyph unicode="?" horiz-adv-x="864" d="M151 -36q-7 11 4 25q8 11 13 15t16 4q17 0 25.5 -4.5t8.5 -21.5q0 -11 -9 -18.5t-14 -7.5l-26 -2q-11 -1 -18 10zM158 254q4 40 15.5 67t30 48t44 39t56.5 38q30 19 65 40.5t71 45.5t71 51t63 58t47 66t25 75q5 32 -24.5 45t-106.5 13q-16 0 -52.5 -3t-82.5 -12.5 t-96.5 -26t-93.5 -42.5q-2 -2 -6.5 -1t-8 3.5t-4.5 6t5 6.5q53 34 109.5 53t107 28t93 11t69.5 2q52 0 85.5 -17.5t33.5 -56.5q0 -43 -21 -82.5t-55 -76t-77.5 -70t-89 -63.5t-89 -57.5t-78.5 -52.5q-23 -16 -36.5 -30t-21.5 -30t-13 -35.5t-8 -45.5q-1 -6 -5.5 -10 t-10 -4.5t-9 4.5t-2.5 16z" />
<glyph unicode="@" horiz-adv-x="1101" d="M-77 175q-4 91 27.5 178t89 165.5t136.5 144t170 113.5t190.5 75t197.5 27q69 0 136 -14t118.5 -45.5t81 -83t23.5 -128.5q-5 -63 -40 -119.5t-89 -103.5t-121.5 -84t-139.5 -62.5t-144 -39.5t-132 -14q-31 0 -59.5 7t-50.5 20.5t-35.5 36t-13.5 54.5q0 33 11.5 63.5 t31.5 59t47 53t58 45.5q32 22 59.5 37t55 25.5t55 16.5t59.5 9q17 1 41.5 -2.5t46 -19t35.5 -45.5t12 -80q11 27 19 42t14.5 26t13.5 21t15 26q4 8 12.5 11.5t15 1.5t8 -8.5t-9.5 -18.5q-13 -15 -29.5 -42.5t-33.5 -64.5t-33 -82t-32 -95q69 30 128.5 68.5t103 83.5t68 96 t24.5 104q0 68 -31.5 110.5t-80.5 66.5t-109.5 32.5t-119.5 8.5q-81 0 -169.5 -23.5t-174 -66.5t-163 -102.5t-136 -131t-93.5 -153t-35 -168.5q0 -82 28.5 -137t76 -88t109 -47.5t126.5 -14.5q32 0 57.5 0.5t54.5 2.5t65.5 6t88.5 13q13 2 44 10t72 21t89 27.5t95.5 30.5 t92.5 30.5t80 25.5t56.5 18t22.5 6q8 -4 10.5 -7t1.5 -5t-3.5 -3.5t-3.5 -1.5h1q7 1 -8 -5t-45 -16.5t-70 -23.5t-82 -26.5t-81.5 -26.5t-69.5 -22.5t-46 -15t-8 -3.5q-59 -18 -116.5 -30.5t-105.5 -19t-86 -9.5t-60 -3q-69 0 -140.5 10.5t-131.5 40.5t-99.5 85.5 t-43.5 146.5zM303 310q-1 -28 10 -46.5t29.5 -30t45 -16t56.5 -3.5q68 2 136 17.5t121 38.5q1 12 8.5 32t15.5 43.5t16.5 50t11.5 54.5q3 26 0.5 50.5t-14.5 44t-35.5 30.5t-62.5 8q-31 -2 -67 -14t-73.5 -30.5t-73 -43.5t-62.5 -54t-44 -62.5t-18 -68.5z" />
<glyph unicode="A" horiz-adv-x="974" d="M-341 -69q106 53 192 104.5t156 100t126 93.5t106 86q-4 6 -12 10t-16 6t-14.5 5t-6.5 9l-1 -2l1 2v1v-1v1q27 1 54 0.5t54 3.5q14 10 48.5 37t81 63t102 79.5t111 88t108 85t94.5 72.5t68.5 51.5t31.5 19.5l11 -5l-12 -29t-31.5 -74t-42.5 -98.5t-44 -105t-37.5 -93.5 t-21.5 -61q24 2 50.5 1.5t53.5 -1.5q-1 -5 -10 -14.5t-17 -11.5q-30 -7 -52.5 -5.5t-38.5 -1.5q-19 -48 -41 -109t-38 -121.5t-22 -112.5q-2 -19 -3 -35q0 -27 7 -46l24 -18q27 0 45.5 11t39.5 24l13 -11q0 -17 -15 -30t-35 -19t-40 -8q-6 0 -11 -1q-13 0 -23 3l-22 21 q-5 11 -7 20t-3.5 18t-1.5 18.5v21.5q0 46 11 95t26.5 96.5t33 93.5t31.5 88q-110 0 -217 -11.5t-215 -23.5q-51 -38 -104 -79t-106.5 -81.5t-109.5 -80t-114 -73.5h1q-20 -14 -44 -27.5t-49.5 -24t-51 -16.5t-51.5 -5v7zM346 344q96 11 191.5 23.5t192.5 12.5l177 422z" />
<glyph unicode="B" horiz-adv-x="1083" d="M-440 -114q4 -4 10.5 2t10.5 2q33 -25 77.5 -39.5t92.5 -23t96 -11t86 -2.5q62 0 116 5.5t105.5 15t104.5 21.5t116 24l-13 15q26 51 47.5 111.5t40.5 123.5t34.5 125.5t27.5 119.5t21.5 105.5t15.5 82.5q-27 4 -58 2t-54 6q-7 2 -8.5 13.5t10.5 20.5q17 4 28 6t22 5.5 t25.5 8t39.5 13.5q2 13 3.5 30.5t3 35.5t4.5 35t9 29q15 -2 21 -15t6.5 -29.5t-1.5 -34t-2 -29.5q16 6 43 17.5t56.5 27t59.5 33.5t55 37t40.5 37t17.5 36q2 22 -16 33.5t-44.5 17t-53.5 6.5t-41 1q-27 0 -77 -2t-114.5 -7t-138.5 -14t-146 -22t-137.5 -32t-115.5 -45 q-49 -26 -77 -58q-24 -28 -25 -63q0 -5 1 -10q1 -15 9 -27t15.5 -22t14 -20t6.5 -21l-3 -10q-12 -3 -25.5 9t-25 31.5t-19 40.5t-7.5 37q0 39 31 71t81.5 58t117 45.5t139 34.5t145 25t135.5 16.5t111.5 9t73.5 2.5q31 0 69 -1.5t70.5 -10t54.5 -25.5t22 -49q0 -22 -18 -45 t-47 -46t-64.5 -44.5t-69.5 -40t-64.5 -33t-47.5 -23.5l-4 -22q29 -2 68.5 -5.5t82.5 -11t85.5 -19t76 -31.5t54 -49.5t20.5 -69.5q0 -44 -29 -99t-75 -112t-104.5 -112.5t-119.5 -101t-119 -77.5t-102 -42q-49 -13 -110.5 -26.5t-129 -25t-137.5 -18.5t-137 -7 q-16 0 -46.5 2t-67 6.5t-75 12t-72 18.5t-57.5 26.5t-31 34.5zM400 -116q49 15 107 47t116.5 73.5t114 91t98.5 102t70 105.5t30 101v8q0 38 -24 64q-27 28 -66.5 45.5t-84 25.5t-77.5 12q-30 3 -44 3h-14h-10q-9 0 -15.5 -1t-19.5 0q-15 -74 -31 -152.5t-36 -162.5 t-47.5 -175t-66.5 -187z" />
<glyph unicode="C" horiz-adv-x="776" d="M-101 89q0 48 23 106t63.5 119.5t94.5 124t116.5 120.5t129.5 109t132.5 88.5t126.5 59t111 21.5q30 0 44 -17q13 -16 13 -43q0 -28 -14 -65q-13 -36 -36 -74.5t-55 -76t-69 -67.5q-23 -18 -45.5 -37.5t-46.5 -35t-49 -26t-54 -11.5l-17 7l9 23q29 0 62.5 16.5t67 41 t62 51t47.5 46.5q30 31 56 73t38 80q7 21 7 39q0 13 -4 25q-9 26 -48 22q-60 -5 -134.5 -42.5t-152 -94.5t-152 -128.5t-135 -144.5t-102 -143.5t-51.5 -124.5q-5 -25 -5 -48q0 -18 3 -36q6 -41 25.5 -73t52 -52t78.5 -20q96 0 224 56t276 155q13 11 23.5 12t15 -3t4 -10 t-7.5 -8q-50 -37 -119 -77.5t-144 -74.5t-150 -56.5t-137 -22.5q-46 0 -79.5 18.5t-55 49t-32 69.5t-10.5 80z" />
<glyph unicode="D" horiz-adv-x="1079" d="M-122 -27q0 12 4 31t12 36.5t18.5 31.5t25.5 17l13 -12q-2 -9 -8 -17t-13.5 -17t-12.5 -23t-5 -36q0 -46 22.5 -73t57.5 -39q34 -14 74 -16q29 -2 55 -1h20q41 1 78.5 3t77.5 8.5t86 19t106 33.5q12 87 36.5 185t52.5 198.5t56 200t48 189.5q-50 17 -90 29.5t-77.5 21 t-76 12.5t-86.5 6q-13 0 -35.5 0.5t-44 -3.5t-37 -14.5t-15.5 -30.5q0 -8 3.5 -18.5t8.5 -21t10.5 -20t10.5 -15.5l-4 -18q-12 4 -22 18t-17 31.5t-11 34.5t-4 27q0 19 14.5 30t35.5 16.5t42.5 6.5t36.5 2q93 0 186 -17t181 -49q8 23 15.5 51.5t15.5 56.5t17.5 51.5 t21.5 34.5l9 -19q0 -22 -6 -44.5t-14.5 -46t-17 -48t-13.5 -50.5q61 -25 114.5 -58.5t92.5 -76.5t61.5 -95.5t22.5 -115.5q0 -82 -41.5 -152t-109 -128t-155.5 -104t-179.5 -77.5t-180.5 -49t-161 -19.5q-17 -1 -36 -1q-10 1 -21 1q-32 0 -65.5 3.5t-66.5 12.5t-58.5 24.5 t-41.5 41t-16 61.5zM526 -68q48 15 101.5 38.5t104.5 53t97.5 66.5t81 80.5t55 93.5t20.5 105q0 58 -24 107.5t-62.5 89t-88 68.5t-99.5 45q-42 -160 -85 -307.5t-81 -298.5q-6 -34 -12 -69.5t-8 -71.5z" />
<glyph unicode="E" horiz-adv-x="899" d="M-311 221q56 25 118.5 34t126.5 12q54 2 108 2q11 -1 21 -1h18q54 0 105 3q22 44 46 90t47 91.5t44.5 91t37.5 90.5l27 -19q-14 -31 -24 -53l-20 -44t-23 -48t-32 -62v1q-7 -13 -16 -31t-17.5 -36t-17 -35.5t-13.5 -32.5q14 -1 28 -1q32 -1 63 3q45 4 90 11t89.5 14.5 t89.5 12.5q-4 -2 -2 -8t-3 -8q-31 -12 -81 -22.5t-104.5 -17.5t-105.5 -11t-83 -5q-13 -34 -25.5 -62t-21.5 -55t-15 -53.5t-6 -56.5q0 -29 10.5 -47.5t28.5 -30t42 -16t51 -2.5q62 3 138 17.5t154.5 34.5t154 43t137.5 43q8 -7 8.5 -9.5t-7.5 -7.5q-33 -18 -81.5 -36.5 t-106 -36t-118 -32t-116.5 -25.5t-102.5 -17.5t-76.5 -6.5q-29 0 -56.5 5.5t-49 18.5t-35 35t-13.5 56q0 52 17 107t55 132q-51 0 -111 4q-52 3 -105 3q-8 -1 -16 -1q-60 0 -117 -10t-103 -37l13 -23l-8 -12q-14 1 -24.5 7t-16.5 15q-5 7 -5 14q0 11 10 21zM-65 724 q4 29 22 43t42.5 20.5t51.5 6.5h48q58 0 125 -2t136.5 -5.5t139 -7.5t134.5 -8l237 -12l38 -2t35 -14q-32 -11 -62 -11q-78 0 -155.5 5t-155 11t-156 11t-156.5 5q-26 0 -58 1q-31 1 -65 1q-11 0 -23 1q-22 0 -43 -1q-32 -1 -58 -5q-14 -2 -22.5 -9t-15 -14t-12 -13 t-13.5 -8z" />
<glyph unicode="F" horiz-adv-x="786" d="M-452 680q0 16 25 29t65.5 22.5t94 16t111.5 10.5t116 6t109 3t89.5 1h57.5q25 0 75 -1t117 -3t145 -5.5t156.5 -9t153.5 -12.5t135.5 -16t101.5 -20.5t52 -25.5l-8 -9q-26 0 -54.5 4.5t-58 11t-58 13t-53.5 10.5q-150 20 -291 24.5t-283 4.5l-161 -383q65 -6 127.5 -8.5 t126.5 -2.5q65 0 126.5 -6.5t125.5 -18.5l-20 -12q-33 -6 -68 -6q-3 1 -6 1q-38 0 -76.5 2.5t-76 6t-74.5 3.5q-33 0 -57.5 1t-47 2.5t-44 3t-47.5 4.5q-11 -30 -27 -66.5t-32 -74t-28.5 -73t-19 -64.5t-3 -47.5t20.5 -20.5l-11 -27q-23 10 -32 21t-9 38q0 23 12 66.5 t29 90.5t35 90t28 67q-19 2 -36 -1.5t-31 4.5l-10 12q-3 12 5.5 16.5t22.5 5.5t31 0t33 0q7 18 12.5 31t10.5 25t10.5 25t14.5 31h-1q30 65 60 129.5t52 137.5q-54 3 -119 3h-65.5h-67.5q-68 0 -135 -3t-125.5 -8.5t-105.5 -13.5t-74 -21q-9 -4 -14 -9.5l-10 -11t-10.5 -9.5 t-15.5 -4q-13 0 -17 4t-4 16z" />
<glyph unicode="G" horiz-adv-x="694" d="M-40 117q0 66 26.5 135t72 137.5t107.5 134.5t133.5 126t148 110t151.5 87.5t145.5 59.5t128.5 24h9q19 0 32 -3q15 -5 23 -13t11.5 -17.5t4.5 -18.5v-7q0 -21 -15 -48q-17 -30 -48.5 -62t-71.5 -62.5t-79.5 -54.5t-74.5 -39t-57 -15l-4 13v-1q22 6 54.5 23t68.5 39 t72.5 48.5t65 54t46.5 53.5t18 46q0 13 -6 21t-15 12t-20 5t-22 0q-52 -4 -117 -25.5t-136 -57.5t-144.5 -83.5t-142.5 -103.5t-130 -119t-106 -130t-71 -135.5t-26 -134.5q0 -23 3.5 -43t12.5 -35t26.5 -24.5t45.5 -9.5q74 0 136.5 29t119.5 68t114 77t118 56 q1 -5 2.5 -10.5t1.5 -10.5q0 -18 -20 -56.5t-47.5 -90.5t-57 -113.5t-48.5 -125.5q47 32 96 67t98.5 71t98 71.5t95.5 65.5q16 -1 15 -9t-14.5 -21t-36.5 -29t-49 -33q-11 -6 -35.5 -23.5t-56.5 -40t-67.5 -48t-67.5 -49t-56.5 -41.5t-34.5 -25q-16 -50 -39.5 -115.5 t-53.5 -135.5t-64 -137t-71 -120t-74.5 -85.5t-73.5 -32.5q-7 0 -11 12.5t-6.5 28.5t-3 30.5t-0.5 20.5q0 58 22.5 120t55.5 118.5t72 104.5t72 78q24 23 60.5 55.5t95.5 81.5q14 44 30 83.5t30 72.5v-1q10 28 25 57t30.5 59.5t30 59.5t26.5 57q-50 -25 -106 -62.5 t-114 -72.5t-117 -60.5t-115 -25.5q-69 0 -97 39.5t-28 103.5zM12 -771q1 -8 3.5 -17t7.5 -14t12 -6h1q7 0 16 8q51 49 93 109.5t78 131.5t67.5 151t61.5 169q-47 -37 -104 -93t-107 -125.5t-86.5 -149.5t-42.5 -164z" />
<glyph unicode="H" horiz-adv-x="702" d="M-257 271q22 17 62 28t91 18.5t107.5 11t111.5 6.5q39 57 67 121t55 128q16 38 33 76.5t36 76.5t41.5 74t49.5 68l18 -13q-8 -24 -18 -34t-24 -30q-34 -51 -61.5 -109.5t-53 -119t-50.5 -121.5t-52 -117q30 0 67.5 4t78.5 10.5t83 15t79 17t67.5 15.5t49.5 12 q20 30 36.5 56.5t27.5 46.5l-1 -1q36 52 64 111t56 115q6 12 13 28.5t17 32.5t22 31.5t28 26.5l12 -6q-6 -28 -23 -53.5t-31 -48.5q-34 -66 -77.5 -152t-104.5 -181q3 0 14 2.5t23.5 6t23 7.5t13.5 6q-1 -15 -10 -24.5t-23 -16t-30.5 -11.5t-31.5 -12q-18 -31 -40 -70.5 t-44.5 -83.5t-43 -90t-36 -89t-22.5 -81q-4 -24 -5 -45q0 -12 2 -22q3 -14 8 -16t11 0.5t13.5 5.5t13.5 0v-5q0 -11 -5.5 -20.5t-13.5 -14.5q-7 -5 -17 -6h-4q-8 0 -17 4q-19 30 -19 72q0 38 11 82q11 46 31.5 94.5t45 98.5t48.5 96.5t43 87.5q-51 -9 -104.5 -20t-107 -20.5 t-107.5 -16.5t-105 -8q-14 -30 -33 -65t-37 -72.5t-30 -74t-12 -67.5q0 -4 -0.5 -14.5t-2.5 -20.5t-5.5 -18t-9.5 -8t-10.5 8t-4.5 14q0 27 5.5 51t16.5 60q16 52 40.5 104t44.5 103q-44 -1 -77 -2.5t-60 -4.5t-50 -6t-45.5 -8t-48 -11t-57.5 -13q-8 -2 -8.5 1.5t-7.5 8.5z " />
<glyph unicode="I" horiz-adv-x="702" d="M-85 -37q1 12 13 13t26.5 -3t30.5 -10t27 -6h22q38 1 70 3q40 4 76.5 9.5t75 14t88.5 17.5v23q0 75 6 155q6 93 22 186.5t41 183t61 166.5q-33 3 -65.5 5.5t-65.5 2.5q-33 1 -78 1h-5q-42 0 -84 -9q-44 -9 -81.5 -34t-52.5 -74l-7 -14q-12 10 -13.5 21t3.5 25q9 38 39 60 t67.5 33.5t75.5 15.5t63 4q90 0 179.5 -8.5t180.5 -8.5q15 0 33.5 2t35 3t27 -2t9.5 -13q-10 -11 -33.5 -14.5t-50 -3.5t-53 1.5t-41.5 1.5q-16 -2 -29 -1.5t-29 0.5q-31 -68 -56 -149.5t-42 -171t-25 -186.5q-6 -71 -6 -142q0 -27 1 -54q18 -1 35 -1q38 -1 69 3 q46 4 85.5 11t75 12t72.5 5q3 0 7.5 -4t7.5 -9t1 -9.5t-13 -5.5q-15 -2 -51 -6t-85 -9.5t-105.5 -11.5t-113.5 -10q-34 -2 -69 -8.5l-70 -13t-69 -12t-68 -5.5h-37.5t-52 3.5t-48.5 9.5t-27 18z" />
<glyph unicode="J" horiz-adv-x="688" d="M-274 -473q0 63 23.5 120t63.5 107t92 93t109 79t115 64t110 49q59 110 103.5 223.5t79.5 233.5t62 247.5t52 264.5q-29 5 -48.5 7.5t-48.5 2.5q-46 0 -96 -8t-101 -17t-101 -16.5t-96 -7.5q-24 0 -45 8q0 11 5 15.5t12 5t15 -0.5t16 -1q55 1 108 9t103 17t97.5 16.5 t92.5 7.5q31 0 59 -4t59 -8q-15 -92 -36.5 -201.5t-55 -234t-80.5 -261.5t-113 -283q66 13 124 25t113.5 21t110.5 13.5t112 4.5q3 -3 3 -5q0 -8 -27 -13q-35 -8 -103 -17.5t-161.5 -25.5t-196.5 -47q-6 -17 -11 -30t-12 -28t-15.5 -35t-21.5 -50q-14 -32 -36 -79 t-49.5 -98.5t-60.5 -104t-70 -94.5t-77.5 -69.5t-83.5 -29.5h-8q-23 0 -39 10q-18 13 -28.5 33t-14.5 44.5t-4 47.5zM-245 -464q0 -15 2 -36t9.5 -39.5t19.5 -30.5q11 -10 29 -10h6q41 3 80.5 33t77 76.5t72.5 106t65.5 122.5t57 125t45.5 114q-37 -13 -86 -37.5t-100 -57.5 t-101.5 -74t-89.5 -87.5t-63 -98.5t-24 -106z" />
<glyph unicode="K" horiz-adv-x="827" d="M-241 -139q0 19 13 27.5t29 16.5q35 32 69.5 78t66.5 95t60.5 96t49.5 83q-3 0 -8.5 0.5t-10.5 2.5t-9 5.5t-4 10.5q0 16 6.5 25.5t17 14.5t24 5.5t28.5 0.5l317 532l21 -2q-25 -53 -63.5 -120t-81.5 -139.5t-86.5 -145.5t-77.5 -138q10 -4 18.5 -9.5t11.5 -5.5 q47 0 113 20.5t140 51t152 67t150 67.5t133.5 53t102.5 25l5 -14q-42 -9 -100.5 -32.5t-127 -53t-142 -62.5t-146.5 -61.5t-140.5 -50t-121.5 -28.5q26 -17 43 -47.5t29.5 -68t21.5 -76.5t19.5 -72.5t22.5 -57t31 -28.5q16 -5 39 -5q34 0 81 11q79 18 201 76q11 5 13.5 3 t-2.5 -11q-29 -18 -68 -37.5t-81 -35t-83.5 -25.5t-76.5 -10q-38 0 -58.5 21.5t-33.5 56t-20.5 77t-19.5 84.5t-31.5 78.5t-55.5 58.5q-11 -2 -18 -3t-13.5 -2.5t-13.5 -3.5t-17 -6q-6 -10 -26 -43.5t-48.5 -77.5t-62 -92.5t-65.5 -89.5t-60 -67.5t-44 -26.5l-12 3v2z" />
<glyph unicode="L" horiz-adv-x="694" d="M-257 -15q7 7 15.5 11t17.5 6l18 4t19 6q132 56 243.5 150t207 208t177.5 239.5t155 245.5q12 28 15.5 42t6.5 21.5t8.5 10t21.5 7.5q14 -1 18 -6t1 -13t-10.5 -17t-14.5 -16q-42 -74 -89 -156.5t-95 -168t-95.5 -171.5t-89.5 -167t-76 -153.5t-56.5 -131t-31 -100.5 t1.5 -61q7 -12 46.5 1t97.5 39t129 59.5t142 61.5q72 28 136 44q43 11 78 11q17 0 31 -3q-2 -14 -4.5 -16t-13.5 -2q-48 0 -114 -20t-137.5 -49t-142 -62.5t-128.5 -60t-96 -40.5q-24 -9 -35 -9q-6 0 -9 3q-15 21 -15 55v10q2 41 21 97.5t51 125.5t73 148t88 166t97 179 q-148 -206 -306 -343.5t-337 -205.5q-5 -2 -11.5 3.5t-8.5 17.5z" />
<glyph unicode="M" horiz-adv-x="1876" d="M-253 -125q0 57 43.5 136.5t117 170t169.5 187.5t202.5 188.5t216 174t208.5 144t181.5 98t133.5 36.5q43 0 60.5 -28.5t17.5 -67.5q0 -40 -21.5 -100t-57.5 -131.5t-82.5 -147.5t-95.5 -146q35 45 78.5 95.5t92.5 100t101 96t105 85t104 66.5t97 41q7 2 12 -3t7.5 -13.5 t3.5 -19t-1 -18.5q-5 -52 -32.5 -108.5t-64.5 -114t-78.5 -114t-73.5 -107.5q-19 -31 -50 -77.5t-65.5 -100.5t-69.5 -111t-64 -110.5t-47 -98t-18 -72.5q9 7 40.5 49t83 106.5t121.5 145.5t155 169q72 74 153.5 148.5t163 142.5t157 129t134.5 109q11 8 13 4q1 -1 1 -3 q0 -5 -4 -13q-5 -12 -13.5 -25.5t-15.5 -25.5q-44 -63 -88 -133.5t-83 -145t-69.5 -148.5t-46.5 -144q-15 -66 -15 -125v-7q1 -62 25 -111q5 -10 27.5 3t53.5 38t67 57.5t67.5 62t54.5 50t30 20.5q9 1 1.5 -12.5t-26.5 -34.5t-46 -47.5t-57 -53.5t-61.5 -51.5t-57.5 -40.5 t-45.5 -22t-25.5 5q-31 49 -37 107q-2 20 -2 40q0 40 8 84q12 66 39.5 138t64.5 148t82.5 154t92.5 155q-104 -87 -217 -187.5t-223 -207t-211.5 -216.5t-182.5 -217q-14 -18 -30.5 -41.5t-36 -44.5t-40.5 -36.5t-43 -18.5q2 38 20 88.5t47 106t64 114.5t71 115.5 t69.5 107.5t56.5 91q45 77 93 141t85 120t58 106q15 35 15 69q0 15 -3 29q-74 -29 -150 -82t-152 -123t-149 -151.5t-140.5 -166.5t-127 -168.5t-107.5 -157.5q-5 -9 -11.5 -10.5t-24.5 18.5q27 47 61.5 101.5t72 109t74 106t65.5 91.5q20 28 46.5 65.5t54 81.5t54.5 91.5 t47 94t33 89.5t13 77q0 6 -1.5 18.5t-6.5 24.5t-15.5 20t-27.5 7q-39 -2 -75 -13t-72.5 -28.5t-75.5 -41t-83 -50.5q-45 -28 -109 -73.5t-138.5 -103t-154 -125t-155.5 -139t-144 -145.5t-119.5 -143.5t-81.5 -133.5t-30 -116q0 -14 3 -31t9 -32t16 -24t24 -9q36 1 83.5 25 t98.5 63.5t101 89.5t92 101.5t71.5 101.5t39.5 88q3 13 9.5 22.5t12 14.5t9.5 3.5t4 -11.5q-1 -37 -27.5 -89.5t-70.5 -111t-100 -116.5t-114 -105t-114.5 -75.5t-101.5 -29.5q-22 0 -37 14.5t-24.5 35t-13.5 43t-4 37.5z" />
<glyph unicode="N" horiz-adv-x="1115" d="M-404 -91q0 62 31 141t85.5 166t126 177t153 174.5t167 159.5t167.5 130.5t154.5 88t127.5 32.5q28 0 43 -13.5t21 -32.5t7 -41t-2 -39q-5 -51 -16 -102.5t-33.5 -114t-61 -139.5t-99.5 -181q67 89 134.5 167.5t133.5 143.5t128.5 116.5t119.5 86.5q4 -6 9 -8t10 -3.5 t8.5 -4t3.5 -9.5q0 -9 -13.5 -43t-36 -85.5t-52 -117t-63 -138t-68.5 -148.5t-67 -148.5t-59 -138.5t-47 -117q13 -6 39.5 3.5t59.5 29t70.5 43t73.5 45.5q25 14 55 34t61 41t61 41t53.5 34t38.5 20t16 -1q-5 -9 -28 -28t-57 -44t-77 -54t-88 -57.5t-89.5 -56t-82 -48 t-65 -32.5t-39.5 -12q-17 0 -26 11t-9 28q0 12 16.5 53t43.5 102t61.5 135.5t71.5 153.5t73 156.5t65.5 144t50 116.5t26.5 74q-60 -42 -127.5 -101t-136 -128.5t-134.5 -147t-122.5 -157.5t-101.5 -158.5t-69 -150.5q-6 -15 -12.5 -19.5t-11.5 -1.5t-8.5 9.5t-3.5 12.5 q0 18 7 41.5t18 46.5t22.5 44.5t21.5 36.5q50 87 107 179.5t106 187t81 187.5t32 182q0 10 -1 24t-4.5 27t-10 22t-18.5 11q-14 3 -29 3q-45 0 -100 -23q-74 -30 -157.5 -87.5t-171 -137t-169 -169.5t-152.5 -183.5t-121.5 -180t-74.5 -159.5q-16 -50 -16 -89q0 -18 3 -33 q5 -24 16 -29t25.5 0.5t31 18.5t34 28.5t35.5 30t33 20.5q24 9 25 2.5t-12 -22.5t-36 -37t-49 -39.5t-51.5 -31.5t-41.5 -13q-15 0 -23.5 10.5t-13 25.5t-5.5 31t-1 26z" />
<glyph unicode="O" horiz-adv-x="815" d="M-60 67q0 69 26.5 144.5t72 150t105 146t125 132.5t132 109.5t126.5 75.5q14 6 26 6q14 1 24 -9q18 -18 26 -47q48 37 83 37q28 0 45.5 -24.5t26.5 -59t12 -70.5t3 -59q-2 -97 -29 -177.5t-75.5 -149t-115.5 -128.5t-146 -116q-34 -24 -75 -45.5t-84 -38t-87 -26.5 t-85 -10q-38 0 -64 11.5t-42 32t-23 50t-7 65.5zM-24 92q0 -28 3 -56t13 -50.5t31 -36.5t57 -14q51 0 120.5 23t143 63.5t145 99t127.5 131t90 155.5q32 78 31 166v10q0 25 -2 59.5t-9 65t-20.5 50t-35.5 12.5q-48 -18 -79.5 -46t-52 -60.5t-32 -68.5t-20.5 -70 q-6 -3 -11.5 -5t-5.5 -1q0 43 8 77t21 61t28.5 48t29.5 39l27 32l-33 28q-48 -19 -109.5 -61t-125 -99t-124.5 -125t-108.5 -141t-77 -146t-29.5 -140z" />
<glyph unicode="P" horiz-adv-x="882" d="M-286 232q0 42 24.5 69.5t60.5 42.5t78 21.5t76 6.5l18 -2q-28 -10 -68.5 -19t-77 -24t-60.5 -39q-20 -20 -20 -53q0 -7 1 -14q4 -35 34.5 -55.5t74.5 -30t94 -12t94 -2.5q13 0 23 0.5t21 1.5t27 3t41 4q18 29 35.5 53t36 47t37.5 48t40 56q34 49 73.5 102.5t80.5 109.5 t80.5 112t74.5 110q4 14 4.5 28t2.5 24.5t6 18t14 10.5q15 -17 16 -30q0 -14 -5 -30.5t-14 -33.5q-5 -11 -12.5 -22t-15.5 -23l-20 -30v1q-65 -96 -132.5 -189t-133.5 -187l-118 -165q70 9 159 32.5t181.5 58.5t182 83t160 109t116 135t48.5 161v11q0 52 -16 94 q-18 46 -52 81t-78.5 59.5t-94.5 39.5t-102 22t-99 7q-44 0 -95 -7t-103 -21t-100.5 -33t-88.5 -41l-12 -7q-13 -8 -29 -20t-25 -26l1 1q-8 -9 -12 -21l-8 -24q-5 -15 -10.5 -29.5t-15.5 -25.5q-6 -7 -10.5 -3.5t-6.5 2.5q1 43 17 73.5t49 62.5q38 38 92 65.5t114 44.5 t121.5 25.5t115.5 8.5q52 0 108 -5.5t109 -20t100.5 -38.5t82.5 -60.5t55.5 -86t20.5 -114.5q0 -98 -44.5 -179.5t-118 -147t-168.5 -116t-194.5 -87t-197.5 -60.5t-177 -37q-36 -47 -69 -99.5t-64.5 -107.5t-60.5 -109.5t-58 -106.5q-5 -9 -9.5 -24.5l-9 -31t-9.5 -26.5 t-12 -11q-20 0 -20 21q0 10 16.5 46t43 85t58 105t61.5 106t54.5 89.5t35.5 55.5q-9 0 -27.5 -1t-40 -2l-43 -2t-37.5 0q-67 2 -117.5 10t-86 23.5t-53.5 41.5t-18 64z" />
<glyph unicode="Q" horiz-adv-x="812" d="M-72 186q0 41 17.5 95.5t48 116t71 125.5t88 125t98 115t101 94.5t98 64.5t87.5 24q12 0 18.5 -0.5t11.5 -2.5t11 -6t16 -11q8 -6 10 -16t1 -18q-2 -11 -6 -22q52 0 96 -30.5t73.5 -78t39.5 -106.5q4 -24 4 -47q0 -34 -9 -67q-18 -67 -44 -115.5t-59 -88t-72.5 -73 t-84.5 -67.5q7 -40 7 -80q0 -45 -9 -90q-17 -84 -49.5 -165.5t-72 -159.5t-68.5 -151.5t-41 -143.5q-3 -22 -3 -44q0 -46 17 -90q6 -17 26.5 -17t48 12t59.5 34.5t63 51t56.5 60t40.5 61.5q4 8 7 6t3 -10.5t-3.5 -20.5t-11.5 -24q-20 -30 -51.5 -65.5t-68 -65.5t-74.5 -50.5 t-71 -20.5q-23 0 -36.5 13.5t-21 33t-10 41.5t-2.5 39q0 65 20.5 134.5t51.5 141t65.5 143t60.5 141.5t38 136q6 32 6 62q0 32 -7 63q-45 -34 -96.5 -67t-106.5 -59t-111.5 -41.5t-110.5 -15.5q-47 0 -77.5 10.5t-49 34.5t-26 61.5t-7.5 90.5zM-8 52q30 -30 97 -30h17 q68 3 129.5 25t112.5 51.5t90.5 59t63.5 48.5q-5 17 -12.5 37t-18 37t-26.5 27.5t-38 9.5q-28 -1 -33 -8t-0.5 -17t12.5 -21t6 -18q-8 -29 -19.5 -25.5t-19.5 34.5q-11 39 -1 58.5t46 29.5q23 6 43.5 -3.5t37.5 -28t29 -42.5t20 -46q40 28 78.5 59.5t72 71t60 91.5t41.5 122 q4 19 4 39q0 24 -6 49q-10 47 -33.5 86t-57.5 65t-71 26q-38 -1 -63.5 -26t-27.5 -61q-2 -26 -2 -38t-14 -9q-9 2 -10 14t-1 21q0 39 22.5 71.5t50.5 50.5q3 19 -1 34q-3 12 -12 20q-6 6 -16 6q-7 0 -15 -2q-53 -12 -116 -55t-126.5 -105t-122.5 -137.5t-104.5 -155.5 t-73.5 -159q-26 -75 -26 -138q0 -83 34 -118z" />
<glyph unicode="R" horiz-adv-x="833" d="M-472 728q0 13 10 23q41 38 106.5 64t146 44t169 28t175.5 14.5t167 6t142 1.5q29 0 83 -1t118 -6t130.5 -15.5t120.5 -30t89 -48.5t35 -71q0 -50 -32.5 -91t-83.5 -73.5t-116 -58t-130 -43t-124.5 -29t-100.5 -16.5q6 -27 12 -52t4 -51q-4 -74 -11.5 -127.5t-14.5 -94 t-14 -71.5t-10.5 -60.5t-2.5 -61.5t8 -73q2 -11 22.5 -4.5t52.5 25t71 46.5t78 60t74.5 64t60.5 60l8 -3q-16 -34 -51.5 -72.5t-79 -75t-89.5 -68t-84.5 -50.5t-64.5 -23q-4 -1 -8 -1q-18 0 -19 16q-7 61 -7 104t3.5 77.5t9.5 64t13 65t13 81.5t9 112q1 27 -2.5 52.5 t-12.5 55.5q-16 -3 -32 -4.5t-28 -2.5q-14 -1 -28 -1q-34 -68 -69 -130.5t-70 -123t-68.5 -119.5t-64.5 -120l-4.5 -9t-7 -15t-8 -14t-6.5 -6q-6 0 -13.5 2.5l-13.5 4.5q1 11 20 47.5t47.5 87t63 109t66 114t57 102t36.5 73.5q-17 2 -40.5 5.5t-44.5 11.5t-36 22t-15 38 t12 39t30 23.5t38.5 12t38.5 3.5q15 0 40 -4.5t42 -16.5q16 32 31 60.5t29.5 53.5t30 48t33.5 45l17 -6q-9 -19 -24 -44t-31 -53t-32 -59t-27 -61q9 -10 16 -17.5t13.5 -15.5t12.5 -19t13 -28q59 7 124 19.5t128 31t120 42.5t100 54t68.5 65.5t25.5 77.5q0 34 -36.5 57.5 t-94.5 39.5t-128 25.5t-136.5 14t-120 5.5t-78.5 1q-58 0 -135.5 -3t-161.5 -10t-168 -18t-157 -28t-128.5 -39.5t-80.5 -52.5q-12 -14 -5 -28t23.5 -27t37.5 -26t36 -23t20.5 -18.5t-9.5 -12.5q-12 -4 -29.5 2.5t-36 20t-35.5 30.5q-18 18 -28 36q-12 22 -12 38zM177 494 q0 -16 14.5 -26t33.5 -15.5t38.5 -7t29.5 -3.5l39 79q-8 6 -15.5 10.5t-15 7t-17 4t-22.5 2.5h-8q-10 0 -22 -2q-16 -3 -27.5 -9.5t-19.5 -16.5t-8 -23zM329 442h7.5t15.5 0.5t20 1.5t20 3q-3 12 -9 22t-11 18q-7 9 -15 17q-5 -9 -9 -20q-4 -8 -9 -19t-10 -23z" />
<glyph unicode="S" horiz-adv-x="755" d="M-183 17q0 18 16.5 41t41 42t49.5 31.5t42 12.5q2 0 6.5 -0.5t4.5 -3.5q0 -18 -20 -30t-45 -24t-45.5 -26.5t-20.5 -36.5q0 -26 19 -45t50 -32t67.5 -21t73.5 -12t68.5 -5.5t49.5 -1.5q27 0 61.5 1.5t71.5 6t73 15t63.5 28t45 44t17.5 64.5t-12 73t-30 71t-39 72.5 t-38.5 76.5t-29.5 84t-12 95q0 75 24.5 138.5t69 111t107 74.5t138.5 27q23 0 50.5 -6t50.5 -19t37 -33q10 -14 10 -31q0 -8 -2 -16q-6 -33 -24.5 -68t-39 -64t-37.5 -46.5t-21 -13.5q-6 6 7.5 26t33.5 47.5t37 60.5t17 66q0 19 -11.5 32.5t-27.5 22t-35.5 12.5t-36.5 4 q-71 0 -129.5 -25t-100 -68.5t-64.5 -103.5t-23 -130q0 -40 8 -77t22 -72.5t31.5 -69t36.5 -67.5v1q27 -46 46.5 -95t19.5 -104q0 -39 -18 -66.5t-48 -47t-67 -31t-76 -18t-76 -8.5t-65 -2q-22 0 -58 1.5t-77.5 7t-83.5 15t-76 25.5t-55.5 38t-21.5 52z" />
<glyph unicode="T" horiz-adv-x="591" d="M-238 914q-1 3 -1 7q0 11 15 18q68 33 143.5 49t153.5 22.5t154.5 7t145.5 1.5q99 2 187.5 5.5t171.5 7t163 6.5t161 6q19 0 30 1.5t18 1.5t14 -2t17 -7q1 0 1 -1.5t-1 -3.5q-2 -4 0 -6q-13 -11 -38.5 -10t-50.5 1q-20 0 -41.5 -0.5t-49.5 -2t-65.5 -3.5t-91 -4.5 t-125 -5.5t-167.5 -6q-57 -2 -116 -2h-60q-25 0 -49 1q-66 0 -131 -3q-90 -4 -174.5 -18.5t-157.5 -46.5q-18 -8 -12 -20.5t20 -24t29.5 -19.5t15.5 -9q0 -2 -3.5 -3.5t-8.5 -2.5q-16 0 -38.5 11t-38 25t-20.5 30zM270 -31q4 29 6.5 52t4.5 50t5 63.5t10 92.5q3 26 11 76.5 t19 114.5t22.5 135.5t22 138.5t18 122.5t10.5 88.5q1 10 9 14t16 5q4 -13 8 -28q2 -8 2 -16q0 -7 -1 -15q-23 -118 -44.5 -232t-39 -226t-30 -221t-15.5 -217q2 -24 -4 -32q-5 -6 -10 -6q-2 1 -3 1q-7 2 -13 13q-4 8 -4 19v7z" />
<glyph unicode="U" horiz-adv-x="889" d="M-27 47q0 37 13 74.5t35 78.5t52 87.5t65 101.5q35 53 68.5 100t64.5 90.5t62 86.5t61 89l18 -10q-7 -13 -28.5 -44.5t-51 -75t-66 -96.5t-73 -108t-71.5 -109.5t-61.5 -102.5t-43 -86t-17.5 -60q-1 -27 42 -24t113.5 30t161.5 77.5t186 119t186.5 153.5t164.5 183 q6 8 14 18t14.5 15t11 4t4.5 -14q0 -28 -31.5 -74.5t-78 -103.5t-99 -119.5t-94 -123.5t-63.5 -115q-14 -34 -15 -63q0 -17 5 -31q3 -10 12.5 -17t20.5 -10t23.5 -3t23.5 2q63 11 110.5 34t79.5 45.5t49.5 37t20.5 10.5q-13 -26 -39 -50t-58.5 -43.5t-69 -34.5t-70.5 -22 q-30 -6 -55 -6h-7q-28 1 -46 12q-19 13 -25 33t-6 44q0 33 24 82.5t61.5 105.5t83 114t90.5 108q-103 -97 -192.5 -167t-172 -120.5t-159.5 -83t-154 -54.5q-14 -4 -31 -4t-30.5 4.5t-23 13t-9.5 21.5z" />
<glyph unicode="V" horiz-adv-x="763" d="M-295 327q19 66 53 133t79 129.5t100 118t117 97t130 65.5t140 25q8 0 20 -1.5t23 -6t18.5 -12.5t6.5 -21q-2 -34 -22.5 -87t-52.5 -118.5t-72.5 -139t-81 -148t-77.5 -147t-63 -135t-38 -111.5q-6 -24 -6 -44t6 -34q37 1 92 34t121.5 88t140 125.5t145 146t137 152 t117.5 141.5q23 29 45 64t45.5 69.5t50 64t58.5 45.5q22 11 37 13q14 1 22 -3t8 -11q0 -8 -7 -18q-12 -17 -24 -25.5t-24.5 -12t-25.5 -4t-25 -2.5q-32 -49 -80.5 -114t-108 -137.5t-126.5 -148.5t-136.5 -148t-138 -136t-131 -111.5t-115.5 -75t-90 -27.5q-12 0 -17.5 6.5 t-7 15.5t-0.5 19.5t2 18.5q4 50 28.5 117t60.5 143t79.5 156.5t85.5 156t77.5 143.5t56.5 119t22 80.5t-25 29.5h-30q-67 0 -129.5 -24t-120.5 -64.5t-109 -94.5t-93 -114t-74 -122.5t-50 -119.5l-9 -11z" />
<glyph unicode="W" horiz-adv-x="872" d="M-203 561q0 37 21 79.5t56 84t79 80t90 66.5q45 28 89 44q39 14 70 14h8q14 -1 25.5 -12t19 -26t11.5 -34t4 -37q-1 -101 -24.5 -193t-58.5 -174t-75 -152t-72.5 -125.5t-51.5 -95.5q-13 -28 -13 -46q0 -8 2 -15q4 -10 18 -0.5t34.5 31t46 51.5t53.5 62t55 62t51 52 t43 31t29 0q17 -16 19.5 -40.5t2.5 -48.5q0 -34 -6.5 -65l-13 -62t-12.5 -62t-6 -65q0 -12 0.5 -30.5t3 -36t8.5 -32t18 -21.5q21 -11 43 -11q19 0 39 8q44 17 90.5 60t92.5 106.5t88 136t76.5 149t59 144.5t34.5 123q7 35 7 60q0 14 -2 25q-3 -3 -7.5 -8.5t-10.5 -9.5 t-11.5 -4.5t-10.5 7.5q-8 14 -5.5 22.5t16.5 20.5q18 15 30 12.5t19 -13.5t9 -26q1 -10 1 -16v-6q-5 -49 -22 -113.5t-44 -134.5t-61.5 -142t-74.5 -139t-84 -124.5t-90 -97.5t-92 -58q-28 -11 -54 -11q-18 0 -36 5q-20 5 -33 20.5t-19.5 37t-9 47t-2.5 48.5q0 40 10.5 78.5 t19.5 76.5t13 76q1 8 0 16q0 30 -10 60q-4 12 -19 3t-37.5 -31.5t-49.5 -54t-56.5 -66t-57.5 -66.5t-52 -56t-42 -34.5t-26 -0.5q-17 23 -11 58.5t28.5 83.5t55 104.5t68 120t68 132.5t53.5 141t27 144q1 17 1 33q0 56 -15 110q-5 19 -36.5 13.5t-75.5 -29.5t-94 -62.5 t-92.5 -82.5t-70 -91t-27.5 -88q0 -27 17 -48.5t34 -41.5q6 -3 13 -8.5t12 -10t5.5 -9t-5.5 -6.5q-3 0 -20 3t-36.5 16.5t-35.5 40t-16 74.5z" />
<glyph unicode="X" horiz-adv-x="833" d="M-269 -213q7 24 50.5 67.5t106 97t136 112t143 112.5t125.5 98t84 69q-54 160 -79 329t-40 337l11 7q12 -7 17.5 -17.5t7 -21.5t1 -23.5t-0.5 -22.5q0 -68 9 -141.5t24 -148t34.5 -146t39.5 -136.5q77 61 145.5 132.5t131.5 144t121.5 142.5t115.5 130q2 -6 6 -14 q2 -4 1 -6q0 -4 -2 -7q-8 -13 -38.5 -51t-74 -89.5t-96.5 -111t-106 -116t-103 -105t-87 -79.5q13 -27 27 -62.5t27.5 -73t27.5 -75.5t27 -70t25 -54.5t23 -29.5l23 67q18 13 23 -0.5t0 -35.5t-17.5 -42.5t-30.5 -20.5q-14 0 -31.5 28t-36 69.5t-36.5 90.5t-33 91.5 t-26.5 72t-16.5 31.5q-139 -103 -238 -181t-166.5 -135.5t-108.5 -97t-65 -65t-36 -39.5t-21 -21q-6 -4 -11 -4t-8 4t-4 11z" />
<glyph unicode="Y" horiz-adv-x="675" d="M-172 -462v12q0 62 28 121q31 65 89 123.5t127 106.5t141 83t131 53q35 67 67 146t67.5 174t75.5 206.5t90 243.5q-23 -45 -59 -103t-80 -121t-94 -127t-98.5 -122t-94.5 -106t-83.5 -77.5t-63.5 -38.5t-35 12q-22 48 -22 105v14q3 65 21 136.5t46 145.5t53 145.5 t42 138.5q14 54 14 101q0 11 -1 22h20q1 -7 2.5 -14.5t1.5 -14.5q0 -63 -16.5 -124t-39.5 -121.5t-48.5 -121.5t-43.5 -124t-24 -129q-2 -18 -2 -36q0 -49 12 -101q3 -15 25 -3.5t56 42t77 77t89.5 101.5t93.5 115t88 117.5t74 109.5t51 91q9 18 21.5 50.5t25 68.5t23 70.5 t15.5 55.5l17 -5q7 -16 -0.5 -61t-25 -108.5t-43 -141.5t-54.5 -159.5t-58.5 -161.5t-56.5 -149.5t-48 -122.5t-32 -80q93 27 176.5 43.5t146.5 23.5q52 6 86 6q7 0 14 -1q37 -1 38 -8q-4 -2 -3.5 -4.5t1 -5.5t-0.5 -4.5t-7 -2.5q-42 -5 -90.5 -8.5t-105 -11t-123 -21.5 t-145.5 -39q-35 -80 -75.5 -168t-84.5 -170t-89 -152t-88 -112.5t-83 -50.5q-5 -1 -11 -1q-33 0 -61 36q-53 68 -56 137zM-96 -574q20 -26 45 -26q5 0 11 1q31 6 66.5 41t75 93t79.5 133t78.5 161t73.5 175q-49 -15 -113.5 -47t-127.5 -76t-118.5 -98t-86.5 -113t-31 -120 q0 -63 48 -124z" />
<glyph unicode="Z" horiz-adv-x="828" d="M-308 -121q4 11 13 22.5t16 20.5q43 52 99 70q44 14 86 13q12 0 24 -1q99 65 195 141t182.5 159t160 168.5t127.5 169t87 161.5t37 144q1 22 -19.5 25.5t-57.5 -5.5t-87 -26.5t-107 -39.5t-117.5 -45t-118 -41.5t-110.5 -30.5q-49 -11 -88 -11h-6q-30 1 -39.5 5t-6 9.5 t19 9.5t35.5 4q58 0 119 14.5t120.5 36.5t120 48.5t119.5 48.5t116 36.5t112 14.5q14 0 18 -20.5t1 -50.5q-7 -77 -42 -158.5t-91.5 -165t-130 -166.5t-157.5 -161t-175 -151t-181 -134q38 -13 74 -40.5t69.5 -54t66 -47t62.5 -20.5q70 0 127 19t113 44.5t117 52.5t140 42 q9 1 15 -1q7 -3 7 -7q-1 -3 -5 -7t-15 -7q-48 -11 -108 -38t-124.5 -55.5t-130.5 -50t-125 -22.5h-4q-46 0 -84 22q-40 23 -76 53t-71.5 57t-73.5 35q-22 -22 -49.5 -47.5t-58 -47t-59.5 -33t-54 -2.5q-22 6 -26 18q-2 6 -2 13q-1 5 1 10zM-270 -121q0 -7 4 -10q6 -5 15 -5 h6q6 0 11 1q7 1 20.5 10.5t32 25t40 35t44.5 38.5h-6q-42 0 -80 -14q-41 -14 -71 -50q-16 -19 -16 -31z" />
<glyph unicode="[" horiz-adv-x="964" d="M32 -45q0 67 8.5 133.5t18.5 133.5q10 68 19 137t9 142q0 29 -6.5 54.5t-13.5 49.5q-7 23 -12.5 46t-5.5 49q0 28 16.5 40t40.5 12q87 0 166 13.5t154.5 37t149 56.5t150.5 70l9 -9q-10 -34 -39.5 -55.5t-71.5 -35.5t-92.5 -22t-102.5 -15q-43 -6 -85.5 -13.5t-80 -17 t-69 -24.5t-53.5 -38q-10 -27 -16 -67t-10.5 -86.5t-7 -97t-3.5 -97.5t-1 -88v-68v-128q0 -54 28 -75.5t76 -21.5q46 0 91.5 2.5t91.5 7.5q45 3 88.5 5.5t87.5 2.5q16 0 33 -11q6 -3 13.5 -7.5l12.5 -7.5q1 -22 -9 -35t-33 -13q-20 0 -42.5 3t-44.5 8q-20 4 -42 8.5t-47 4.5 q-8 0 -15.5 0.5t-15.5 0.5h1q-23 1 -44 0t-42 -7h2q-43 -6 -84.5 -9t-87.5 -3h-28t-29.5 3t-22.5 10.5t-9 21.5z" />
<glyph unicode="\" horiz-adv-x="770" d="M53 819q0 6 6.5 13.5t11.5 12.5q8 9 18.5 18.5t19.5 9.5q11 0 20 -6.5t15 -15.5q7 -7 25 -34t40.5 -65t48 -81.5t48.5 -83.5q23 -38 41 -68.5t29 -46.5h-1q29 -47 55.5 -87t53.5 -77t56 -73.5t65 -78.5q24 -30 42 -62.5t18 -70.5q0 -36 -13 -58t-43 -36 q-14 38 -33.5 82.5t-42 91.5t-47 94t-49.5 89q-57 96 -117.5 185t-114.5 157q-5 4 -14.5 14t-21 23.5t-25.5 29.5t-27 32q-27 30 -45.5 57t-18.5 35z" />
<glyph unicode="]" horiz-adv-x="989" d="M58 838q3 24 27 35t48 11q19 0 40 -3t42 -8q19 -4 42 -7.5t46 -3.5q60 0 117 8t112 16q56 8 111 15.5t109 7.5t54 -58q0 -65 -9 -129t-19 -129q-10 -66 -18.5 -132t-8.5 -136q0 -46 6.5 -85t18.5 -73.5t28 -67.5t35 -69l15 -33q-2 -25 -24 -35t-47 -10q-78 0 -149 -1 t-148 -3q-32 -2 -56 -5.5t-50 -9.5q-33 -5 -65.5 -9t-65.5 -4q-4 0 -7 0.5t-5 0.5l-13 17q9 39 33 67t54 48q23 -6 38 -12.5t29 -13.5l24 -15q11 -5 24.5 -9t31 -7t41.5 -4.5t58 -1.5q28 0 55 3.5t48 16t34 35t13 58.5v47t1 47q0 24 0.5 47t0.5 47v300v50t-3 61.5t-7.5 62 t-13.5 51.5q-5 4 -15 9l-20 10t-20 8t-17 3q-65 0 -127 -3.5t-125 -7.5q-62 -5 -123.5 -8.5t-125.5 -3.5q-15 0 -30 3t-24 12zM854 1v-4q0 -2 2 -4z" />
<glyph unicode="^" horiz-adv-x="858" d="M22 273q0 10 11.5 22.5t30 26t40.5 26.5t42 25q17 9 33 17.5t24 16.5q70 50 134 105.5t129 114.5q32 29 63 57t64 55h-1q9 7 17.5 16.5t17.5 20.5q17 20 35 39t34 19q4 0 8.5 -14t7.5 -35.5t6 -47.5t5 -49.5t3 -43t1 -27.5q6 -80 10 -159t4 -159q0 -12 -2 -26t-7.5 -25.5 t-14.5 -19.5t-23 -8q-20 0 -27.5 18t-7.5 35q0 12 2.5 25t4.5 27l4 24t2 28q0 79 -11 162.5t-53 174.5q-33 -39 -60.5 -60.5t-53.5 -39.5q-22 -15 -44.5 -31t-42.5 -36l-116 -114q-8 -8 -21 -24t-29 -35v1q-18 -24 -39.5 -49.5t-42 -46.5t-39.5 -35t-34 -14q-9 0 -20.5 3.5 t-21 9t-16 13t-6.5 17.5z" />
<glyph unicode="_" horiz-adv-x="633" d="M3 14.5q-3 10.5 20 16.5q33 -3 58 -3.5t47.5 1t44 4t44.5 3.5q28 1 77.5 1t104.5 -1t104.5 -3t77.5 -4q5 0 9.5 -5t6 -10.5t-0.5 -9.5t-8 -3q-14 3 -23 4t-17 1h-18.5t-27.5 1q-27 2 -65.5 2t-82 -1t-90 -3t-90.5 -3t-83 -1.5t-66 1.5q-19 2 -22 12.5z" />
<glyph unicode="`" horiz-adv-x="575" d="M154 809q0 24 12.5 41t34.5 31q25 -17 43 -46t31.5 -63t21.5 -69.5t12 -67.5q-28 7 -55.5 25.5t-50 42.5t-36 51.5t-13.5 54.5zM194 886h17l-10 -5z" />
<glyph unicode="a" horiz-adv-x="764" d="M-10 7q0 29 26.5 77t68.5 104.5t94.5 113.5t104.5 104t97.5 76t74.5 29q12 0 20.5 -6t14 -16t8 -21.5t2.5 -21.5q0 -7 -0.5 -16t-3.5 -18t-8.5 -15.5t-14.5 -8.5l-17 6q2 10 6.5 24t4.5 24q0 11 -8 23t-21 12q-23 0 -62 -27.5t-84.5 -70.5t-93 -96.5t-86 -104.5t-63 -95 t-24.5 -68q0 -14 2.5 -20.5t7 -8.5t11.5 -2h15q14 0 39.5 10.5t56 28t64.5 39t68 41.5q38 24 77 51.5t75 59.5t68 68t55 76q4 7 9.5 17.5t11.5 19.5t13.5 16t16.5 7q5 0 8 -2t8 -3q-17 -38 -35.5 -75t-34 -74.5t-27.5 -77t-15 -82.5q-2 -18 -3 -37t4 -34.5t18.5 -24 t41.5 -6.5q12 1 34.5 14.5t49.5 32.5t56.5 40t55 37.5t45 26.5t26.5 5q-6 -8 -25.5 -24.5t-46.5 -37.5t-57.5 -43t-58.5 -40t-49.5 -30.5t-30.5 -12.5q-37 -2 -57 10.5t-28.5 34t-8 48.5t3.5 56q5 40 17.5 74t23.5 73q-20 -24 -47.5 -50t-58 -51t-62 -47.5t-60.5 -39.5 q-37 -22 -73.5 -45t-71.5 -42t-67 -30.5t-57 -11.5q-24 0 -34 19t-10 39z" />
<glyph unicode="b" horiz-adv-x="576" d="M-29 23q1 3 1 7q2 7 3 22q7 51 41.5 115t83 136.5t105 152t108.5 160.5t92 163.5t58 161.5q3 15 9 20q5 4 9 4q1 -1 2 -1q5 -2 8.5 -9t2.5 -14q-12 -67 -46 -140t-79 -147.5t-95.5 -148t-96 -138.5t-81.5 -118.5t-50 -90.5q55 60 117.5 104t125.5 73t123 43t112 18 q12 0 21.5 -6.5t15.5 -13.5q7 -9 11 -20q0 -53 -21.5 -105.5t-57 -100.5t-83.5 -88t-101 -70t-108.5 -47t-105.5 -17q-19 0 -38 7t-34.5 19t-25 28.5t-9.5 36.5q-8 0 -12 -1q-5 -1 -5 5zM13 13q0 -10 8 -20t20 -18.5t26.5 -13.5t27.5 -5q41 0 87.5 13.5t94 37t91 56.5t79 72 t60.5 83t33 90q2 16 2 27t-2 18q-5 14 -17 17q-6 2 -13 2q-8 0 -16 -2l-32 -6q-42 -7 -92.5 -25t-100 -44t-96 -58.5t-82 -69.5t-57 -76t-21.5 -78z" />
<glyph unicode="c" horiz-adv-x="516" d="M-33 110q6 47 29.5 95.5t58.5 93t78 83t88 66.5t89 44q42 15 78 15h4q18 0 33 -6l6 -3q30 -17 38.5 -41t6.5 -46q0 -5 -2 -12.5t-5.5 -14t-7.5 -11.5t-9 -6q-2 1 -7.5 4t-3.5 8l13 32q0 31 -14.5 50.5t-50.5 19.5q-45 0 -95.5 -24.5t-98.5 -62t-88 -81.5t-64 -83 q-46 -79 -46 -146q0 -34 10 -55t28.5 -32.5t43.5 -16.5t55 -5h9q67 1 125 15q62 16 121 54q43 29 69 47t40.5 28.5t19.5 14t6.5 2.5t2 -4.5t4.5 -8.5q-8 -13 -11 -18.5t-10.5 -11.5t-25.5 -17t-58 -38q-37 -26 -72.5 -44t-71 -29t-75.5 -16t-86 -5q-78 0 -121 44 q-35 35 -35 93q0 14 2 29z" />
<glyph unicode="d" horiz-adv-x="819" d="M-6 63q0 34 12.5 71.5t34 74t51 69.5t62.5 58t68.5 40t71.5 15q38 0 73 -20.5t53 -57.5q8 -18 3.5 -52.5t-28.5 -86.5q44 29 83.5 75t75.5 103t68 122.5t62 132.5q23 51 44 92q17 36 37 67t33 36q1 1 2 1l6 -4q4 -5 8 -7q-25 -61 -63 -131t-77.5 -143t-74.5 -146.5 t-53 -143.5q-13 -53 -13 -101q-1 -15 1 -31q6 -63 46 -115q10 -13 36 -12t56 10.5t59 22.5t44 23q7 4 17 12.5t19.5 15.5t17.5 10t11 -6q1 -2 1 -5q1 -6 -5 -12q-8 -8 -20 -17.5t-27.5 -18.5t-28.5 -16q-36 -22 -73.5 -35t-61.5 -13q-48 0 -74.5 32t-35.5 80q-6 31 -6 65 q0 19 2 39q5 56 19 100q-59 -52 -108.5 -96t-90.5 -79q-26 -22 -53.5 -46t-57 -44t-59.5 -32.5t-60 -12.5q-53 0 -80 32t-27 85zM28 56q0 -9 1.5 -20.5t6.5 -23t16 -21t32 -15.5q38 0 71.5 13t64.5 33.5t59 45.5t55 50l49 44q-30 5 -30 14.5t11 25t22 38.5q6 13 6 30 q0 12 -3 26q-4 17 -17 32t-30.5 25.5t-39.5 12.5q-6 1 -11 1q-16 0 -32 -5q-45 -14 -86.5 -43.5t-73.5 -70.5t-51.5 -90t-19.5 -102z" />
<glyph unicode="e" horiz-adv-x="579" d="M-71 65q33 19 56.5 34.5t41.5 26.5t31.5 20t25.5 16q15 66 42 132.5t66 121t92 88.5t120 34q17 0 31.5 -8t23.5 -20t13.5 -28t4.5 -32q-1 -47 -16.5 -82t-42 -61.5t-61 -47.5t-74 -40t-82.5 -38t-84 -43q-7 -33 -7 -60q0 -42 18 -70q27 -42 83 -42h13q67 4 116 19 t92 37.5t85.5 50.5t95.5 60q24 13 31 14q5 1 5 -2q-1 -1 -1 -3q-2 -6 -10 -14.5t-16 -13.5q-47 -32 -93 -63.5t-95 -57t-104 -40.5t-119 -15q-69 2 -105 48q-29 36 -28 101q0 18 2 37q-17 -6 -47 -22t-79 -49q-12 -8 -21 -9t-13 1q-3 1 -3 5q0 7 12 15zM120 174 q81 41 142.5 71t103 59.5t61.5 63t20 82.5q0 14 -8.5 32.5t-35.5 23.5h-10q-53 0 -95 -28q-46 -32 -81.5 -81.5t-59.5 -109t-37 -113.5z" />
<glyph unicode="f" horiz-adv-x="491" d="M-213 -440q0 68 21.5 128t58.5 112.5t87 95.5t107.5 75.5t119.5 54.5t123 31q15 40 30 75.5t29 68t25.5 65t23.5 67.5q4 15 12 41t17 55.5t17.5 55.5t13.5 41q-50 -52 -111.5 -116.5t-130 -130.5t-143.5 -129.5t-152 -112.5q-17 -11 -32.5 -17t-23.5 11q-1 3 2.5 5.5 t9.5 5.5t12.5 6t10.5 6q86 53 162 116.5t145 131.5t132.5 136t124.5 129q4 13 11.5 35t14.5 44.5t13.5 43.5t10.5 35q10 39 23 77.5t30.5 73t39 63.5t49.5 49q3 2 5 2t3 -2q3 -5 4 -14v-8.5v-9.5q-1 -11 -1 -16q0 -37 -15.5 -89.5t-40 -108.5t-55.5 -107t-64 -84 q-12 -48 -31.5 -104.5t-40.5 -122.5q-8 -27 -20 -60t-24.5 -66t-25.5 -65.5t-25 -57.5q7 -3 11 0.5t9 -3.5q2 -4 3.5 -3t1.5 -4q-5 -5 -11 -10q-5 -4 -10.5 -8.5t-10.5 -9.5l1 1l-15 -16q-28 -76 -54 -148t-56.5 -142t-66.5 -140.5t-81 -142.5q-16 -27 -30.5 -48.5t-30 -37 t-34 -24.5t-41.5 -9q-41 0 -67.5 23.5t-42 59t-21.5 75t-6 72.5zM-187 -433q0 -27 5 -64t19.5 -70t39.5 -55q21 -20 53 -20q6 0 12 1q18 2 43.5 31t53.5 72.5t56 96t52 100.5q49 105 83 194.5t63 168.5q-42 0 -86.5 -13t-88 -35t-83 -50t-71.5 -57q-32 -31 -59.5 -65 t-48 -72t-32 -79t-11.5 -84zM516 601q19 26 35.5 53.5t30 53.5t23.5 49t17 37q6 12 12 31.5t11.5 41t8.5 41.5q2 16 2 28v7l-12 -20t-20.5 -33t-21.5 -36t-15 -32q-3 -7 -8 -20.5t-10 -30t-11 -36t-12 -38.5q-14 -44 -30 -96z" />
<glyph unicode="g" horiz-adv-x="642" d="M-143 -881q0 61 15 124t41.5 123.5t61 117.5t72 108.5t75.5 95.5t71 78t59 56.5t39 32.5q24 68 40.5 121t35 102.5t42 101t61.5 116.5q-37 -31 -71.5 -69.5t-69 -78t-70 -78t-71.5 -68.5t-75.5 -48.5t-81.5 -18.5q-28 0 -41 15.5t-13 42.5q0 42 19.5 95.5t52 110 t74.5 111t87.5 97t90.5 69t84 26.5l25 -2q8 -11 12.5 -22.5t4.5 -24.5q0 -27 -16 -52q-4 8 -5.5 18t-3.5 18l1 -2q-2 11 -8 21t-20 12q-22 2 -54 -14.5t-68.5 -47.5t-75 -74.5t-71.5 -95.5t-60 -110t-39 -119q-5 -23 4 -34t32 -9q44 5 89 34t89 70.5t86.5 90t80 94 t69.5 82.5t57 54l14 -6q-12 -48 -29 -82.5t-34 -66.5q-27 -48 -44.5 -88t-31.5 -79.5t-27 -82.5t-28 -97q46 38 86 72t79.5 66t80.5 64.5t89 68.5q12 9 17 8q4 0 4 -4q0 -6 -10 -18q-9 -11 -25 -23q-88 -68 -168 -138t-170 -141q-28 -66 -58.5 -151t-63 -177t-67 -181.5 t-69 -162.5t-70 -123t-70.5 -60q-5 -2 -10 -2q-11 0 -21 11q-12 16 -19 39t-9.5 47t-2.5 37zM-118 -874q0 -63 28 -109q26 5 54.5 42.5t59 98t63 138t64.5 164t64.5 177.5t63.5 176q-59 -50 -117.5 -116t-108.5 -139t-89.5 -149.5t-60.5 -148t-21 -134.5z" />
<glyph unicode="h" horiz-adv-x="566" d="M-46 -80q38 94 68 171t58 148.5t54.5 145t55.5 162.5q6 20 19 57.5t28.5 83t33 94.5t34 93t30 77.5t22.5 47.5l18 -8q-41 -99 -82 -215.5t-83.5 -238.5t-86.5 -246t-90 -238q16 29 37.5 63.5t45.5 68.5t48.5 66t48.5 56t43.5 37.5t35.5 12.5q22 -2 29.5 -30t9 -69 t2.5 -88t9.5 -87t28.5 -66q19 -25 58 -25h3q32 1 58 13.5t49 30.5t45.5 37.5t49.5 31.5l6 -20q-14 -15 -42 -37.5t-59 -43.5t-62 -36.5t-52 -16.5h-5q-35 0 -57 25q-23 27 -36.5 69t-18 91.5t-7.5 91.5t-5.5 70t-10.5 26q-16 -2 -43.5 -28t-59 -65t-64.5 -88t-60.5 -96.5 t-46.5 -89.5t-23 -68z" />
<glyph unicode="i" horiz-adv-x="301" d="M48 132q0 80 20.5 151.5t73.5 145.5q10 -3 13 -7t12 -10q-11 -22 -25.5 -42t-28 -46t-23.5 -63t-13 -91q-1 -8 -1 -17q0 -22 4 -51q5 -40 19 -86q6 -19 26.5 -12t47 23.5t52.5 34.5t44 21q5 1 -1 -7.5t-20 -22t-33 -29t-41 -28t-44 -20.5q-16 -6 -29 -6q-5 0 -10 1 q-11 1 -18.5 23t-13.5 50t-8.5 53.5t-2.5 34.5zM292 769l12 31q35 0 35 -36q-4 -13 -14 -27q-14 5 -23.5 10t-9.5 22z" />
<glyph unicode="j" horiz-adv-x="353" d="M-500 -431q4 -1 10 -26t15 -62t22 -80.5t31 -82t41.5 -66t53.5 -32.5q27 -5 56 20.5t59 70t59 102t54.5 115t46.5 111t35 90.5v-1q35 89 61.5 178t52.5 179q13 46 28 93t29 96t23.5 97t11.5 96q0 9 -0.5 19t1 18t7 13.5t16.5 5.5q2 0 3.5 -6t1.5 -33q0 -33 -6 -71.5 t-16 -78.5t-20.5 -77.5t-19.5 -67.5q-10 -33 -28 -93.5t-43 -139t-54 -166.5t-63 -175t-70 -166t-74.5 -138.5t-77.5 -92.5q-35 -29 -69 -29q-5 0 -10 1q-36 4 -64.5 34.5t-49.5 72t-34.5 89.5t-20.5 89q-6 38 -6 64q0 30 8 30zM359 849h10q25 0 28 -9.5t3 -28.5 q0 -4 -3 -23q-13 6 -20.5 10.5t-11.5 10.5t-5 15.5t-1 24.5z" />
<glyph unicode="k" horiz-adv-x="712" d="M-23 19q0 14 12 51.5t32 89.5t47.5 116.5t58.5 134.5l155 350q13 33 23 57t17 42q8 -2 14.5 -5.5t3.5 -12.5q-9 -30 -17 -54.5t-24 -60.5q-27 -59 -57.5 -126t-61 -135.5t-59.5 -135t-51.5 -125t-37.5 -105.5t-18 -75q48 16 89.5 41.5t79 55t72 59.5t69.5 57 q34 27 69.5 51t68.5 43.5t59 31t40 11.5q9 0 14 1.5t5 -6.5q0 -3 -12.5 -9.5t-31 -15t-41 -20.5t-41.5 -27q-43 -33 -70 -65t-41 -63.5t-19 -62.5t-5 -61q-1 -58 29 -84q25 -21 66 -21q8 0 16 1q33 3 69.5 21t72 42.5t69 52.5t60 50.5t43.5 37t20 11.5q0 -11 -19 -36 t-50 -54.5t-71 -60t-82.5 -53.5t-84.5 -35q-27 -8 -50 -8q-14 0 -27 3q-35 7 -59 38t-31 92q-1 9 -1 20q0 26 7 59q10 46 40 89q-44 -33 -84.5 -68t-81.5 -66.5t-84 -55.5t-90 -34q-9 2 -14 13t-5 19z" />
<glyph unicode="l" horiz-adv-x="509" d="M-110 26q34 28 78.5 65t87 73.5t76.5 66t46 40.5q10 24 34.5 77t58 124.5t74 154t83.5 164.5t86 158.5t82 135.5t71 94t54 35q17 0 29.5 -11t20 -27.5t11 -35.5t3.5 -34q0 -106 -35.5 -201t-98 -185.5t-147.5 -179.5t-185 -184l-117 -106q-12 -36 -21.5 -63.5t-15 -51.5 t-8 -48t-2.5 -50q0 -34 11 -51t45 -14q51 5 91.5 18.5t81 35t86 53t107.5 71.5q4 -3 7 -6l5 -6q-50 -39 -102.5 -75t-103.5 -64q-51 -29 -99 -45q-45 -16 -84 -15h-5q-40 1 -56.5 26.5t-16.5 63.5q0 32 7 79t33 112q-3 -2 -13 -10.5t-21.5 -18.5t-22.5 -19.5t-16 -13.5 q-20 -18 -46 -40t-52.5 -42t-51 -36.5t-40.5 -25.5zM226 309q31 26 55 48.5t43.5 42t35.5 36.5t31 31q66 65 130 132.5t115 142t83 158.5t32 182q0 17 -2.5 44t-16.5 50q-4 5 -8 8q-3 1 -6 1h-4q-6 -1 -14 -9q-56 -72 -105 -150.5t-94 -160t-86.5 -165t-82.5 -163.5z" />
<glyph unicode="m" horiz-adv-x="1137" d="M5 -16q7 36 25 86t41.5 103t43.5 92q16 31 32.5 63.5t32.5 68.5l11 2l10 -5q-5 -42 -21.5 -79t-37.5 -74q-8 -16 -22.5 -44t-29.5 -63t-29 -74.5t-21 -78.5q34 30 66.5 63t62 64.5t53 58t40.5 41.5q46 40 80 67t64.5 46t62 32.5t71.5 25.5q6 -12 3 -30t-12 -40.5t-21 -50 t-24 -56.5t-21.5 -60t-12.5 -62q37 9 71 29t64.5 44t57.5 47t48 39q24 16 47.5 32.5t49 30t52.5 24t58 14.5q8 -18 8 -42q0 -30 -8 -58.5t-16 -56.5q-5 -14 -10.5 -32.5t-10 -37.5t-7 -38t-2.5 -33q0 -27 7.5 -41.5t21.5 -22t32 -9t38 -1.5q19 0 39.5 5t40 13t37 17t33.5 16 q20 8 38 15t36 12q-16 -30 -48 -51t-69.5 -34t-76.5 -19q-29 -4 -53 -4q-9 0 -17 1q-57 4 -77 31.5t-20 81.5q0 27 9.5 58.5t20 64.5t19.5 64t11 57q-43 -9 -79 -26.5t-66 -38t-55.5 -42.5t-48.5 -42q-25 -20 -49 -40t-49.5 -36t-52 -25t-57.5 -8q-10 0 -9 18.5t9.5 47.5 t21.5 64t26 67.5t23.5 60t14.5 40.5q-54 -24 -98.5 -52.5t-80.5 -60.5t-66.5 -64.5t-56.5 -63.5q-24 -28 -51 -57.5t-53 -53.5t-49 -37q-14 -8 -26 -8q-7 0 -13 3q-8 4 -8 20q0 9 2 22z" />
<glyph unicode="n" horiz-adv-x="874" d="M-46 62l1 13q39 35 79 73.5t82 74t88 64.5t97 46q2 -4 2 -16.5t1 -16.5q3 -23 -10 -60.5t-29.5 -79t-31.5 -80.5t-15 -63q29 10 66 34.5t77.5 55t83 63.5t83 61.5t77 48.5t65.5 24q27 0 18 -22q-33 -87 -47 -155.5t-14 -131.5q0 -25 5.5 -38t16.5 -19t27 -6t38 6 q46 9 85 28t67.5 36t46 28t21.5 5q1 -2 1 -5q0 -8 -9 -18q-13 -14 -35.5 -28t-52 -28.5t-58.5 -26t-55.5 -18.5t-41.5 -7q-55 0 -73.5 24t-18.5 76q0 66 20 136.5t44 130.5q-45 -15 -86.5 -42t-81.5 -59t-78 -64t-75.5 -58t-74 -43t-73.5 -17l-5 7q1 36 13.5 72.5t28 73.5 t29.5 73.5t19 71.5q-54 -22 -96.5 -54.5t-79.5 -66t-70.5 -61.5t-70.5 -42z" />
<glyph unicode="o" horiz-adv-x="470" d="M-11 0q0 41 16.5 91.5t44.5 103t65.5 102.5t80 90.5t87 67t86.5 32.5h3q2 0 3.5 -3t0 -10.5t-7.5 -22.5q20 14 33.5 20t21.5 7.5t12 0.5t7 -1q9 0 18 -14q8 -11 11 -30t3 -39q0 -86 -38 -166.5t-103.5 -141t-153.5 -94.5q-71 -28 -151 -28q-19 0 -38 2q-1 5 -1 17v16z M18 -8q76 4 149 29t132 73.5t100 124t54 180.5q-5 27 -11 43q-4 12 -17 12q-3 0 -8 -1q-16 -3 -26 -12.5t-23 -20.5q-5 -3 -12.5 -6.5t-13.5 -2.5t-9 9t-1 27q-19 -8 -41 -21q-18 -11 -41.5 -29t-46.5 -45q-35 -39 -66 -76t-55.5 -79.5t-40.5 -92.5t-23 -112z" />
<glyph unicode="p" horiz-adv-x="645" d="M-98 -415q5 43 16.5 80t27 71.5t32 67t31.5 66.5q51 101 94 203t67 216q6 29 8.5 56.5t4 49t3.5 34.5t10 13q17 0 19 -18q3 -19 -0.5 -52.5t-17.5 -99.5q27 42 51.5 82.5t57 72.5t76.5 51q42 18 101 18h6q13 0 23 -23t14 -60q4 -28 4 -61v-22q-2 -47 -11.5 -94 t-28.5 -90.5t-49 -72.5q-41 -42 -84 -61t-87.5 -28t-90 -13.5t-92.5 -16.5q-11 -18 -22 -37.5t-23 -44t-27 -54.5t-33 -70q-18 -37 -28.5 -63.5t-17 -46t-9.5 -34.5t-6 -28q-9 -2 -13 -2t-6 11zM108 -4q116 8 191.5 30.5t114.5 64.5q30 32 47.5 72t27.5 81.5t12 81.5 q1 17 1 33q0 20 -2 37q-2 31 -8 50.5t-11 20.5h-5q-46 0 -86 -19q-41 -21 -76 -56t-65 -82.5t-55 -99.5t-46.5 -107.5t-39.5 -106.5z" />
<glyph unicode="q" horiz-adv-x="620" d="M-43 38q0 32 14 70q15 40 43.5 87t64.5 92.5t76.5 87t79.5 73t75 49.5q34 17 59 17h3q12 -1 23 -9.5t19 -18.5l-1 -18q0 -2 -3.5 -8t-8 -13t-8 -12.5t-4.5 -8.5q6 -10 10.5 -17t9.5 -12.5t8.5 -11.5t7.5 -15q-19 -68 -42.5 -142t-48.5 -152.5t-50.5 -158t-48.5 -156 t-42.5 -148.5t-32.5 -134q34 80 70.5 151t72.5 130.5t69.5 107.5t61.5 82q56 68 137 81q3 -2 3 -5t-4 -8q-9 -7 -26 -16t-36.5 -19.5t-31.5 -21.5q-26 -25 -58.5 -70t-67.5 -101.5t-69.5 -120.5t-64 -126t-52 -117.5t-31.5 -95.5q-3 -11 -9 -16q-4 -5 -8 -5h-2q-5 1 -9.5 9 t-2.5 24q4 38 9.5 69t11.5 59t13 54.5t16 55.5q44 165 93.5 315.5t88.5 287.5q-22 -38 -52 -70t-64 -58t-69.5 -45t-68 -29t-58.5 -10t-41 13q-24 18 -24 54zM-9 40q0 -7 3 -13q3 -7 11.5 -13t25.5 -6h9q38 0 76 16q43 18 81.5 48.5t71.5 71.5t58 84t40.5 84.5t18.5 75.5 q-1 7 -2.5 13.5t-6.5 10.5q-3 3 -5.5 1.5t-11.5 3.5q-14 7 -9.5 17t13 21t14 19.5t-6.5 12.5q-25 -2 -61.5 -24t-77.5 -57.5t-82.5 -81.5t-75.5 -95t-57 -97q-26 -55 -26 -92z" />
<glyph unicode="r" horiz-adv-x="503" d="M34 -32q4 12 10 31.5t13.5 41.5t13.5 45t11 40q11 40 22 84t15 87q0 -3 0.5 7t0.5 15v27.5t-0.5 26.5t-0.5 19.5t1 7.5q15 10 21 0t7 -30q1 -17 2 -28t-2 -32q-2 -20 -5 -38t-7.5 -38.5t-11.5 -45t-18 -57.5q9 28 28.5 66.5t44.5 79t54.5 80.5t60 71.5t60.5 51t57 19.5 q31 0 50 -15.5t31.5 -38t20 -48.5t16.5 -48q2 -4 2 -7q1 -4 -3 -6q-6 -4 -11 -3q-9 1 -12.5 10.5t-8.5 24.5q-5 13 -11.5 30.5t-15 33t-21.5 26.5t-32 11q-29 0 -62 -24t-67 -64t-67.5 -91.5t-63 -107.5t-52.5 -112t-37 -104q-1 -4 -7 -7q-8 -3 -14 -3q-1 0 -2 -1q-4 1 -8 3 q-3 2 -3 4q0 3 1 6z" />
<glyph unicode="s" horiz-adv-x="414" d="M-16 32q0 5 10 5q13 -2 21.5 -4.5t14.5 -5.5t12 -8t15 -10q24 -13 53.5 -27.5t53.5 -14.5q11 0 24 4t22 12t12.5 18.5t-3.5 24.5q-15 29 -40 56t-46 50q-17 19 -33 40t-28.5 42.5t-19.5 46t-7 53.5q0 53 25 101t66 84t92.5 57.5t102.5 21.5q10 0 26.5 -2t32.5 -5.5 t28 -10.5t14 -17q-2 -5 -5.5 -11t-6.5 -5q-20 7 -41.5 15.5t-44.5 7.5q-50 -2 -96.5 -19.5t-81.5 -49t-57 -76t-23 -98.5q0 -27 8.5 -49t22.5 -42.5t31 -39t32 -36.5q14 -16 29 -32t27 -32.5t19.5 -34t7.5 -39.5q0 -35 -23.5 -49.5t-56.5 -14.5q-19 0 -43 6t-47.5 15 t-46 21.5t-38.5 24.5q-1 4 -6.5 7t-5.5 8zM432 540l1 6q-1 -1 -1 -3v-3z" />
<glyph unicode="t" horiz-adv-x="428" d="M3 514q8 0 27.5 -1t42.5 -3t46.5 -2.5t39.5 -1.5q19 30 45.5 70.5t55 83.5t55.5 83.5t49.5 70.5t37.5 44q9 8 13 7q3 0 5 -4q7 -4 -1.5 -21.5t-27 -44t-43.5 -61t-52 -72t-51.5 -77t-41.5 -76.5q28 -2 55.5 -1.5t53.5 1.5q54 3 98 3q4 0 11.5 -2t12.5 -3q0 -8 -15 -13 t-34 -7t-37 -3t-24 -2q-26 -3 -45 -3.5t-35 -0.5t-30.5 -0.5t-31.5 -3.5q-4 -9 -9.5 -19.5t-12.5 -23.5t-16.5 -31t-19.5 -43v1q-24 -53 -45 -106.5t-21 -112.5q0 -19 5 -43.5t15.5 -46.5t27.5 -39t42 -22q29 0 63.5 11.5t68.5 29t67.5 38t60 37t45 26t22.5 6.5q2 -2 2 -4 q0 -6 -12 -18q-16 -16 -45.5 -36t-67.5 -41.5t-75.5 -38.5t-70.5 -28.5t-52 -11.5q-34 0 -58 15t-39 38t-21.5 52t-6.5 59q0 45 10.5 91t27 91.5t37 88.5t40.5 82q-15 3 -36.5 4t-44.5 1.5t-44.5 1.5t-36.5 5q-21 5 -21 14q0 13 42 13z" />
<glyph unicode="u" horiz-adv-x="690" d="M-28 46q0 28 21 87q11 32 27.5 63.5t31.5 66.5t31 68t31.5 61t29 50t22.5 35q5 8 11 16t19 8q5 0 11 -6q-7 -28 -25 -59.5t-37 -63.5l-33 -63q-13 -28 -29 -58t-30.5 -63t-26.5 -70t-16 -78q33 11 75 33t87.5 51t93.5 62.5t95 70t90 73t77 69.5q8 -4 13.5 -7t5.5 -11 t-3.5 -17t-9.5 -24q-8 -19 -16.5 -35t-13.5 -24q-8 -24 -19.5 -54.5t-19.5 -66.5q-7 -35 -9 -72q0 -4 -1 -8q0 -33 11 -65q2 -7 14 -7t36 9t62 29.5t96 55.5q14 8 18 -2q2 -3 2 -6q0 -6 -6 -10q-44 -34 -84 -57t-72 -37q-30 -13 -52 -15h-8q-15 0 -21 7q-16 19 -21.5 47 t-5.5 53q0 20 4.5 47.5t13 58t20 63.5t25.5 63q-71 -52 -129 -97t-115 -84.5t-117.5 -72.5t-137.5 -61q-9 10 -12.5 22.5t-3.5 24.5z" />
<glyph unicode="v" horiz-adv-x="530" d="M-28 -43q-2 26 -2 51q0 48 6 92q10 68 24.5 123t32 95t29.5 63q5 9 12 12.5t12.5 2t8 -7t-1.5 -13.5q-19 -44 -38.5 -87.5t-32.5 -91.5q-14 -50 -19 -104q-2 -19 -2 -40q0 -38 6 -82q50 12 111 54.5t122.5 102.5t120 134t104.5 150q25 41 40 57q13 14 18 14h2q3 -1 3 -7 q0 -5 -2 -13q-4 -17 -20 -43q-24 -41 -58 -90t-75 -100t-87 -99.5t-94 -88.5t-95.5 -67t-90.5 -34q-4 -1 -10 -2h-5.5h-4.5q-4 1 -8.5 5.5t-5.5 13.5z" />
<glyph unicode="w" horiz-adv-x="676" d="M-33 356q7 35 27.5 66t49 51.5t62.5 28.5q15 3 29 2l39 -5q12 -33 11 -68q1 -5 1 -9q-2 -40 -13.5 -80.5t-29.5 -83.5t-36.5 -87t-34 -88t-21.5 -87q19 -5 43.5 9t51 38.5t55.5 54.5t59 56.5t58.5 45t55.5 20.5l18 -18q-1 -18 -5.5 -35l-9 -34t-8.5 -34.5t-4 -36.5 q0 -11 1 -24.5t5 -27t10.5 -26t17.5 -19.5q53 6 98.5 44t78 94t51.5 122.5t19 129.5q0 11 2 23t10 21q12 -18 16 -39t4 -43q0 -34 -10 -75t-28 -83.5t-43.5 -83t-56.5 -72t-66.5 -50.5t-74.5 -19q-32 0 -48 26q-15 26 -19 64q-1 11 -2 23q0 27 6 57q8 43 24 78 q-52 -25 -94 -63t-77.5 -74.5t-67.5 -62t-63 -25.5q-9 0 -19 1.5t-19 4.5q2 45 15.5 89.5t31 87.5t36 85.5t32 84.5t19.5 84q3 19 3 37q0 23 -4 46h-11q-58 1 -92 -29q-38 -32 -64 -92q-2 -5 -8.5 -0.5t-10.5 0.5z" />
<glyph unicode="x" horiz-adv-x="495" d="M-88 -94v4q0 4 2 8q3 8 9 13q47 38 86 73.5t75.5 71t71.5 71.5t74 75q-22 46 -44.5 88t-43 83.5t-37 84t-26.5 90.5q-1 5 5.5 12t18.5 9q14 -57 29.5 -101.5t33.5 -83t39 -76t46 -82.5q36 32 70.5 71.5t66.5 79t60 72.5t50 51q8 8 16 2q3 -2 3 -6q0 -6 -7 -14 q-66 -76 -123.5 -143.5t-120.5 -137.5q16 -31 29.5 -56t26.5 -46.5t26.5 -40t32.5 -34.5q15 -14 30.5 -15t30 3t26.5 11.5t21 12t13 3.5t2 -13q-1 -6 -14.5 -16.5t-33 -18.5t-41.5 -10t-40 9q-18 12 -37 36t-35.5 51.5t-30.5 55t-24 47.5q-36 -34 -70.5 -70t-71 -71.5 t-77 -73t-87.5 -74.5q-13 -10 -20.5 -10t-9.5 5z" />
<glyph unicode="y" horiz-adv-x="540" d="M11 336q0 9 3 16q3 8 12 8q5 0 16 -7.5t15 -9.5q-5 -18 -6 -37.5t-1 -39.5q0 -36 3.5 -80t17 -81.5t37.5 -60.5q18 -18 46 -18q9 0 20 2q52 9 93 30.5t73 49t56.5 57.5t43.5 55t34 42t30 20l6 -22q-14 -26 -32.5 -48.5t-31.5 -47.5v1q-31 -48 -60.5 -110.5t-57.5 -133.5 t-52.5 -145.5t-43.5 -147t-31.5 -140.5t-16.5 -122q-1 -5 -4 -9t-7 -4t-8 3q-13 11 -10.5 26.5t3.5 26.5q2 37 14.5 94t32 123t43.5 136t47 134t43.5 116.5t34.5 81.5q-37 -31 -70 -49.5t-62 -29t-54.5 -14t-50.5 -3.5q-35 0 -58 29t-37 73t-20 97q-5 45 -5 86v13q0 5 -2 16 q-3 14 -3 24z" />
<glyph unicode="z" horiz-adv-x="657" d="M-6 -35q11 40 40 75t63.5 58.5t69.5 34.5t57 4q42 34 95 65t100.5 67t83.5 79.5t44 101.5q-42 -16 -76.5 -32t-69 -28.5t-73.5 -22t-89 -13.5q-1 1 -5 4.5t-7.5 7.5t-6 6.5t-1.5 2.5q46 1 94.5 16.5t95.5 34t89.5 37t78.5 26.5q1 -7 1 -14q0 -35 -12 -65 q-14 -36 -40 -69.5t-60.5 -63t-71 -56t-72.5 -51t-65 -45.5q13 -25 13 -53t-2.5 -58t-1.5 -60t16 -57l29 -5q56 13 117.5 30.5t120.5 38.5t111 46t91 55q3 2 4 1t2.5 -3l3 -4t4.5 0q-6 -20 -38 -42.5t-77.5 -44t-99.5 -40.5t-105 -33.5t-92.5 -23t-62.5 -8.5q-11 0 -21 1 t-21 3q-10 30 -10 60.5t1.5 60t0 57t-17.5 49.5q-27 -14 -63 -39.5t-71 -49t-61 -37.5t-33 -4z" />
<glyph unicode="{" horiz-adv-x="923" d="M24 7q0 19 10 39.5t26.5 41.5t37.5 41.5t42 39.5q33 32 66.5 67.5t57.5 90.5q-45 -4 -78 -6t-57 -2q-72 0 -72 74q0 24 33.5 42t79.5 37q27 11 54 24.5t53 32.5t49.5 44.5t42.5 61.5q-31 6 -70.5 18.5t-74.5 30.5t-59 42t-24 53q0 44 24.5 84.5t64.5 77.5t91.5 69.5 t103 60t100 48.5t84.5 36l15 -5q-9 -14 -27 -29t-42.5 -29.5t-52 -28.5t-55.5 -28l-90 -46t-81 -51.5t-58 -62t-22 -74.5q0 -32 28.5 -55t68 -39t79.5 -25.5t63 -13.5l-4 2q24 -11 40 -29t16 -44q0 -18 -20.5 -37t-49.5 -36.5t-61 -33.5t-56 -26l-57 -28q51 -30 80.5 -59 t50.5 -62q-9 -10 -19 -19t-28 -28l-65.5 -65.5t-67 -71.5t-54.5 -67.5t-29 -54.5q10 -22 29 -38.5t43 -29t52 -21t58 -13.5q56 -10 111.5 -13.5t94.5 -3.5q23 0 49.5 0.5t51.5 3.5q25 2 49.5 3t48.5 1q17 0 32 -1.5t29 -10.5q-70 -11 -137.5 -15.5t-137.5 -4.5 q-26 0 -69.5 1t-95 5t-104 13t-95 24.5t-69.5 39.5t-27 58z" />
<glyph unicode="|" horiz-adv-x="491" d="M108 -36l16 -9l-3 6l-2 3h-11zM114 -15q0 4 6 13.5t14 21.5t17.5 23.5t14.5 17.5q25 37 44.5 87t37 106.5t32.5 118.5t29 124h-1l8 35v-1q12 58 25 113.5t27 102.5t29 81.5t31 52.5q4 -8 4 -20q0 -50 -9.5 -105.5t-25 -112t-34.5 -114t-38 -111.5q-11 -30 -21.5 -60.5 t-18.5 -57.5q-19 -65 -33.5 -137.5t-14.5 -139.5q0 -17 -2.5 -35.5t-7.5 -34t-13.5 -28t-22.5 -17.5q-11 10 -22 25t-25 31h-25q-5 10 -5 21z" />
<glyph unicode="}" horiz-adv-x="866" d="M62 -200l16 -25q3 6 6.5 12t7.5 12h-6q-4 1 -10.5 1h-13.5zM92 -201q24 33 55.5 58.5t66.5 46.5h-1q9 5 19 10t21 10q41 20 91.5 47t94.5 58.5t74.5 67t30.5 74.5q0 26 -31.5 49t-72 41.5t-79 30.5t-54.5 17h1q-22 9 -43 26t-21 40q0 13 11.5 24t29 19.5t38 15.5t37.5 13 h-1l84 25q-25 11 -51.5 25.5t-48.5 31.5t-36.5 35.5t-14.5 36.5q0 14 12 28.5t32.5 30t48.5 31.5t57 32q44 25 89.5 52t81.5 59t59 69.5t23 83.5q0 40 -24 63t-62.5 36t-85 18.5t-92.5 8.5q-34 3 -65 5.5t-55 8t-38.5 13.5t-14.5 22t10.5 23t22.5 9q27 0 71.5 -5t94.5 -16.5 t101 -28t92 -38.5t67 -50t26 -62q0 -42 -16.5 -76.5t-44 -65.5t-62 -58.5t-70.5 -54.5q-42 -32 -82.5 -66t-83.5 -88q29 -11 52.5 -17.5t44.5 -9t40 -2.5h39h14q13 0 30.5 0.5t32 -1.5t25 -7t10.5 -16q0 -20 -27.5 -38.5t-65 -34.5t-77.5 -28t-66 -19l2 1l-65 -16 q13 -8 39 -23.5t57 -35.5t62.5 -41.5t57 -41t42 -37t16.5 -28.5q0 -24 -33 -62t-85.5 -81.5t-116.5 -88t-125 -80t-111.5 -58t-75.5 -22.5q-2 0 -4 0.5t-4 0.5z" />
<glyph unicode="~" horiz-adv-x="964" d="M10 365q0 10 4 18l44 5q36 3 73 8t70 19q16 7 42.5 18t55.5 22t55 18t41 7q14 0 25 -17.5t23 -42.5q10 -24 23.5 -48.5t33 -44.5t47 -32.5t67.5 -12.5q19 0 40 8t41 21t39.5 28t36.5 30q19 15 33.5 27t19.5 12t5 -5v1q0 -2 0.5 -5t0.5 -5q1 -8 1 -13v-10q0 -36 -29.5 -61 t-71.5 -41t-87 -22.5t-75 -6.5q-40 0 -65.5 8.5t-42.5 22.5t-26.5 31t-16.5 34q-8 15 -15.5 29t-17.5 24.5t-24.5 17.5t-34.5 7q-28 0 -66 -17t-77 -37q-37 -19 -73 -35.5t-62 -16.5q-11 0 -18 5t-11.5 13.5t-6 18.5t-1.5 20z" />
<glyph unicode="&#xa1;" horiz-adv-x="778" d="M96 -76q33 59 61 122t55 127q30 74 39.5 150t15.5 157l-1 -3q1 5 2 8t1 7q4 20 8.5 40t14.5 36v-1q25 37 67 37q1 0 5 -0.5t9 -1.5q1 0 1 -0.5t1 -0.5l2 -12q1 -5 1.5 -9.5t0.5 -7.5q0 -6 -7 -31t-18.5 -63t-26 -84t-29.5 -93q-9 -32 -21 -67t-22 -67q-10 -30 -19.5 -57 t-16.5 -50t-12 -40.5t-6 -25.5q-11 -28 -28 -50t-47 -22q-8 0 -15.5 0.5t-14.5 1.5zM375 601q4 -1 8 -1h9l-17 18v-17zM447 899l4 12q4 17 8 29.5t12 21t23 12.5t40 4q45 0 45 -47q0 -12 -7 -19.5t-16.5 -11t-22 -4t-23.5 -0.5q-32 0 -63 3z" />
<glyph unicode="&#xa2;" horiz-adv-x="989" d="M-73 175q0 54 23.5 103t63.5 91.5t92 78t106.5 66t109.5 54t100 39.5l6 31q6 23 11.5 48.5t13.5 49.5t17.5 45t24.5 36q2 -5 3.5 -9t1.5 -9q0 -26 -2 -48.5t-5 -45.5q-2 -12 -4 -26t-4 -42q17 4 38 10t42.5 12t42 11.5t38.5 10.5q2 -2 1.5 -1.5t1.5 -1.5q12 -11 24 -23 t12 -26q0 -20 -9 -56.5t-24 -72.5t-35 -62.5t-42 -27.5q-12 0 -28 6.5t-18 17.5q3 9 17 29.5t32 43t36 42t28 28.5q-38 19 -59.5 22t-37.5 3h-70l-165 -618q36 0 85 1t99 4q-46 -6 -91.5 -10.5t-89.5 -4.5q0 -20 -1 -48t-5.5 -56t-14.5 -51t-28 -33q-8 8 -16 21.5t-16 25.5 l1 -4l-9 21h-30q-6 10 -7 19q0 6 10 20t23.5 29.5t30 31t29.5 24.5q-61 0 -124.5 8t-114 30t-82.5 61t-32 102zM-31 193q0 -60 27.5 -100.5t69.5 -64.5t94 -34t102 -10q59 136 92.5 275.5t54.5 285.5l-13 35q-65 -25 -137 -62t-135 -86q-32 -25 -60 -52t-49 -57t-33.5 -63 t-12.5 -67zM494 -11q11 1 21.5 1.5t21.5 2.5q29 3 57.5 6.5t54.5 8t48 10t37 11.5l22 9q17 8 34 14t32 6l-10 33q-40 -30 -101 -51t-126 -35q-23 -5 -45.5 -8.5t-45.5 -7.5z" />
<glyph unicode="&#xa3;" horiz-adv-x="966" d="M4 -75q0 13 14 37t32.5 49.5t36.5 48t29 34.5q60 76 104.5 157t87.5 166v9.5t-1 11.5l6 -13q55 116 101.5 224t78.5 207q5 22 11.5 43t15.5 42q3 5 7 11l10 15l6 10q7 13 18 13q8 0 16 -6.5t14 -16t9.5 -20t3.5 -18.5q0 -10 -16.5 -49t-42 -92.5t-56 -114.5t-60 -116.5 t-53.5 -99.5t-35 -63q-1 1 -1 4l-187 -378q57 -67 134 -66q15 0 39 10.5t51 25.5q15 8 33 16.5t35.5 16.5t34 12.5t29.5 4.5q15 0 43 -15.5t58 -32.5q36 -22 71.5 -41t64.5 -19q20 0 36.5 11.5t32.5 24.5l19 17v-25q-19 -18 -41 -31t-47 -13q-33 0 -68 17t-69 36 q-35 19 -66 33.5t-60 15.5q-10 0 -37 -10.5t-57.5 -25t-57.5 -28t-37 -20.5h1q-32 -17 -66 -24.5t-70 -7.5h-35t-52.5 2.5t-47 7t-20.5 13.5zM127 473l31 -12q0 3 0.5 6t1.5 7l21 25l22 22q-43 -15 -76 -48zM203 521q14 14 30 24.5t36 10.5v-1l2 -2l11 -32q-5 4 -12 7t-15 3 q-13 0 -26.5 -3t-25.5 -7zM282 521l25 -83q-1 22 -6 46t-19 37zM340 393q0 -9 1 -26t5.5 -33t14 -28t26.5 -12q15 0 28 5t24.5 13.5t20.5 18t17 18.5l18 25l-33 9v-12q-4 -10 -13 -23t-19.5 -25t-23 -19.5t-23.5 -7.5q-3 0 -9 11t-12.5 26.5t-12 32.5t-8.5 28z" />
<glyph unicode="&#xa4;" horiz-adv-x="804" d="M-19 168q1 6 10.5 18.5t23 25t27.5 23.5t24 16q-35 86 -35 151q0 72 21 140.5t61 133.5l-29.5 29.5t-36.5 39.5t-31 41t-13 33q0 4 5 4q9 0 21 -7.5t25 -19t25 -24t21 -22.5l9 -9l2 -57q19 19 38.5 37.5t40 33t41 23.5t40.5 9q19 0 40 -6.5t41 -13.5q22 -8 45 -15t48 -7 q11 0 23.5 0.5t24.5 2.5q11 1 21 1.5t21 0.5q4 0 14.5 -1t24.5 -3l24 19q16 13 33.5 26t32.5 13q3 0 3 -7q0 -6 -6 -15.5t-14.5 -19.5t-18.5 -21t-18 -19q24 -27 28.5 -54t4.5 -56q0 -79 -36 -151.5t-90 -138.5l25 -27l-1 1q13 -15 30 -35.5t31 -41.5t24.5 -41t10.5 -35 q0 -7 2 -11q-9 1 -30.5 21.5t-46 46.5t-46 52.5t-31.5 38.5q-58 -58 -126 -94.5t-143 -36.5t-129 54l-20 -12q-18 -11 -38 -21.5t-41 -10.5h-4t-3 -2zM49 402q0 -32 8 -71.5t25.5 -74.5t46.5 -58.5t71 -23.5q95 0 175.5 43.5t138.5 113.5t91.5 157.5t33.5 174.5q0 38 -53 54 q-42 13 -97 19q-26 4 -51.5 5.5t-51.5 2.5q-24 1 -41 1h-26q-60 -1 -109.5 -34t-85.5 -83.5t-55.5 -111t-19.5 -114.5z" />
<glyph unicode="&#xa5;" horiz-adv-x="761" d="M-34 927q0 10 13 20t24 10q14 0 28.5 -15.5t29 -42t28.5 -60.5t30 -71q16 -43 34.5 -85.5t40 -79.5t47 -64t57.5 -39q33 13 75.5 43.5t90 72t97 90.5t96.5 98l82 86q32 34 59.5 63t49 50.5t35.5 34t18 12.5q14 -2 29 -11q-49 -55 -97.5 -102t-100.5 -96 q-50 -48 -100.5 -98t-99.5 -105t-95.5 -117.5t-89.5 -134.5l47 2q32 5 61.5 10t59.5 5q14 0 21.5 -10.5t7.5 -25.5q0 -6 -0.5 -17.5t-2 -22t-6 -18t-10.5 -7.5q-13 0 -26.5 6.5t-25.5 15.5q-14 8 -28 14t-28 6q-39 0 -82 -11l-7 -18q-9 -24 -16.5 -49.5t-13.5 -68.5 q55 11 106.5 18t96.5 7q24 0 23 -29v-6v-18t-1.5 -19.5t-4.5 -15.5t-9 -6q-7 0 -16.5 4t-20.5 9q-16 8 -33 15.5t-36 7.5q-29 0 -57 -3.5t-65 -10.5q-1 -9 -3 -19t-4 -21q-8 -47 -18.5 -99t-30.5 -98t-52 -82t-81 -51v2l11 13q13 70 34.5 131t44.5 122v-1q3 7 9 22t20 57 q-48 -13 -90 -23.5t-78 -10.5h-22.5t-20.5 2l4 4q0 20 2.5 37.5t9.5 28.5l210 21l22 122l-60 -14q-32 -8 -64 -15.5t-69 -7.5h-11q-8 0 -16 -0.5t-16 0.5l6 10q0 17 2 33.5t10 28.5q6 0 7.5 0.5t6.5 0.5q44 2 90 5t102 14q-11 67 -35 129t-60 123q-8 12 -24 37.5t-35.5 57.5 t-39.5 67t-37 65.5t-28 54t-11 31.5zM-20 99l12 -16v1l8 10l-10 2t-10 3zM-7 276l11 -17v2l8 9q-5 1 -9.5 2t-9.5 4zM79 -224l18 -9q-1 3 -5 7v6z" />
<glyph unicode="&#xa6;" horiz-adv-x="507" d="M190 519l12 -24l9 20q2 6 4 9q-7 -1 -16 -6q-1 0 -2 -1q-4 2 -7 2zM199 -165q5 5 6.5 10t3.5 12v1l-5 -4q0 1 -2 3zM209 -142q2 5 4 11t9 17q9 13 16 34.5t11.5 46t6.5 50.5t2 52q0 66 -16 128q-7 29 -11.5 57.5t-4.5 58.5q0 20 6.5 41t18.5 36q9 -6 14.5 -23.5t9 -39 t4.5 -42t1 -32.5q0 -24 -1 -49.5t-3 -46.5q-3 -49 -3 -100q0 -28 7 -54t13 -49q4 -16 7.5 -28.5t3.5 -20.5q0 -14 -6 -23.5t-16 -19.5h-10q-5 0 -8.5 0.5t-8.5 1.5t-11.5 1.5t-21.5 0.5zM215 524q12 28 20.5 49.5t13.5 43.5t7 47.5t2 62.5q0 25 -2 48t-5 43q-2 20 -4.5 41 t-2.5 38q0 41 20 71q6 -4 10 -14.5t5.5 -22t2 -24t0.5 -20.5q0 -28 -2 -55.5t-5 -55.5q-2 -27 -4.5 -54t-2.5 -57q0 -31 6.5 -56.5t17.5 -49.5q-1 -14 -11 -23.5t-24 -9.5h-18q6 -1 7 -14q-1 8 -9 12t-22 0z" />
<glyph unicode="&#xa7;" horiz-adv-x="811" d="M-129 -111q0 6 0.5 13t1.5 12q3 -33 13 -64.5t27 -56t45 -40t68 -15.5q31 0 84.5 7.5t115.5 22.5t126 36.5t115.5 50t84.5 64t33 76.5q0 31 -13.5 54t-37 39.5t-54.5 28t-67 18.5q-33 6 -71.5 12t-77.5 9q-74 6 -142 17t-112 29q-14 8 -24 19t-11 26q3 23 27 45.5 t61.5 45.5t85.5 46t99 43t101 38t93 32t75.5 23.5t45.5 14.5l-2 28q35 -12 64.5 -25.5t51 -27.5t34 -29.5t12.5 -31.5q0 -30 -13.5 -55t-34.5 -45.5t-47 -36.5t-51 -28v1q-34 -14 -66 -26t-60 -21q-30 -10 -76 -20t-108 -21l1 -34l51 -7q19 -3 50.5 -9.5t66.5 -16 t70.5 -22.5t64 -29.5t46.5 -35.5t18 -42q0 -49 -34.5 -88t-88.5 -69t-121.5 -51.5t-135 -35.5t-126.5 -20.5t-97 -6.5q-31 0 -60 12.5t-51.5 34t-36 51t-13.5 61.5zM-5 243q11 -7 32 -16.5t43.5 -18t42.5 -14.5t29 -6q31 0 82 7.5t110 21.5t120 35.5t109.5 50.5t80 64 t31.5 77q0 30 -20.5 56t-49.5 47q-57 -37 -113 -54t-114 -28q-46 -10 -93 -22.5t-95 -35.5t-96.5 -62t-98.5 -102zM71 689q0 16 15 33.5t41 35t60 34.5t72 33q-47 -27 -91 -62.5t-83 -85.5q27 -5 80.5 -14.5t119.5 -23.5t137.5 -32.5t132.5 -41.5q-13 2 -35 6t-46 8 q-36 4 -79.5 10t-88.5 13t-87.5 16.5t-75 20t-52.5 23.5t-20 27zM259 825q43 18 88.5 34.5t86 29.5t73 23t49.5 15q-73 -17 -148.5 -39.5t-148.5 -62.5zM555 565q2 0 6 -2v1q-2 0 -3 0.5t-3 0.5zM557 927q23 7 46 13q51 14 99.5 30t98.5 40l14 -5q-42 -25 -103.5 -42 t-129.5 -31q-6 -2 -12.5 -3t-12.5 -2z" />
<glyph unicode="&#xa8;" horiz-adv-x="663" d="M67 803q0 10 7 16t17 9t22.5 4.5t21.5 1.5q15 0 31.5 -3.5t33.5 -7.5q-7 -13 -9.5 -21t-2.5 -14q0 -1 -1 -2t-6 -2t-15.5 -3t-31.5 -5l-48 -32q-4 3 -7.5 10.5t-6 16.5t-4 18t-1.5 14zM200 823q4 8 13 21l9 -27zM369 797q0 10 6 15.5t15 8.5t20.5 3.5t22.5 0.5 q18 0 36.5 -2.5t38.5 -6.5q0 -26 -13.5 -31.5t-27.5 -7.5q-6 -1 -10.5 -1.5t-13.5 -4.5t-22 -12.5t-36 -25.5q-2 3 -5 12t-5.5 18.5t-4 19t-1.5 14.5zM384 732l1 1l47 32l9 -33h-57zM508 816v12l13 -15z" />
<glyph unicode="&#xa9;" horiz-adv-x="1215" d="M42 324q4 87 15 149t34.5 112t62.5 96t99 100q42 38 101.5 70.5t129 56.5t144 38.5t146.5 17t136.5 -9t113.5 -39t78 -72.5t30 -111q1 -168 -42 -308.5t-134 -246t-231 -172.5t-333 -87q-88 -9 -155 23t-111.5 90.5t-65.5 135.5t-18 157zM65 330q-2 -41 4.5 -86t23 -88.5 t41.5 -83.5t58.5 -69.5t75.5 -45.5t93 -13q180 10 325 72.5t242.5 171.5t142.5 262t26 342q-5 45 -45 78t-103.5 51t-146 20t-170.5 -15.5t-177 -55t-168 -99.5q-58 -46 -98.5 -89t-66.5 -93.5t-39.5 -113t-17.5 -145.5zM266 337q6 47 29.5 95.5t58.5 93t78 83t88 66.5 t89.5 44t81.5 15q18 0 33 -6l6 -3q30 -17 38.5 -41t6.5 -46q0 -5 -2 -12.5t-5.5 -14t-7.5 -11.5t-9 -6q-2 1 -7.5 4t-3.5 8l13 32q0 31 -14.5 51t-50.5 20q-45 0 -95.5 -25t-98.5 -62t-88 -81t-64 -83q-46 -79 -46 -147q0 -34 10 -54.5t28.5 -32.5t43.5 -16.5t55 -4.5 q71 -1 133.5 14t121.5 54q43 29 69 47t40.5 28.5t19.5 14.5t6.5 2.5t2 -5t4.5 -8.5q-8 -13 -11 -18t-10.5 -11.5t-25.5 -17.5t-58 -38q-37 -26 -72.5 -43.5t-71 -29t-75.5 -16.5t-86 -5q-78 0 -121 43.5t-33 122.5z" />
<glyph unicode="&#xab;" horiz-adv-x="1318" d="M-159 266q-1 17 7 26.5t25 20.5v-1q23 15 64 16q9 0 30.5 10t51 27t64.5 39t69 47q15 10 35 24.5t41.5 30.5t42.5 32t38 28l140 107q39 31 75.5 59t68.5 52t57 43t40 31l13 -3l6 -14q-5 -28 -40.5 -67.5t-89.5 -85t-120.5 -93.5t-133 -93t-127.5 -84t-104 -67v1l-70 -43 q47 -35 96.5 -56t98.5 -38q48 -17 97.5 -36.5t89 -43.5t65 -54.5t26.5 -69.5v-23q-37 7 -71 32t-73 58q-31 26 -64 52.5t-72 48t-85.5 34.5t-103.5 13q-22 0 -45.5 -9.5t-43.5 -19.5l-2 -1q-16 32 -39.5 45.5t-56.5 24.5zM337 335q1 13 6 25.5t17 19.5t32.5 10t33.5 4 q24 4 71 31t108.5 68.5t131 92t138 102t130.5 100.5t108 84q24 17 40 30.5t28 22.5l11 -1q5 -13 5 -19q0 -20 -23 -50t-61.5 -65.5t-89.5 -74.5t-107 -78q-46 -33 -93 -63.5t-90.5 -59.5t-82 -53t-66.5 -42v1q-7 -4 -17.5 -11t-20 -13.5t-18.5 -12t-13 -8.5q47 -31 90.5 -49 t88.5 -35q50 -18 102.5 -40.5t95.5 -48.5t70 -57t27 -68v-24q-49 11 -88.5 42t-78.5 67l-13 12q-25 24 -54.5 45.5t-65 37t-78 25.5t-91.5 10q-20 0 -44.5 -9t-45.5 -20q-12 30 -36 47t-57 25z" />
<glyph unicode="&#xad;" horiz-adv-x="843" d="M60 301l11 -26l13 21q-6 1 -11.5 2t-12.5 3zM84 296l2 2q0 19 3 35t14 27q31 6 66.5 8.5t68.5 3.5q24 1 49.5 1.5t47.5 2.5q46 3 91.5 9t88.5 14q87 18 175 19q37 0 37 -33q0 -9 -0.5 -20t-3.5 -19.5t-8 -14t-15 -5.5q-13 0 -28 5t-29 11q-17 6 -33.5 12.5t-37.5 6.5 q-55 0 -109.5 -11t-110.5 -24q-52 -13 -105 -23.5t-109 -10.5q-14 0 -27 1t-27 3z" />
<glyph unicode="&#xae;" horiz-adv-x="1223" d="M108 319q4 87 14.5 149t34 112.5t62.5 96.5t99 100q55 50 133.5 87t164 55.5t169.5 16.5t151.5 -29t108.5 -82.5t42 -142.5q1 -168 -24.5 -301.5t-96 -230.5t-193.5 -157t-315 -79q-88 -9 -155 23t-112 90.5t-66 135.5t-17 156zM130 326q-2 -41 4.5 -86t23 -88.5 t41.5 -83.5t59 -69.5t76 -45.5t93 -13q360 20 512.5 220.5t113.5 580.5q-5 45 -37 81.5t-83.5 60t-119.5 31.5t-144 -4.5t-157.5 -47t-159.5 -95.5q-58 -46 -98 -89t-66 -93.5t-40 -113t-18 -145.5zM256 142q47 80 78.5 139t54.5 106.5t41.5 88t39 82t48 89t68.5 109.5 l17 -6q-9 -19 -30 -57t-44.5 -81.5t-45.5 -87t-33 -73.5q205 2 315.5 69.5t117.5 207.5q1 34 -12 52t-35.5 23.5t-51.5 1.5t-61 -14.5t-63.5 -23.5t-57.5 -27q-11 -5 -20.5 -6.5t-13 1t0.5 8t19 12.5q68 33 126.5 55.5t102 23.5t69 -25t25.5 -88q0 -75 -33 -127.5t-85 -87.5 t-116 -54t-125 -27q0 -27 1.5 -50.5t5.5 -44.5q7 -39 13 -73t11 -66.5t11 -67t13 -74.5q2 -10 -1.5 -18t-9 -12t-11 -1t-7.5 15q-16 100 -31.5 191t-26.5 195h-59q-14 0 -27 -1q-19 -35 -33.5 -65t-30 -62.5t-36 -70t-50.5 -85.5q-3 -5 -12.5 0t-15.5 7z" />
<glyph unicode="&#xaf;" horiz-adv-x="624" d="M49 674l3 -9v5v1zM52 671q0 7 1 14.5t4 14.5q27 2 50.5 3.5t50.5 3.5q38 2 76.5 5t76.5 8q16 2 31.5 4t31.5 4q24 4 46 7.5t45 3.5q17 0 17 -14q0 -11 -3 -31q-1 -4 -6 -4q-11 0 -21.5 4t-20.5 9q-11 5 -23.5 10t-24.5 5q-39 0 -77.5 -8.5t-77.5 -18.5q-36 -9 -72 -16 t-75 -7q-8 0 -16 0.5t-13 2.5z" />
<glyph unicode="&#xb0;" horiz-adv-x="499" d="M88 570q16 26 40.5 47.5t51.5 37.5t56 24.5t58 8.5q17 0 35.5 -4t33.5 -12.5t24 -22.5t9 -33q2 -32 -21 -51.5t-54.5 -31t-64.5 -15.5t-51 -4q-62 0 -117 56zM92 567q0 22 24.5 42.5t58.5 36.5t69 25t55 9q18 0 34.5 -3.5t29.5 -12t20 -22.5t7 -37t-21.5 -38t-51 -25 t-60.5 -14t-48 -4q-14 0 -34 1t-38.5 5.5t-31.5 13t-13 23.5z" />
<glyph unicode="&#xb1;" horiz-adv-x="1136" d="M-109 519q0 24 18.5 35.5t43.5 11.5q4 0 22 -9t32 -17q27 -8 54.5 -9.5t51.5 -1.5h55q38 0 75 3.5t69.5 15.5t59.5 35.5t45 64.5l-1 -1q8 17 10.5 43.5t4.5 59.5q2 29 5 59.5t9.5 55.5t16.5 41t26 16q43 0 43 -39q0 -24 -8.5 -47.5t-17.5 -47.5q-11 -26 -20 -51.5 t-9 -57.5q0 -34 12.5 -54t32 -30.5t43.5 -13.5t48 -3q36 0 69 3t65 7q33 4 66.5 7t68.5 3q39 0 55 -37q-17 -8 -38 -14.5t-38 -6.5q-36 0 -70.5 2.5t-69.5 6.5q-35 3 -69 6t-70 3q-55 0 -86 -26t-45.5 -66t-17.5 -89.5t-4 -97.5q-1 -50 -4.5 -89t-17.5 -51q-6 -2 -17.5 -3.5 t-24.5 -2.5t-25 -2t-21 -1q-3 23 -3 49q0 30 10 60t21 60q12 33 23 65t11 67q0 61 -42 80q-33 15 -79 15q-40 0 -78.5 -9.5t-77.5 -20.5q-34 -11 -68 -19.5t-68 -8.5q-13 0 -27 2t-24.5 7.5t-17.5 15.5t-7 26zM52 -58q0 13 2.5 28t13.5 21l-1 -1q4 2 18.5 3.5t32.5 2.5 t35 1.5t24 0.5q32 2 68 4.5t68 5.5l48 4q26 3 51.5 7.5t51.5 8.5q49 8 95.5 14t92.5 6q18 0 28.5 -6.5t10.5 -24.5q0 -9 -1 -19.5t-4 -20t-8.5 -15.5t-14.5 -6q-13 0 -27.5 5t-29.5 12q-17 8 -34 14.5t-37 6.5q-55 0 -109.5 -11t-110.5 -25v1q-53 -12 -105.5 -23.5 t-103.5 -11.5q-17 0 -30 3.5t-24 14.5z" />
<glyph unicode="&#xb2;" horiz-adv-x="428" d="M47 415q0 3 4 4h-1l18 7q24 9 53.5 23t59.5 28q15 -17 23.5 -22.5t16.5 -13.5l16 -12q-19 5 -38 10.5t-29 5.5q-24 0 -45.5 -8t-38.5 -15q-10 -4 -18 -7t-10 -3q-11 0 -11 3zM142 684q5 0 8 1q-3 -4 -3 -6q-1 4 -5 5zM150 685q4 9 15 16t26 12t32 8.5t32 5.5 q-15 -4 -30.5 -10t-29.5 -12l-24 -12t-21 -8zM172 489q30 12 62 30t59.5 40t44.5 49t17 59q0 19 -6 33q12 -20 12 -49q0 -20 -10.5 -40t-28.5 -38.5t-41.5 -35.5t-49.5 -32q-11 -7 -24 -14l-26 -14zM237 429q2 0 3.5 -0.5t3.5 -0.5q9 -3 19.5 -5.5t22.5 -4.5l-21 -17 q0 4 -8.5 12t-19.5 16zM255 727q10 3 24 3h5zM286 730h3q46 0 60 -30q-17 27 -63 30z" />
<glyph unicode="&#xb3;" horiz-adv-x="380" d="M42 438l20 -10q-7 -1 -7 -3q0 -9 15 -14t35 -7.5t40 -2.5h31q23 0 48.5 7t42.5 23q-10 -12 -26 -20t-33.5 -12t-35 -5.5t-30.5 -1.5q-11 0 -23.5 1.5t-26.5 3.5q-36 7 -50 41zM89 702q0 2 4 5.5t8 5.5l2 1q14 0 38.5 -1.5t51.5 -6.5h-13h-53q-9 -1 -23.5 -2t-14.5 -2z M95 729l26 -7l-18 -8zM147 545q29 16 66 32q45 18 83 65q-1 -17 -18 -35l1 1q-9 -8 -17.5 -15.5t-16.5 -13.5l-33 -24q9 -7 19.5 -13.5t18.5 -15.5q-11 5 -25 7.5t-27 4.5q-2 0 -6 0.5t-6 0.5q-13 2 -23 2t-16 4zM193 706q25 -1 53 -15q-27 11 -53 15zM246 691 q17 -6 30.5 -13.5t18.5 -19.5q-12 11 -25 19.5t-24 13.5zM250 526q21 -9 29 -28q-11 14 -29 28zM267 431q16 17 16 42q0 15 -4 25q8 -13 8 -25q0 -26 -20 -42zM295 658l8 -8l-7 -8q1 2 1 7t-2 9z" />
<glyph unicode="&#xb4;" horiz-adv-x="579" d="M139 630l7 -25l9 16q-1 0 -3 2zM155 621q6 11 23.5 34t41 50.5t51 57.5t53.5 54t48 39t36 15q20 0 20 -24q0 -10 -9 -25t-22.5 -32.5t-30 -35t-29.5 -32.5l-30 -33v-1q-4 -3 -8.5 -7.5l-9.5 -9.5q-11 -10 -23.5 -22.5t-24.5 -23t-20.5 -17t-11.5 -6.5q-14 0 -27.5 5 t-26.5 14zM307 688l17 -26l-12 30z" />
<glyph unicode="&#xb5;" horiz-adv-x="1210" d="M-157 -86q0 13 17 36t40 47.5t46 45t36 31.5q3 26 23.5 63t50.5 80t67 88.5t73 87.5t69 77.5t56 57.5l10 9l31.5 31.5t39.5 37.5t37 30.5t26 12.5q4 0 4 -10q0 -12 -15 -35.5t-39.5 -54.5t-56.5 -67.5t-66 -73.5q-36 -40 -73 -82.5t-69.5 -84.5t-57.5 -80.5t-36 -69.5 l38 -32q12 0 23 -0.5t19 -1.5q7 -1 16.5 -1.5t18.5 -0.5q50 0 98.5 18.5t95.5 39.5l-1 -1l24 10q55 24 100.5 47.5t82.5 47.5q74 47 125 98q27 28 52.5 57.5t51.5 64.5q28 39 57.5 80.5t56.5 81.5l4 4q6 8 15.5 20.5t20.5 24t20.5 20t16.5 8.5q8 0 19 -5q1 -4 2 -7.5t2 -6.5 v1l2 -5q0 -22 -11.5 -45t-30 -49.5t-42.5 -54.5t-50 -57q-34 -37 -67.5 -76t-60.5 -80.5t-44 -85t-17 -87.5q0 -74 78 -74h17h24q-18 -5 -37.5 -7.5t-40.5 -2.5q-29 0 -46 6.5t-26.5 19.5t-12.5 33t-3 46v17q0 18 0.5 40.5t5.5 66.5q-60 -41 -125.5 -83t-134.5 -75.5 t-139 -55t-137 -21.5q-17 0 -37.5 2.5t-41.5 5.5l-37 5q-14 -11 -25.5 -23.5t-27.5 -28.5q-14 -15 -29 -31t-29 -29.5t-23.5 -21.5t-12.5 -8q-7 0 -8.5 3.5t-1.5 11.5zM812 44q11 4 22 7t22 7l16 4l-8 -29l-9 10q-12 1 -22.5 1h-20.5zM1007 684l9 -16l-6 3q-3 6 -3 13z" />
<glyph unicode="&#xb6;" horiz-adv-x="1085" d="M-11 874q0 37 13 82t37 84.5t58.5 66.5t76.5 27q40 0 89.5 -24.5t102.5 -63t105.5 -88t97.5 -100t79.5 -97.5t50.5 -81l-6 -24l-40 13q-7 -69 -12.5 -136t-5.5 -134q0 -57 4 -114t9 -112t10 -111t5 -111v-11q0 -20 -1.5 -42.5t-9.5 -39.5q-12 23 -18.5 61.5t-9 80 t-3 79.5t-0.5 60q0 118 3 232q2 57 -3.5 116.5t-15.5 116.5l-15 113l-66 93q-31 -58 -41 -110.5t-10 -98.5q0 -42 3 -81.5t7 -79.5q5 -39 8.5 -81t3.5 -95l55 5q-3 -17 -9 -35.5t-14 -33.5q-8 -23 -16 -48.5t-8 -54.5q0 -27 3 -49t7 -45t7 -43t3 -41q0 -24 -6.5 -34 t-21.5 -22l-17 3q-11 16 -16 35.5t-5 41.5q0 12 2.5 23t6.5 25t7.5 29.5t3.5 32.5q0 50 -12 91.5t-47 78.5l-69 70q-60 60 -124 128t-116.5 141.5t-86 152t-33.5 159.5zM25 891q0 -43 17 -102.5t47 -125.5t69.5 -131.5t83 -120.5t89 -92t87.5 -47l48 8q2 27 2.5 47.5 t0.5 42.5v19q0 45 -3.5 84.5t-7.5 79.5q-5 41 -8.5 83t-3.5 85q0 11 2.5 24.5t4.5 26.5q2 14 4 29t2 34q0 41 -25 86.5t-63.5 83t-84 62.5t-86.5 25q-42 0 -74.5 -17t-55 -45t-34 -64t-11.5 -75z" />
<glyph unicode="&#xb7;" horiz-adv-x="415" d="M139 481q0 11 7 18t16.5 10t21.5 4t23 1q17 0 32.5 -2.5t32.5 -5.5q-4 -9 -6 -17t-4 -13t-9 -7t-27 -7l-21 -5l-47 -34q-3 3 -7 11t-6.5 17.5t-4 17.5t-1.5 12zM272 506l12 20l11 -25q-6 1 -11.5 2t-11.5 3z" />
<glyph unicode="&#xb8;" horiz-adv-x="446" d="M119 -124l12 -31q5 6 13.5 14.5t17.5 19.5q-12 -3 -27 -3h-16zM162 -121q19 22 43.5 50t46 55.5t37 51.5t15.5 39q0 23 -18.5 45.5t-39.5 44.5q-14 14 -26 26.5t-12 17.5q0 10 8.5 17t20.5 11.5t24.5 6.5t21.5 2q11 0 25.5 -15.5t26.5 -35.5t20.5 -40.5t8.5 -29.5 q-1 -39 -17.5 -79.5t-44 -75.5t-63.5 -59.5t-77 -31.5z" />
<glyph unicode="&#xb9;" horiz-adv-x="258" d="M130 361l6 32q2 8 2.5 16t1.5 16q0 7 0.5 14.5t1.5 16.5v-7q0 -22 1 -44t7 -43q-3 -1 -7.5 -1h-7.5h-5zM142 456q0 9 0.5 18.5t0.5 18.5q-1 -9 -1 -18.5v-18.5zM143 493v11q0 24 0.5 46t4.5 48q2 15 3.5 26t1.5 31q-7 9 -9 12l7 6q4 -4 4 -17q0 -25 -2.5 -50t-4.5 -51 q-2 -15 -3 -30.5t-2 -31.5z" />
<glyph unicode="&#xba;" horiz-adv-x="532" d="M26 583q36 -32 76.5 -54t85.5 -22q32 0 79.5 6t92 23t76.5 46t32 74q0 31 -13.5 51t-34 31t-45 15t-46.5 4q-42 0 -86 -14t-84 -37.5t-75 -55.5t-58 -67zM37 597q0 20 16 40.5t41.5 38.5t57 33.5t64 26t61 17t48.5 6.5q26 0 50 -6.5t43 -19.5t31 -33t12 -48 q0 -24 -14 -42t-36.5 -31.5t-51 -23t-57.5 -15t-55.5 -9t-44.5 -3.5q-19 0 -47.5 1t-54.5 8t-44.5 20.5t-18.5 39.5z" />
<glyph unicode="&#xbb;" horiz-adv-x="1327" d="M-171 17v9q45 12 111.5 48t141.5 85.5t150.5 108.5t139 117.5t107.5 114t56 96.5q-9 31 -35 56t-61.5 47t-78 41t-84.5 37t-81.5 36t-71.5 37.5t-51 39.5t-19 43q0 17 10.5 30.5t22.5 23.5q25 -17 48.5 -36t48.5 -38h-1q59 -48 121 -94t128 -83t137.5 -61t152.5 -27v-14 q-1 -23 -3 -45t-11 -37q-2 -4 -14.5 -15t-31 -25t-40 -30t-42 -30t-36.5 -24.5t-23 -14.5l-334 -234h1q-74 -49 -135 -103t-119 -122q-8 -9 -16 -15.5t-20 -6.5q-37 0 -52.5 25t-15.5 60zM76 996h20l-10 -9zM327 17v8q45 11 111.5 47.5t141 86.5t151 110t140 119t108 114 t55.5 94q-11 29 -37.5 55t-64 48.5t-81.5 43t-90 38.5q-41 16 -79.5 34.5t-67.5 37.5t-47 39.5t-18 40.5q0 16 11.5 29.5t25.5 24.5q25 -17 48 -36t49 -38h-1q58 -46 120.5 -91.5t129 -82.5t138.5 -61.5t149 -29.5q-1 -26 -5.5 -50.5t-14.5 -44.5l1 1q-4 -7 -27 -26t-58 -45 t-79.5 -58t-91.5 -64l-135 -93q-51 -34 -85.5 -57.5t-42.5 -33.5q-69 -48 -130.5 -103.5t-119.5 -119.5q-9 -8 -20 -15t-19 -7q-18 0 -33.5 10.5t-28.5 22.5q-2 15 -2.5 27.5t-0.5 24.5zM575 996h21l-10 -9z" />
<glyph unicode="&#xbc;" horiz-adv-x="1032" d="M-101 -238q16 55 43.5 98.5t65.5 86.5q52 55 106 113t108 119l-35 -42l-135 -164q-14 -19 -27.5 -42.5t-24.5 -47.5q-15 -30 -31 -57t-34 -45q-5 -8 -26 -17zM114 482l17 -17v15q-5 0 -7 1q-3 0 -5.5 0.5t-4.5 0.5zM131 480v23q0 10 1 19t3 17q1 5 1.5 10.5t2.5 11.5 q0 -47 7 -80q-4 -1 -12 -1h-3zM139 561q1 5 1.5 11t0.5 11q0 17 0.5 38t1.5 41q-2 -23 -3 -46t-1 -49v-6zM142 786l6 7q1 -3 2.5 -8t1.5 -10q0 -24 -2.5 -49.5t-4.5 -50.5l-2 -13q0 3 0.5 6t0.5 6q2 24 2.5 51.5t0.5 50.5q-2 2 -2 -1zM222 179q40 46 79 91.5t77 94.5z M378 365q38 49 73.5 98t68.5 99q49 76 100 154t100 153l8 12q14 20 32.5 46.5t38.5 44.5q4 -6 5 -15t1 -18v-7q-4 -15 -23.5 -46.5t-51 -74.5t-72 -95.5t-86.5 -111t-95.5 -119.5t-98.5 -120zM467 37q0 1 6 8t16.5 19t23.5 26.5t28 30.5l-46 -62q7 -4 14.5 -8t15.5 -8 q-7 -1 -12.5 -3.5t-10.5 -4.5t-9.5 -3.5t-10.5 -1.5t-10.5 1t-4.5 6zM525 43q34 -17 71 -30t70 -13q7 0 11 1q-15 10 -35.5 18.5t-40.5 14t-38.5 8t-28.5 2.5q-6 0 -9 -1zM541 121l38 42l58 63l-23 -4q1 -1 1 -2zM664 -145l23 -18q0 14 2.5 30t5.5 30l4.5 22.5t3.5 27.5v-2 q-7 -22 -12.5 -39.5t-7.5 -28.5l1 2q-5 -11 -7 -15.5t-13 -8.5zM677 1q20 3 34 18.5t25 37.5q-8 -30 -16 -58t-17 -52q1 4 2 12q0 12 -8.5 23t-19.5 19zM736 57q14 30 22 67.5t13 73.5q-5 -27 -13 -60t-19 -66zM771 198l2 18t3 18l3 32h7q-7 -4 -7 -11q0 -19 -8 -57z" />
<glyph unicode="&#xbd;" horiz-adv-x="1019" d="M-129 -248l20 -20l9 29l-16 -5l2 1q-4 -1 -7.5 -2.5t-7.5 -2.5zM-100 -239q7 29 17 53t23 46t30 43t38 44q58 62 110 119.5t98 111t88.5 106t82.5 104.5q40 53 80.5 108.5t79.5 112.5q39 58 83.5 124.5t91.5 138.5l6 9q15 24 33.5 48.5t37.5 42.5q4 -6 5 -15t1 -18 q0 -15 -27.5 -59t-74.5 -106.5t-107 -138.5t-126 -155q-60 -74 -120 -146.5t-114 -136.5q-63 -77 -113 -136.5t-71 -87.5q-11 -17 -23.5 -39.5t-25.5 -46.5q-17 -32 -33.5 -60.5t-32.5 -43.5q-13 -13 -37 -22zM135 489q0 13 3 25t5 27l4 20q0 -20 0.5 -38t6.5 -35 q-8 -2 -14 1h-5zM142 788l9 8v1l-4 4zM147 561q2 11 4 22.5t2 23.5v31t1 32q-2 -24 -4.5 -47t-2.5 -46v-11v-5zM151 796l6 6q4 -2 4 -16q0 -27 -2 -52t-4 -52q-1 -4 -1 -10v12t1 13q1 19 1.5 40.5t0.5 40.5q-2 2 -3 6q-1 2 -2 6t-1 6zM154 488q1 -6 2.5 -10t3.5 -9l16 25 q-2 0 -3.5 -0.5t-3.5 -0.5q-10 -4 -15 -5zM505 -37q9 4 20 9q9 4 22 10t28 13l63 30l32 -30l9 -9q-27 6 -49 6q-17 0 -34 -4.5t-35 -13.5q-25 -12 -43 -12h-9t-4 1zM601 226q4 -2 4 -3v3h-4zM605 226q2 9 13 17t26.5 14t34 10t36.5 6q-25 -6 -42 -15l-15 -7l-23 -9 q-8 -5 -15.5 -9.5t-14.5 -6.5zM631 32l7 -7q33 16 65.5 35t58.5 41.5t42.5 47.5t16.5 54q0 27 -11 43q7 -17 7 -37q0 -29 -19 -55t-47 -49t-60.5 -41.5t-59.5 -31.5zM679 -14q9 -8 20.5 -15t20.5 -12l9 -18l23 24q-14 5 -33.5 11.5t-39.5 9.5zM715 273l31 5h-5q-15 0 -26 -5 zM749 278h5q42 0 56 -32q-8 14 -24.5 21.5t-36.5 10.5z" />
<glyph unicode="&#xbe;" horiz-adv-x="1060" d="M-56 -239q11 53 42.5 99.5t71.5 86.5q35 36 70 72.5t69 74.5q-33 -41 -58 -72t-38 -50l-32 -56q-12 -24 -25.5 -46.5t-29 -43.5t-33 -37.5t-37.5 -27.5zM-3 579q9 -37 46 -45q14 -3 27.5 -5.5t25.5 -2.5q10 0 23.5 1.5t28.5 5t29 9t27 13.5q-15 -9 -34.5 -13t-38.5 -4h-7 h-30.5t-39 2t-33.5 6.5t-15 13.5q0 -1 10 3l-6 -1q1 0 2 1t2 1zM42 841q0 1 5 3.5t10 4.5l4 2l4 -1l49 -5q-2 -1 -6 -1q-10 -2 -22 -3t-23 -1h-14.5t-6.5 1zM54 856l7 -5l11 6zM93 684q1 -4 12 0t22 9q12 5 22 9t17 10q26 10 45 27t38 39q-2 -6 -7.5 -13.5t-13.5 -16.5 t-16.5 -17t-14.5 -14l-26 -26q25 -17 46 -37.5t21 -41.5q0 -20 -9.5 -34.5t-24.5 -22.5q13 8 21 21.5t8 30.5q0 23 -8.5 35.5t-23 19.5t-31.5 9l-34 4t-29 3t-14 6zM114 845q26 -4 53.5 -10t47.5 -16q-40 27 -84 27q-5 0 -9 -0.5t-8 -0.5zM197 94q71 78 137.5 158t131.5 165 l-118 -142q-85 -101 -151 -181zM215 819q24 -10 31 -22q-7 7 -15 12zM246 797q4 -5 4 -14v-1q0 -3 -1 -4l7 9zM466 417q27 36 52.5 71.5t49.5 73.5q47 76 98 154t99 153l44 64q14 25 36 40q5 -7 6.5 -15.5t1.5 -18.5q0 -12 -15.5 -40t-42.5 -66t-64 -87t-80 -102.5 t-90 -111.5t-95 -115zM540 37q0 2 18.5 23.5t43.5 48.5l-36 -50l32 -15q-8 -1 -12.5 -3t-8.5 -4q-12 -7 -21 -7q-16 0 -16 7zM598 44q35 -17 73 -30.5t67 -13.5q5 0 8 1q-14 10 -34 18.5t-40 14t-38 8t-28 2.5h-8zM602 109q3 2 5.5 5t5.5 6q28 30 53.5 58.5t36.5 42.5l-1 -1 l5 5l-18 -4l1 4zM734 -145l24 -18q0 15 2 29.5t5 30.5l5 25q-4 -11 -7.5 -21t-5.5 -16q-4 -14 -8 -20t-15 -10zM746 1q20 2 35 16t25 34q-9 -37 -18.5 -70t-17.5 -59q3 15 3 37q0 12 -8 23t-19 19zM806 51q8 16 14 35.5t10 39.5t6.5 39.5t4.5 36.5q-6 -31 -15 -71t-20 -80z M841 202q0 8 1 12l2 23v11v17v16l-1 7q4 0 4.5 -12.5t0.5 -20.5q0 -7 -2 -21.5t-5 -31.5z" />
<glyph unicode="&#xbf;" horiz-adv-x="901" d="M53 7q0 -75 81 -75q20 0 62 1.5t92 6.5t102.5 12.5t96 20t72 30t28.5 42.5q0 2 -4.5 2.5t-10.5 0.5q-43 0 -85.5 -11.5t-85.5 -28.5q-45 -15 -88.5 -28t-90.5 -14q-101 0 -113 67q16 53 47.5 99t72 85t85.5 70.5t90 57.5q43 25 81.5 48t68 45t46.5 43.5t17 41.5 q0 19 -5 42.5t-12 43.5q-13 -9 -21 -26.5t-14 -37.5q-8 -27 -19 -51.5t-35 -38.5h1q-19 -14 -42.5 -28t-49.5 -32q-57 -36 -122 -79t-119 -92t-90 -103.5t-36 -113.5zM534 879q0 -45 43 -45q28 0 43.5 17t22.5 44q-14 2 -27.5 3.5t-23.5 1.5h-19.5t-19 -2t-14 -6.5 t-5.5 -12.5zM643 895q2 4 2.5 8.5t1.5 9.5l19 -21q-4 0 -9.5 1t-8.5 1q-2 0 -2.5 0.5t-2.5 0.5z" />
<glyph unicode="&#xc0;" horiz-adv-x="1161" d="M-261 -230q4 0 7 0.5t6 0.5v-3q0 -3 2 -8l-1 3q2 -5 2.5 -7.5t0.5 -4.5zM-248 -229q1 14 17 21.5t31 9.5l102 65l-1 -1q105 59 204.5 122t196.5 142q-8 16 -13 31t-5 30q36 1 62 6t49.5 14t47 23.5t55.5 34.5q13 10 41.5 32t65 50.5t78.5 61t82.5 65t77 62t62.5 52.5 l36 31q11 8 17.5 14t13.5 14q5 6 10 11.5t9 10.5q6 6 17 12.5t28 6.5q4 0 7.5 -1t7.5 -3q-5 -20 -22 -53t-35 -63l-24 -46q-25 -50 -41.5 -93t-33.5 -89l-22 -56q15 -26 32 -33t31 -12t15 -2q-2 -14 -17.5 -18t-32.5 -6l-29 -4q-33 -44 -56 -98t-38.5 -112t-22.5 -117.5 t-7 -114.5q12 -6 21.5 -9.5t12.5 -3.5q20 0 36.5 7.5t30.5 15.5l18 10q2 -4 2 -7.5v-6.5q0 -18 -12.5 -29.5t-31 -17t-39 -8t-35.5 -2.5q-14 0 -20 1q-8 25 -13.5 49t-5.5 49q0 66 21 133t43 132l7 17v14q6 15 13 43l8 36q-126 0 -236.5 -14.5t-222.5 -34.5 q-12 -13 -41.5 -37.5t-62 -49.5t-62 -46.5t-43.5 -28.5q-20 -15 -41.5 -32t-43.5 -34v1q-34 -27 -69 -52.5t-72 -46t-76 -33.5t-82 -15zM478 210h54q60 0 117.5 4.5t112.5 9.5l60 5l16 41q5 15 10.5 29.5t10.5 24.5q17 36 31.5 72.5t14.5 76.5v6q0 10 -1.5 22.5t-20.5 37.5 q-45 -39 -83 -66t-76 -51q-31 -20 -61.5 -42t-61.5 -47t-61.5 -55t-61.5 -68zM882 1347q0 25 13 41.5t36 27.5q27 -18 45 -47t31 -61.5t20.5 -68t12.5 -67.5q-28 7 -56.5 26t-51 43.5t-36.5 52t-14 53.5zM924 1421l15 -1l-8 -4zM1046 1150l7 11l7 -15zM1051 688v1q0 4 1 0.5 t-1 -1.5zM1060 1146l11 -3l-6 -5zM1061 1134l4 4l3 -4h-7zM1071 1143l8 8v-10z" />
<glyph unicode="&#xc1;" horiz-adv-x="1079" d="M-317 -225q0 8 14 15.5t32 9.5l102 65l-1 -1q100 55 199.5 119t203.5 145q-22 35 -22 56l2 4q37 1 64 6t50 14t46 24t53 35h-1q15 10 45 32t67 50.5t79 61t82.5 65.5t76 63t60.5 53q18 17 26.5 24.5t14.5 11.5q8 7 14.5 11.5t11.5 10.5l17 20q7 7 17 12.5t30 5.5 q6 0 11 -8q-1 -10 -6.5 -24t-14 -29t-17.5 -30.5t-17 -31.5v1l-17 -30q-31 -68 -55 -127.5t-46 -125.5q14 -25 30 -31t31 -11q5 -2 9 -2.5t5 1.5q-1 -14 -18 -19.5t-35 -7.5l-23 -4q-34 -41 -58 -95t-39 -113t-22 -120t-7 -115q24 -10 45.5 -11t47.5 21q12 9 25 13 q2 -10 2 -16q0 -17 -13 -27.5t-31 -17t-38 -8.5t-35 -2t-21 1q-8 24 -13 47t-5 51q0 71 22 142.5t50 140.5v15l2 10q2 10 8 25.5t17 37.5q-67 0 -126.5 -4t-117 -10t-112.5 -14t-111 -17q-14 -13 -43 -39t-61 -52q-17 -14 -36 -27t-34 -24q-22 -13 -33 -26 q-27 -16 -52.5 -34.5t-52.5 -38.5q-20 -17 -41 -32t-44 -31h1q-24 -15 -49 -28.5t-51 -24.5q-23 -8 -44 -13t-33 -6q-15 2 -17 0v8zM404 208h58q71 0 144 5t147 12q7 24 14.5 48.5t20.5 45.5v3q17 36 31 71.5t14 75.5q0 2 0.5 3.5t0.5 3.5q1 11 -3.5 26.5t-21.5 36.5 q-44 -39 -85.5 -70t-82.5 -58q-29 -20 -57.5 -40.5t-57.5 -44.5t-59.5 -52.5t-62.5 -65.5zM1018 1191l9 -27l9 14q0 1 0.5 1t0.5 1l-2 2l1 -1q-4 2 -7.5 5t-10.5 5zM1037 1180q6 13 24 36.5t41.5 51t51.5 57t53.5 52.5t47 38t34.5 15q19 0 20 -23q0 -13 -14.5 -34.5 t-34 -44.5t-39.5 -43.5t-31 -32.5v-1l-28 -27q-10 -9 -22 -20t-22.5 -20t-18.5 -15t-12 -6q-14 0 -26 4.5t-24 12.5zM1190 1251l15 -29l-10 32z" />
<glyph unicode="&#xc2;" horiz-adv-x="1083" d="M-315 -238q1 14 16.5 23t33.5 11q101 59 176.5 106t124.5 78t99 67t102 76q-12 22 -16 36.5t-4 24.5q40 0 66.5 4.5t48.5 13.5t44.5 24.5t54.5 38.5l-1 -1q15 9 45 30.5t66.5 50.5t77.5 61.5t81 65.5t76 62.5t62 52.5q30 27 42 36q10 7 23 20q13 11 22 24l-1 -1 q6 8 17 14t28 6q3 0 6 -3l5 -5q-1 -20 -17.5 -51.5t-33.5 -60.5q-8 -12 -13.5 -21.5t-10.5 -19.5q-32 -66 -55 -124.5t-44 -122.5q14 -23 31.5 -29.5t32.5 -11.5q5 -2 9 -3t5 2q-1 -15 -18 -20t-35 -7l-24 -4q-33 -42 -56.5 -96.5t-39.5 -113t-23.5 -119t-7.5 -115.5 q14 -5 22.5 -7t14.5 -2q17 0 30.5 5.5t26.5 14.5q10 7 26 13q2 -4 2 -7.5v-6.5q0 -18 -13 -29.5t-31.5 -18t-38.5 -8t-34 -1.5h-10.5t-8.5 1q-9 24 -15.5 48.5t-6.5 49.5q0 55 15 109t33 114l23 72q3 7 6 16t5 16t6 18.5t11 27.5q-66 0 -125.5 -3.5t-116.5 -9.5t-112 -14.5 t-110 -19.5q-10 -9 -30 -26t-43.5 -36t-48 -38.5t-44.5 -34.5q-15 -11 -29 -21.5t-30 -19.5q-17 -11 -36 -25.5t-43 -31.5q-45 -36 -95.5 -69.5t-111.5 -59.5q-26 -11 -45 -16.5t-25 -1.5q-10 6 -13 3zM413 202h54q73 0 143.5 6t147.5 15q8 28 15.5 50t18.5 41v-1l19 38 q27 70 27 114v8q1 8 -1 23t-17 42q-48 -44 -89 -72.5t-80 -54.5q-59 -39 -119 -86t-119 -123zM624 817q0 7 9.5 15t25 15.5t33 15t32.5 14.5l29 11l92 62l78 52l-1 -1l-75 -63q-28 -23 -56 -46.5t-56 -48.5l-7 -6l1 1q-14 -13 -30 -25.5t-30 -12.5q-5 0 -12.5 1t-15 3.5 t-12.5 5.5t-5 7zM923 1002q14 9 28 18.5t28 20.5q-13 -8 -27.5 -17.5t-28.5 -21.5zM979 1041q43 31 80.5 62t63.5 58q3 4 12 9.5t16 5.5q-2 0 2 -18t9 -40q7 -28 10.5 -54t3.5 -32q4 -51 6 -100t2 -97q0 -17 -10 -30t-25 -13q-9 0 -15.5 8.5t-6.5 18.5q0 12 6 28 q2 10 4.5 21t2.5 21q0 55 -11 110t-44 115q-30 -24 -49.5 -37.5t-39.5 -24.5zM980 677v1v-1z" />
<glyph unicode="&#xc3;" horiz-adv-x="1089" d="M-315 -238q1 14 16 23t33 11q102 59 177.5 106t124.5 78t99 67t101 76q-11 22 -15 36.5t-4 24.5q40 0 66 4.5t48.5 13.5t45 24.5t54.5 38.5l-1 -1q15 9 44.5 30.5t66.5 50.5t78 61.5t81 65.5t76 62.5t62 52.5q14 13 24 21.5t18 14.5q10 7 23 20q6 6 12 12.5t10 11.5 l-1 -1q6 8 17 14t28 6q3 0 6 -3l5 -5q-1 -20 -17.5 -51.5t-33.5 -60.5q-15 -25 -24 -41q-32 -66 -55 -124.5t-44 -122.5q14 -23 31.5 -29.5t31.5 -11.5q13 -4 15 -1q-1 -15 -18 -20t-36 -7l-23 -4q-33 -42 -56.5 -96.5t-39.5 -113t-23.5 -119t-7.5 -115.5q14 -5 22.5 -7 t14.5 -2q17 0 30.5 5.5t26.5 14.5q6 4 12 7t14 6q2 -4 2 -7.5v-6.5q0 -18 -13 -29.5t-31.5 -18t-38.5 -8t-34 -1.5h-10.5t-8.5 1q-9 24 -15.5 48.5t-6.5 49.5q0 55 15 109t33 114l23 72q3 7 6 16t5 16t6 18.5t10 27.5q-66 0 -125.5 -3.5t-116.5 -9.5t-111.5 -14.5 t-110.5 -19.5q-9 -9 -29 -26t-43.5 -36t-48.5 -38.5t-45 -34.5q-14 -11 -28 -21.5t-30 -19.5q-17 -11 -36 -25.5t-43 -31.5q-45 -36 -95.5 -69.5t-111.5 -59.5q-27 -11 -45.5 -16.5t-24.5 -1.5q-11 5 -13 3zM413 202h54q73 0 143.5 6t147.5 15q8 28 15.5 50t18.5 41v-1 l19 38q27 74 27 114v8q1 8 -1 23t-17 42q-48 -44 -89 -72.5t-80 -54.5q-59 -39 -119.5 -86t-118.5 -123zM741 909q6 2 13 2v4l1 3q0 1 0.5 4t0.5 4zM754 911q8 2 16 2t17 1l25 2q-13 -5 -25.5 -9t-23.5 -4q-7 0 -9 8zM812 916q9 1 20 3t22 6q12 3 27 7.5t26 9.5l25 10h-5 q-26 0 -48.5 -8t-42.5 -18v1zM933 952q8 2 16.5 4t17.5 2q-1 0 2 -5.5t7 -11.5q10 -17 26.5 -36.5t41.5 -31.5q-30 3 -41.5 15.5t-18.5 24.5l1 -1q-9 14 -19 26t-33 14zM980 677v1v-1zM1044 873q10 -5 21.5 -7.5t25.5 -2.5t26.5 4.5t26.5 13.5q-23 -5 -45 -7t-34 -2h-10 t-11 1zM1144 881q10 5 20 11.5t19 12.5q6 5 11 9.5t10 6.5q-1 -16 -18.5 -25.5t-41.5 -14.5zM1204 921q2 2 3.5 2.5t2.5 1.5q-2 0 -3 -0.5t-2 -0.5h-1v-2v-1z" />
<glyph unicode="&#xc4;" horiz-adv-x="1077" d="M-315 -238q1 14 16.5 23t33.5 11q101 59 176.5 106t124.5 78t99 67t101 76q-11 22 -15 36.5t-4 24.5q40 0 66 4.5t48.5 13.5t45 24.5t54.5 38.5l-1 -1q15 9 45 30.5t66.5 50.5t77.5 61.5t81 65.5t76 62.5t62 52.5q14 13 24 21.5t18 14.5q10 7 23 20q6 6 12 12.5t10 11.5 l-1 -1q6 8 17 14t28 6q3 0 6 -3l5 -5q-1 -20 -17.5 -51.5t-33.5 -60.5q-15 -25 -24 -41q-32 -66 -55 -124.5t-44 -122.5q14 -23 31.5 -29.5t31.5 -11.5q13 -4 15 -1q-1 -15 -18 -20t-35 -7l-24 -4q-33 -42 -56.5 -96.5t-39.5 -113t-23.5 -119t-7.5 -115.5q14 -5 22.5 -7 t14.5 -2q17 0 30.5 5.5t26.5 14.5q10 7 26 13q2 -4 2 -7.5v-6.5q0 -18 -13 -29.5t-31.5 -18t-38.5 -8t-34 -1.5h-10.5t-8.5 1q-9 24 -15.5 48.5t-6.5 49.5q0 55 15 109t33 114l23 72q3 7 6 16t5 16t6 18.5t10 27.5q-66 0 -125.5 -3.5t-116.5 -9.5t-111.5 -14.5t-110.5 -19.5 q-9 -9 -29 -26t-43.5 -36t-48.5 -38.5t-45 -34.5q-14 -11 -28 -21.5t-30 -19.5q-17 -11 -36 -25.5t-43 -31.5q-45 -36 -95.5 -69.5t-111.5 -59.5q-27 -11 -45.5 -16.5t-24.5 -1.5q-11 5 -13 3zM413 202h54q73 0 143.5 6t147.5 15q8 28 15.5 50t18.5 41v-1l19 38 q27 74 27 114v8q1 8 -1 23t-17 42q-48 -44 -89 -72.5t-80 -54.5q-59 -39 -119.5 -86t-118.5 -123zM750 895q0 10 6.5 16.5t16.5 9.5t21.5 4t20.5 1q13 0 29 -3t34 -7l3 -1q-7 -12 -10 -20t-3 -13q-1 -1 -8.5 -3t-24.5 -6l-22 -4v-4q-24 -16 -45 -29q-4 2 -7.5 9.5t-5.5 16.5 t-3.5 18.5t-1.5 14.5zM813 865l1 1l9 -32h-7zM881 915q4 9 12 23l12 -27zM980 677v1v-1zM1050 889q0 10 6 15.5t15.5 8.5t21 4t20.5 1q30 0 75 -10q-2 -24 -15 -30t-26 -7q-8 -2 -17 -3.5t-26 -12.5l-38 -28q-3 3 -5.5 11.5t-5 18t-4 18.5t-1.5 14zM1188 908v14l13 -18z" />
<glyph unicode="&#xc5;" horiz-adv-x="1083" d="M-315 -238q1 14 16 23t33 11q101 59 177 106t124 78q49 31 99.5 67t101.5 76q-11 22 -15 36.5t-4 24.5q40 0 66 4.5t48.5 13.5t45 24.5t54.5 38.5l-1 -1q15 9 44.5 30.5t66.5 50.5t78 61.5t81 65.5t75.5 62.5t61.5 52.5q15 13 25 21.5t17 14.5q11 7 24 20q6 6 11.5 12.5 t10.5 11.5l-1 -1q6 8 17 14t28 6q3 0 6 -3l5 -5q-1 -20 -17.5 -51.5t-33.5 -60.5q-8 -12 -13.5 -21.5t-10.5 -19.5q-32 -66 -55.5 -124.5t-43.5 -122.5q14 -23 31.5 -29.5t31.5 -11.5q5 -2 9.5 -3t5.5 2q-1 -15 -18 -20t-36 -7l-23 -4q-33 -42 -56.5 -96.5t-39.5 -113 t-23.5 -119t-7.5 -115.5q14 -5 22 -7t15 -2q17 0 30.5 5.5t26.5 14.5q6 4 12 7t14 6q2 -4 2 -7.5v-6.5q0 -18 -13 -29.5t-31.5 -18t-38.5 -8t-34 -1.5h-11t-9 1q-8 24 -14.5 48.5t-6.5 49.5q0 55 14.5 109t33.5 114l23 72q3 7 6 16t5 16t6 18.5t10 27.5q-66 0 -125.5 -3.5 t-116.5 -9.5t-111.5 -14.5t-110.5 -19.5q-9 -9 -29 -26t-43.5 -36t-48.5 -38.5t-45 -34.5q-14 -11 -28.5 -21.5t-29.5 -19.5q-17 -11 -36 -25.5t-43 -31.5q-45 -36 -95.5 -69.5t-111.5 -59.5q-27 -11 -45.5 -16.5t-25.5 -1.5q-10 5 -12 3zM412 202h55q73 0 143.5 6t147.5 15 q8 28 15.5 50t17.5 41v-1l20 38q26 71 26 114v8q1 8 -1 23t-16 42q-48 -44 -89 -72.5t-80 -54.5q-59 -39 -119.5 -86t-119.5 -123zM834 899q18 31 50 58t70 47.5t77 32.5t72 12q23 0 46 -4t42.5 -14t32 -27.5t12.5 -45.5q0 -33 -24.5 -56t-58.5 -38.5t-70 -23t-61 -7.5 q-27 0 -50.5 2t-46.5 8.5t-45.5 20t-45.5 35.5zM854 900q0 19 14.5 37.5t37 35t51 30t57 23t54.5 15.5t43 6q24 0 46.5 -5t39.5 -15.5t28 -28.5t11 -45q0 -31 -26.5 -52.5t-63.5 -35.5t-77 -20t-65 -6q-19 0 -45 1t-49 7t-39.5 18.5t-16.5 34.5zM980 677v1v-1z" />
<glyph unicode="&#xc6;" horiz-adv-x="1632" d="M-204 -96q17 49 47 92t64 87l46 63l-105 35q1 29 15.5 40t42.5 20q43 11 73.5 31.5t53 45t38.5 52t28 52.5q16 32 31 55t36 23q28 0 53 -24q37 19 74 50t74 69.5t75.5 82.5t77.5 89q49 58 98.5 114t96 100.5t88.5 71t77 26.5q2 0 5.5 -0.5t7.5 -0.5q-12 -63 -32 -124 t-45 -121t-53.5 -118.5t-56.5 -115.5l-23 -43l32 -32q41 34 72.5 71.5t56.5 77.5t45.5 82.5t40.5 85.5q4 9 12 25t13 25q23 27 61 42t81 23.5t86.5 11t76.5 2.5q69 0 135.5 -13.5t131.5 -32.5q-47 -10 -102 -11q-24 0 -49 2.5t-49 4.5q-20 3 -44.5 3.5t-45.5 0.5h-15 q-77 0 -139 -41t-112.5 -102t-90.5 -131t-71 -129q28 -8 54.5 -13t51.5 -9q22 -3 45 -7.5t45.5 -9t42 -9t33.5 -10.5q-34 -10 -72 -18l-76 -16q-70 -13 -136.5 -31t-119 -54t-85 -95.5t-32.5 -155.5q0 -43 18.5 -74t48.5 -52t68 -34t78.5 -19.5t79 -8t69.5 -1.5q27 0 52.5 2 t49.5 5q23 2 48 4.5t45 2.5q17 0 37.5 -2t34.5 -8q-28 -5 -66 -7.5t-77 -4.5q-54 -3 -105.5 -4.5t-83.5 -1.5q-79 0 -154.5 13t-148.5 57q-9 0 -25.5 1t-32 4t-26.5 8t-11 14q0 40 14 83q9 22 13 45.5t4 49.5q0 11 -4.5 22t-9.5 22l1 -3l-12 30q-44 18 -84 23t-83 5h-58 q-67 0 -113.5 -18.5t-80.5 -48t-57 -66.5t-42 -74q-12 -24 -27.5 -47.5t-34 -44.5t-40.5 -37.5t-49 -23.5zM126 310q16 -4 43 -10t42 -11q46 -14 90.5 -24.5t93.5 -10.5q16 0 28.5 1.5t23.5 4.5t21.5 7.5t25.5 12.5q10 6 32 39t49.5 80t58 103t57 107t46.5 91t27 58 q23 55 36.5 110.5t13.5 117.5l-29 20q-48 -33 -107.5 -83t-122.5 -109.5t-127 -126t-121 -133t-104 -129.5t-77 -115zM893 1078l5 20l17 -21h-10.5t-10.5 1h-1z" />
<glyph unicode="&#xc7;" horiz-adv-x="1077" d="M-13 257q0 65 30.5 143.5t83 159t120 156t141 133.5t149 93.5t140.5 35.5q167 0 167 -159q0 -40 -4 -81t-9 -83q-15 4 -22.5 7t-19.5 7q-3 5 -5.5 8t-4.5 8q8 31 13.5 64t5.5 66q0 117 -123 117q-68 0 -140.5 -33t-142 -87t-131.5 -125t-108.5 -147t-74 -152.5 t-27.5 -140.5q0 -70 36 -118.5t91.5 -80.5t120.5 -46t122 -14h71q-20 -2 -39 -2h-40l57 -67q15 -17 16 -28q0 -35 -19 -67.5t-49 -59t-65.5 -45t-70.5 -25.5h1q20 18 44 41t44.5 46t33.5 42t13 29q0 22 -18.5 39.5t-38.5 34.5q-15 11 -28 24.5t-15 34.5q-65 6 -120.5 25 t-96.5 51.5t-64.5 81t-23.5 114.5zM226 -310q8 -1 9.5 -4.5t-4.5 -14.5l25 23q-7 -2 -15 -2.5t-15 -1.5zM229 -333l2 4zM466 -12q73 2 145.5 9t143.5 23q27 7 56.5 16.5t59.5 20.5h-1l41 15l-4 11l-13 -5q-96 -28 -203 -55t-225 -35z" />
<glyph unicode="&#xc8;" horiz-adv-x="929" d="M-315 89q0 3 1 7.5t3 9.5q74 29 151.5 35.5t154.5 9.5q45 1 89 2.5t91 7.5q31 47 52 86t41 78l25 49q11 33 29 70.5t39 73.5q10 -1 24 -16l3 -3q-26 -78 -72 -157l-3 1l-28 -60v1q-5 -10 -10 -18.5t-10 -19t-11 -25.5t-13 -38q26 -4 37.5 -4.5t22.5 -0.5h10q40 0 78 3 t76 7q30 4 60.5 7.5t60.5 4.5q-5 -5 -10.5 -8t-12.5 -7q-18 -6 -40 -11.5t-46 -9.5l-40 -6t-40 -5q-27 -5 -51 -8.5t-45 -8.5l-99 -16q-2 -35 -10.5 -58t-19.5 -45q-12 -27 -23 -55t-11 -61q0 -61 52 -77q17 -7 26.5 -7.5t20.5 -0.5h9q59 0 127 9.5t138.5 25t140.5 34.5 t135 37l65 20q-19 -15 -48 -30t-63 -28.5t-72 -26t-76 -23.5q-50 -14 -102 -25.5t-98 -19.5t-82.5 -12.5t-56.5 -4.5q-31 0 -58.5 5t-48.5 17.5t-34 35t-13 55.5q0 27 10 62t21 66q8 23 13.5 40t6.5 28l21 43q-111 -7 -221 -17t-225 -27l24 -44q-2 -1 -4 -0.5t-4 0.5 q-20 0 -38.5 15t-18.5 38zM-250 36q3 0 7 2q0 1 0.5 1.5t0.5 1.5v-17zM-84 613l16 -4q2 -1 3 -1q0 -3 -0.5 -6.5t-0.5 -6.5zM-65 608q4 29 26 44.5t50 22.5t59 8t56 1q56 0 111.5 -3.5t111.5 -10.5q55 -7 111.5 -11t114.5 -4h18l16 -11h27.5t31 -0.5t30 -0.5h24.5 q33 -1 58.5 -1h44.5h30t18 1q7 1 16.5 0.5t16.5 -1.5q10 -1 19.5 -3.5t19.5 -10.5q-18 -6 -32 -8.5t-31 -2.5q-53 0 -106 5t-105 10l-42 4q-177 12 -354 12h-16q-49 0 -104 -1t-103 -9q-14 -2 -26.5 -6t-26.5 -9q-14 -6 -29.5 -11.5t-29.5 -5.5q2 0 -5 2zM186 -174l7 32h11 l-3 -36l-11 2q-2 2 -4 2zM310 331l6 11l27 -6v-13zM386 508l35 5v-47l-33 33q1 1 0.5 1.5t0.5 1.5zM388 993q0 24 14 41.5t37 28.5q25 -15 43 -44t30.5 -63t21 -70.5t11.5 -67.5q-27 7 -55 26.5t-50.5 44t-37 52t-14.5 52.5zM433 1067l14 -1l-8 -3z" />
<glyph unicode="&#xc9;" horiz-adv-x="894" d="M-315 89q0 3 1 7.5t3 9.5q74 29 151.5 35.5t154.5 9.5q45 1 89 2.5t91 7.5q31 47 52 86t41 78l25 49q11 33 29 70.5t39 73.5q10 -1 24 -16l3 -3q-26 -78 -72 -157l-3 1l-28 -60v1q-5 -10 -10 -18.5t-10 -19t-11 -25.5t-13 -38q26 -4 37.5 -4.5t22.5 -0.5h10q40 0 78 3 t76 7q30 4 60.5 7.5t60.5 4.5q-5 -5 -10.5 -8t-12.5 -7q-18 -6 -40 -11.5t-46 -9.5l-40 -6t-40 -5q-27 -5 -51 -8.5t-45 -8.5l-99 -16q-2 -35 -10.5 -58t-19.5 -45q-12 -27 -23 -55t-11 -61q0 -61 52 -77q17 -7 26.5 -7.5t20.5 -0.5h9q59 0 127 9.5t138.5 25t140.5 34.5 t135 37l65 20q-19 -15 -48 -30t-63 -28.5t-72 -26t-76 -23.5q-50 -14 -102 -25.5t-98 -19.5t-82.5 -12.5t-56.5 -4.5q-31 0 -58.5 5t-48.5 17.5t-34 35t-13 55.5q0 27 10 62t21 66q8 23 13.5 40t6.5 28l21 43q-111 -7 -221 -17t-225 -27l24 -44q-2 -1 -4 -0.5t-4 0.5 q-20 0 -38.5 15t-18.5 38zM-250 36l8 -12v17q0 -1 -0.5 -1.5t-0.5 -1.5q-4 -2 -7 -2zM-84 613l18 -18q0 3 0.5 6.5t0.5 6.5q-1 0 -3 1zM-65 608q4 29 26 44.5t50 22.5t59 8t56 1q56 0 111.5 -3.5t111.5 -10.5q55 -7 111.5 -11t114.5 -4h18l16 -11h27.5t31 -0.5t30 -0.5h24.5 q33 -1 58.5 -1h44.5h30t18 1q7 1 16.5 0.5t16.5 -1.5q10 -1 19.5 -3.5t19.5 -10.5q-18 -6 -32 -8.5t-31 -2.5q-53 0 -106 5t-105 10l-42 4q-177 12 -354 12h-16q-49 0 -104 -1t-103 -9q-14 -2 -26.5 -6t-26.5 -9q-14 -6 -29.5 -11.5t-29.5 -5.5q2 0 -5 2zM186 -174q2 0 4 -2 l11 -2l3 36h-11zM310 331l33 -8v13l-27 6zM386 508l3 -6q-1 -1 -0.5 -1.5t-0.5 -1.5l33 -33v47zM644 835l1 -4v2q-1 0 -1 2zM645 833l3 3q7 10 25 27t41 37t48.5 39t49 34.5t41 24.5t25.5 7q2 -1 0.5 -8t-4.5 -14q-5 -11 -17 -24.5t-27.5 -27t-32 -27t-29.5 -23.5l-22 -18 v-2l-25 -15q-9 -6 -19 -13t-18 -12.5t-14 -9t-7 -3.5l1 -1q-5 2 -10 9t-9 17zM746 861l13 -28l-8 32q-1 0 -1.5 -1.5t-3.5 -2.5zM751 865v1q1 0 0 -1z" />
<glyph unicode="&#xca;" horiz-adv-x="888" d="M-315 89q0 3 1 7.5t3 9.5q74 29 151.5 35.5t154.5 9.5q45 1 89 2.5t91 7.5q31 47 52 86t41 78l25 49q11 33 29 70.5t39 73.5q10 -1 24 -16l3 -3q-26 -78 -72 -157l-3 1l-28 -60v1q-5 -10 -10 -18.5t-10 -19t-11 -25.5t-13 -38q26 -4 37.5 -4.5t22.5 -0.5h10q40 0 78 3 t76 7q30 4 60.5 7.5t60.5 4.5q-5 -5 -10.5 -8t-12.5 -7q-18 -6 -40 -11.5t-46 -9.5l-40 -6t-40 -5q-27 -5 -51 -8.5t-45 -8.5l-99 -16q-2 -35 -10.5 -58t-19.5 -45q-12 -27 -23 -55t-11 -61q0 -61 52 -77q17 -7 26.5 -7.5t20.5 -0.5h9q59 0 127 9.5t138.5 25t140.5 34.5 t135 37l65 20q-19 -15 -48 -30t-63 -28.5t-72 -26t-76 -23.5q-50 -14 -102 -25.5t-98 -19.5t-82.5 -12.5t-56.5 -4.5q-31 0 -58.5 5t-48.5 17.5t-34 35t-13 55.5q0 27 10 62t21 66q8 23 13.5 40t6.5 28l21 43q-111 -7 -221 -17t-225 -27l24 -44q-2 -1 -4 -0.5t-4 0.5 q-20 0 -38.5 15t-18.5 38zM-250 36q3 0 7 2q0 1 0.5 1.5t0.5 1.5v-17zM-84 613l16 -4q2 -1 3 -1q0 -3 -0.5 -6.5t-0.5 -6.5zM-65 608q4 29 26 44.5t50 22.5t59 8t56 1q56 0 111.5 -3.5t111.5 -10.5q55 -7 111.5 -11t114.5 -4h18l16 -11h27.5t31 -0.5t30 -0.5h24.5 q33 -1 58.5 -1h44.5h30t18 1q7 1 16.5 0.5t16.5 -1.5q10 -1 19.5 -3.5t19.5 -10.5q-18 -6 -32 -8.5t-31 -2.5q-53 0 -106 5t-105 10l-42 4q-177 12 -354 12h-16q-49 0 -104 -1t-103 -9q-14 -2 -26.5 -6t-26.5 -9q-14 -6 -29.5 -11.5t-29.5 -5.5q2 0 -5 2zM186 -174l7 32h11 l-3 -36l-11 2q-2 2 -4 2zM310 331l6 11l27 -6v-13zM368 877q0 6 9.5 14t25 15.5t33 15t32.5 13.5l32 12l55 37h-1q25 17 52.5 34.5t56.5 38.5l-72 -60q-28 -24 -55.5 -47t-55.5 -49q-14 -13 -32 -27t-35 -14q-4 0 -12 1t-15 3t-12.5 5t-5.5 8zM386 508l35 5v-47l-33 33 q1 1 0.5 1.5t0.5 1.5zM663 1057l3 3q14 13 28 22.5t28 17.5q-14 -11 -29 -22t-30 -21zM722 1100q77 55 144 120q8 5 16.5 9t14.5 5q-1 -2 1.5 -18.5t7.5 -37.5q5 -28 9.5 -54.5t4.5 -31.5q4 -52 6 -101t2 -98q0 -16 -9 -29.5t-25 -13.5q-11 0 -17 9t-6 20q0 9 1.5 16.5 t4.5 15.5v-1l4.5 18t2.5 19q0 55 -10 109.5t-43 115.5q-27 -23 -47 -36t-41 -24zM847 1247h45l-26 -27l-8 -6z" />
<glyph unicode="&#xcb;" horiz-adv-x="886" d="M-315 89q0 3 1 7.5t3 9.5q74 29 151.5 35.5t154.5 9.5q45 1 89 2.5t91 7.5q31 47 52 86t41 78l25 49q11 33 29 70.5t39 73.5q10 -1 24 -16l2 -3q-12 -39 -30.5 -78.5t-40.5 -78.5l-3 1l-28 -60v1q-5 -10 -10 -18.5t-10 -19t-11 -25.5t-13 -38q26 -4 37.5 -4.5t22.5 -0.5 h10q40 0 78 3t76 7q30 4 60.5 7.5t60.5 4.5q-5 -5 -10.5 -8t-12.5 -7q-18 -6 -40 -11.5t-46 -9.5l-40 -6t-40 -5q-27 -5 -51 -8.5t-45 -8.5l-99 -16q-2 -35 -10.5 -58t-19.5 -45q-12 -27 -23 -55t-11 -61q0 -61 52 -77q17 -7 26.5 -7.5t20.5 -0.5h9q59 0 127 9.5t138.5 25 t140.5 34.5t135 37l64 20q-19 -15 -47.5 -30t-62.5 -28.5t-72 -26t-76 -23.5q-50 -14 -102 -25.5t-98 -19.5t-82.5 -12.5t-56.5 -4.5q-31 0 -58.5 5t-48.5 17.5t-34 35t-13 55.5q0 27 10 62t21 66q8 23 13.5 40t6.5 28l21 43q-111 -7 -221 -17t-225 -27l24 -44 q-2 -1 -4 -0.5t-4 0.5q-22 0 -39.5 15t-17.5 38zM-250 36q2 0 6 2q0 1 0.5 1.5t0.5 1.5v-17zM-84 613l16 -4q2 -1 3 -1q0 -3 -0.5 -6.5t-0.5 -6.5zM-65 608q4 29 26 44.5t50 22.5t59 8t56 1q56 0 111.5 -3.5t111.5 -10.5q55 -7 111.5 -11t114.5 -4h18l16 -11q24 0 58 -0.5 t55 -0.5q33 -1 58.5 -1h44.5h30t18 1q7 1 16 0.5t17 -1.5q10 -1 19.5 -3.5t19.5 -10.5q-18 -6 -32 -8.5t-31 -2.5q-54 0 -106.5 5t-104.5 10l-42 4q-177 12 -354 12h-16q-49 0 -104 -1t-104 -9q-14 -2 -26 -6t-26 -9q-14 -6 -29.5 -11.5t-29.5 -5.5q2 0 -5 2zM186 -174l7 32 h11l-3 -36l-11 2q-2 2 -4 2zM310 331l6 11l27 -6v-13zM386 508l35 5v-47l-34 33q1 1 0.5 1.5t0.5 1.5zM507 901q0 10 7 17t17.5 10.5t22 4.5t19.5 1q17 0 34 -3t32 -7q-11 -22 -11 -36q-1 -1 -8.5 -2t-25.5 -5l-24 -4q-11 -7 -22 -16.5t-23 -17.5q-5 2 -8 9.5t-5.5 17 t-3.5 18t-1 13.5zM639 924q2 5 5 9.5t6 10.5l10 -25zM807 895q0 10 6 16.5t16 9t21 3t21 0.5q30 0 75 -10q-1 -14 -6 -21.5t-11 -10.5q-7 -2 -22 -6t-37 -8l-46 -34q-3 3 -6 11t-5.5 17.5t-4 18.5t-1.5 14zM946 914v14l13 -17z" />
<glyph unicode="&#xcc;" d="M-85 -37q2 12 13.5 16.5t25.5 4.5h45q10 0 21 -0.5t22 -1.5h30q60 0 126.5 2t142.5 14q0 5 0.5 19t0.5 22q3 57 8 135.5t15.5 161.5t26.5 162t39 138q5 14 17 34t25 42q-37 4 -67 6t-54 2h-9q-35 0 -77 -1.5t-83 -9.5q-24 -5 -45.5 -13t-40.5 -19.5t-34 -28.5t-22 -41 l2 -28q0 -4 -2 -11q-6 4 -9 14t-4.5 20.5t-2 21t-0.5 15.5q0 35 28 57t67.5 34t81 17t68.5 5q31 0 61.5 -3t63.5 -6t67 -6t72 -3q12 0 24 0.5t26 0.5h46q31 0 60.5 -1.5t59.5 -7.5q-20 -16 -46 -18t-56 -2h-44q-22 0 -41 6q-24 -3 -64 -3q0 -47 -19 -87q-8 -18 -14.5 -38 t-13.5 -40v1q-42 -111 -61.5 -225t-19.5 -235v-79q51 0 95.5 3.5t83.5 10.5q78 15 158 16q15 0 24 -5q-3 -11 -11 -18t-19 -10.5t-22 -5t-21 -1.5l-17 -2q-31 -4 -68.5 -10.5t-75 -16.5t-71.5 -26t-56 -39q-1 1 -5 9l-9 14l-11 25q-43 0 -76 -2.5t-66 -5.5q-32 -3 -63 -6.5 t-61 -3.5q-8 0 -21 0.5t-21 0.5q-13 1 -25.5 1h-24.5q-66 10 -73 29zM38 562l3 6q2 -2 7 -2zM308 1121q0 26 13.5 43.5t35.5 27.5q26 -17 45 -46t31.5 -62.5t21 -68.5t11.5 -66q-28 7 -55.5 25.5t-50.5 42.5t-37.5 51.5t-14.5 52.5zM350 1197l17 -1l-10 -4zM750 726 q3 2 5.5 5t5.5 6l12 -16q-6 2 -11.5 3t-11.5 2z" />
<glyph unicode="&#xcd;" d="M-85 -37q2 12 13.5 16.5t25.5 4.5h45q10 0 20.5 -0.5t22.5 -1.5h29q60 0 126.5 2t143.5 14q0 5 0.5 19t0.5 22q3 57 8 135.5t15.5 161.5t26.5 162t39 138q5 14 16.5 34t25.5 42q-37 4 -67 6t-54 2h-9q-35 0 -77.5 -1.5t-82.5 -9.5q-24 -5 -45.5 -13t-40.5 -19.5 t-34 -28.5t-22 -41l2 -28q0 -4 -2 -11q-6 4 -9.5 14t-5 20.5t-2 21t-0.5 15.5q0 35 28 57t67.5 34t81.5 17t69 5q31 0 61.5 -3t63.5 -6t67 -6t70 -3q13 0 25.5 0.5t26.5 0.5h46q31 0 60.5 -1.5t58.5 -7.5q-20 -16 -45.5 -18t-55.5 -2h-44q-23 0 -41 6q-24 -3 -65 -3 q0 -25 -5 -46t-13 -41q-8 -18 -14.5 -38t-14.5 -40v1q-81 -218 -81 -460v-79q52 0 96 3.5t84 10.5q78 15 157 16q16 0 25 -5q-3 -11 -11 -18t-19 -10.5t-22.5 -5t-21.5 -1.5l-16 -2q-31 -4 -68.5 -10.5t-75.5 -16.5t-72 -26t-56 -39q-1 1 -5 9l-8 14l-11 25 q-43 0 -76.5 -2.5t-66.5 -5.5q-31 -3 -62 -6.5t-61 -3.5q-8 0 -21 0.5t-21 0.5q-13 1 -25.5 1h-25.5q-34 5 -51 12t-21 17zM38 562l10 4q-5 0 -7 2zM532 966l13 -24l6 14l-4 3zM551 956q5 7 15.5 21t28.5 37q17 22 36 43t40 43q23 24 43 42.5t39 34.5q18 14 31 21.5t21 7.5 q19 0 19 -22q0 -14 -14 -36.5t-33.5 -45.5t-39.5 -44t-31 -32q-5 -4 -12.5 -11t-15.5 -16q-10 -10 -21.5 -20.5t-22 -19.5t-19.5 -14.5t-14 -5.5q-13 0 -25.5 4.5t-24.5 12.5zM706 1026l15 -30l-10 32zM749 726q7 -1 12.5 -2t11.5 -3l-12 16q-3 -3 -5.5 -6t-6.5 -5z" />
<glyph unicode="&#xce;" d="M-85 -37q2 12 13.5 16.5t25.5 4.5h45q10 0 21 -0.5t22 -1.5h30q60 0 126.5 2t142.5 14q0 5 0.5 19t0.5 22q3 57 8 135.5t15.5 161.5t26.5 162t39 138q5 14 17 34t25 42q-37 4 -67 6t-54 2h-9q-35 0 -77 -1.5t-83 -9.5q-24 -5 -45.5 -13t-40.5 -19.5t-34 -28.5t-22 -41 l2 -28q0 -4 -2 -11q-6 4 -9 14t-4.5 20.5t-2 21t-0.5 15.5q0 35 28 57t67.5 34t81 17t68.5 5q31 0 61.5 -3t63.5 -6t67 -6t72 -3q12 0 24 0.5t26 0.5h46q31 0 60.5 -1.5t59.5 -7.5q-20 -16 -46 -18t-56 -2h-44q-22 0 -41 6q-24 -3 -64 -3q0 -47 -19 -87q-8 -18 -14.5 -38 t-13.5 -40v1q-42 -111 -61.5 -225t-19.5 -235v-79q51 0 95.5 3.5t83.5 10.5q78 15 158 16q15 0 24 -5q-3 -11 -11 -18t-19 -10.5t-22 -5t-21 -1.5l-17 -2q-31 -4 -68.5 -10.5t-75 -16.5t-71.5 -26t-56 -39q-1 1 -5 9l-9 14l-11 25q-43 0 -76 -2.5t-66 -5.5q-32 -3 -63 -6.5 t-61 -3.5q-8 0 -21 0.5t-21 0.5q-13 1 -25.5 1h-24.5q-66 10 -73 29zM38 562l10 4q-5 0 -7 2zM145 920q0 6 9 13t22 14t29.5 14t31.5 13q10 5 20.5 9.5t21.5 11.5q29 17 66.5 42t78.5 53l-45 -38q-31 -27 -61 -52.5t-60 -53.5l-15 -12q-13 -10 -26.5 -20.5t-26.5 -10.5 q-5 0 -12.5 1t-14.5 3.5t-12.5 5.5t-5.5 7zM424 1090l78 55q-16 -8 -31 -18t-30 -22zM502 1145q47 36 91 72t78 73h-45l10 -33q8 5 20 13.5t16 8.5q-2 0 2 -18.5t9 -40.5q6 -28 10.5 -54t4.5 -31q4 -49 5.5 -100t1.5 -101q0 -14 -9.5 -27.5t-23.5 -13.5q-11 0 -18 9.5 t-7 19.5q0 7 2 14.5t4 15.5q3 9 6.5 18.5t3.5 19.5q0 55 -11.5 110t-44.5 117q-30 -26 -50 -39t-39 -24zM750 726q6 -1 11.5 -2t11.5 -3l-12 16q-3 -3 -5.5 -6t-5.5 -5z" />
<glyph unicode="&#xcf;" d="M-85 -37q2 12 13.5 16.5t25.5 4.5h45q10 0 21 -0.5t22 -1.5h30q60 0 126.5 2t142.5 14q0 5 0.5 19t0.5 22q3 57 8 135.5t15.5 161.5t26.5 162t39 138q5 14 17 34t25 42q-37 4 -67 6t-54 2h-9q-35 0 -77 -1.5t-83 -9.5q-24 -5 -45.5 -13t-40.5 -19.5t-34 -28.5t-22 -41 l2 -28q0 -4 -2 -11q-6 4 -9 14t-4.5 20.5t-2 21t-0.5 15.5q0 35 28 57t67.5 34t81 17t68.5 5q31 0 61.5 -3t63.5 -6t67 -6t72 -3q12 0 24 0.5t26 0.5h46q31 0 60.5 -1.5t59.5 -7.5q-20 -16 -46 -18t-56 -2h-44q-22 0 -41 6q-24 -3 -64 -3q0 -47 -19 -87q-8 -18 -14.5 -38 t-13.5 -40v1q-42 -111 -61.5 -225t-19.5 -235v-79q51 0 95.5 3.5t83.5 10.5q78 15 158 16q15 0 24 -5q-3 -11 -11 -18t-19 -10.5t-22 -5t-21 -1.5l-17 -2q-31 -4 -68.5 -10.5t-75 -16.5t-71.5 -26t-56 -39q-1 1 -5 9l-9 14l-11 25q-43 0 -76 -2.5t-66 -5.5q-32 -3 -63 -6.5 t-61 -3.5q-8 0 -21 0.5t-21 0.5q-13 1 -25.5 1h-24.5q-66 10 -73 29zM38 562l3 6q2 -2 7 -2zM262 1061q0 10 7 16t17.5 9.5t23 4.5t21.5 1q16 0 32.5 -3.5t31.5 -7.5q-6 -13 -8 -20t-3 -12q-1 -2 -6 -3.5t-23 -5.5l-26 -6l-48 -34q-5 2 -8.5 10t-6 17t-3.5 18.5t-1 15.5z M395 1081q2 5 5.5 10t8.5 11l9 -26q-5 1 -11 2.5t-12 2.5zM562 1053q0 11 6.5 17t16.5 9t21.5 3.5t20.5 0.5q36 0 75 -9q0 -24 -12.5 -30t-26.5 -8q-11 -3 -21 -5t-19 -8l-43 -33q-2 4 -5.5 13.5t-6 18.5t-4.5 18t-2 13zM701 1086l14 -15l-13 3q0 3 -0.5 6t-0.5 6zM750 726 q3 2 5.5 5t5.5 6l12 -16q-6 2 -11.5 3t-11.5 2z" />
<glyph unicode="&#xd1;" horiz-adv-x="1193" d="M-404 -119q0 83 30.5 161.5t77.5 150t104 137t109 124.5q36 40 85 91.5t107.5 106t123 106.5t129 94t128 69.5t118.5 31.5h12t9 -1q22 -27 32.5 -61t10.5 -70q0 -58 -16 -105.5t-36 -92.5q-6 -15 -13 -31.5t-13.5 -37t-13.5 -48.5t-14 -65l131 120q37 34 80 74t83 75 t73 62.5t50 35.5q18 -25 18 -53q0 -35 -10 -61t-25 -54l-4 -7q-81 -151 -152.5 -314.5t-137.5 -324.5l-62 -153q23 11 52.5 26t60 31.5t59.5 32t51 28.5h-2l105 59l43 28v-1q39 24 80 47.5t87 40.5q-4 -3 -8.5 -6.5t-7.5 -6.5q-3 -4 -7 -8l-9 -9q-5 -4 -10 -7t-11 -5 q-7 -4 -14.5 -7t-14.5 -9q-20 -11 -47 -29.5t-58 -42.5q-30 -24 -62.5 -47t-63.5 -45t-62 -42t-60 -35.5t-54.5 -25.5t-46.5 -10q-35 0 -35 39q0 38 16 73.5t34 71.5l24 50q41 84 84.5 176.5t87 187t84.5 188t78 178.5q-65 -46 -134 -106.5t-138 -130t-134.5 -146 t-121.5 -154t-99 -153t-66 -145.5l-43 -15q-4 8 -5.5 19t-1.5 22q0 16 6 37.5t16 44.5t22.5 44.5t23.5 37.5l-1 -1q36 44 75 98t77 114.5t72 125.5t59.5 131t41 130t15.5 124q0 30 -11 83q-53 0 -94 -8t-76.5 -22t-67.5 -34t-68 -45v1q-8 -5 -16 -10.5t-16 -10.5 q-83 -58 -153 -120t-132 -129q-31 -34 -60 -70t-56 -71.5t-51.5 -70t-46.5 -65.5q-22 -30 -38.5 -54.5t-30 -46t-24 -42t-20.5 -41.5q-20 -43 -32 -88.5t-12 -97.5v-51q30 0 50.5 6t35.5 14.5t25 19.5l20 22q8 8 14.5 15t16.5 12q1 -5 1 -16v-4q0 -28 -16.5 -51.5t-42 -40.5 t-54.5 -26t-53 -9q-14 0 -22.5 9.5t-13 24.5t-6 31t-1.5 28zM552 1028q3 0 9 2v5zM561 1030l45 6h9.5t9.5 1q-29 -13 -55 -13q-8 0 -9 6zM561 1035h1q0 1 1 2zM625 1037q22 1 40 6q12 4 22 8l20 8q8 2 14.5 5t13.5 6h-1q-26 0 -46 -7.5t-41 -15.5q-5 -2 -10.5 -5t-11.5 -5z M735 1070q10 3 20 5.5t19 3.5q-2 -2 0.5 -6t5.5 -8q10 -16 26 -36.5t42 -34.5q-26 5 -35.5 15.5t-17.5 21.5q-10 14 -21.5 26t-38.5 13zM848 994q21 -12 52 -12q12 0 26 5t27 13q-23 -5 -44 -6t-35 -1h-14.5t-11.5 1zM953 1000q9 5 18.5 11.5t17.5 11.5l26 17 q-2 -16 -20 -25t-42 -15zM1015 1040l6 3q-2 0 -3 -0.5t-2 -0.5h-1v-2zM1146 133l17 6l-5 33h-10v-36h3z" />
<glyph unicode="&#xd2;" horiz-adv-x="1359" d="M-77 -57q0 67 27 140.5t73 147t105.5 144.5t124.5 133.5t132 112.5t126 80l13.5 4.5t16.5 2.5q14 0 26 -17t20 -41q49 36 82 36q29 0 46 -25t26.5 -59t12.5 -69.5t3 -57.5q0 -109 -24.5 -189.5t-71.5 -145.5t-114.5 -119.5t-153.5 -109.5q-35 -23 -75 -46t-84 -41.5 t-88.5 -30t-87.5 -11.5q-79 0 -104 42q-31 46 -31 119zM-41 -55q0 -119 116 -119q43 0 86.5 13t82.5 30q92 40 180 95t157 128.5t111.5 164.5t42.5 204q0 46 -8.5 92.5t-21.5 95.5q-51 -13 -86 -36t-59.5 -53.5t-42.5 -66t-37 -73.5q-2 -7 -5.5 -14t-5.5 -13l-11 -23 q-6 9 -6 23q0 16 2.5 30t7.5 29v-1q4 15 7.5 31.5t3.5 30.5q0 1 7.5 12.5t19.5 26.5q16 23 33.5 53t30.5 80q-45 -25 -96.5 -60.5t-104.5 -79t-103.5 -92.5t-92.5 -98q-43 -49 -80.5 -101.5t-66 -106.5t-45 -105t-16.5 -97zM666 1223q0 26 13 42.5t37 29.5q25 -15 43 -43.5 t31.5 -63t21.5 -71t11 -67.5q-28 8 -56 27t-50.5 42.5t-36.5 50.5t-14 53zM709 1299h16q-3 -2 -9 -4z" />
<glyph unicode="&#xd3;" horiz-adv-x="1290" d="M-137 -57q0 67 26.5 141t72 148.5t105 147t124 133.5t130.5 109t125 74q15 9 33 10q14 0 26.5 -16t20.5 -40q51 36 83 36q28 0 45.5 -25t26.5 -59.5t12 -70t3 -58.5q0 -109 -24.5 -189.5t-70.5 -145t-113.5 -118.5t-153.5 -109q-35 -23 -76 -46t-85 -41.5t-89 -30 t-87 -11.5q-77 0 -103 42q-14 24 -22.5 53t-8.5 66zM-103 -57q-1 -117 116 -117q44 0 88 13t83 30q92 40 180.5 95.5t157.5 128.5t111.5 163.5t42.5 202.5q0 49 -9.5 95t-20.5 95q-50 -12 -84 -33t-58 -48t-41 -60t-33 -68l-7 -15l1 2l-10 -20q-3 -8 -8 -17.5t-9 -19.5 q-5 7 -5 23t2.5 29t6.5 28v-1q4 15 8 31.5t4 32.5q0 1 8 12.5t18 25.5q16 23 33 52t33 84q-55 -32 -121.5 -82t-134 -112t-131 -132t-113 -142.5t-79 -143t-29.5 -132.5zM762 1059l11 -23l6 14l-5 3zM779 1050l2 3l-1 -2q8 13 43 56q17 22 36.5 43.5t39.5 42.5 q19 22 39.5 40.5t38.5 33.5t32.5 23.5t23.5 8.5q20 0 21 -22q0 -12 -15 -34t-33 -46v1q-19 -25 -39 -45l-71 -70q-33 -30 -46 -40.5t-19 -10.5q-14 0 -26 5t-26 13z" />
<glyph unicode="&#xd4;" horiz-adv-x="1300" d="M-127 -71q0 67 27 141.5t72.5 150t105 147.5t125 134t132 110t126.5 76v-1q13 5 27 5t27 -17.5t22 -37.5q25 19 46 27t35 8q18 0 32.5 -11.5t24 -30t15.5 -41.5t9.5 -46.5t5 -45t1.5 -36.5q0 -108 -25.5 -189t-72.5 -146t-114 -119t-151 -108q-34 -22 -76 -45t-86.5 -42 t-89 -30.5t-83.5 -11.5q-79 0 -105 42q-30 45 -30 117zM-92 -71q0 -115 115 -115q45 0 88.5 12.5t82.5 30.5q93 41 181.5 96t157 128t110.5 164t42 204q0 46 -8.5 92.5t-21.5 98.5q-53 -16 -88 -39.5t-59 -53t-40.5 -64t-34.5 -73.5q-5 -10 -11.5 -22t-12.5 -31q-5 12 -6 26 q0 14 3 26.5t7 24.5q5 17 8.5 33t3.5 34q0 2 8 13.5t18 27.5q7 10 15.5 22.5t17 27.5t16 35.5t14.5 49.5q-55 -33 -121 -83.5t-134 -112.5t-130.5 -132t-112 -142.5t-79 -143.5t-29.5 -134zM293 923q0 6 8 12.5t20.5 13t28 13.5t29.5 13q6 3 9.5 3t7.5 1.5t11 5.5t20 13v-1 l31 20l110 73l-41 -35q-31 -27 -61.5 -53t-59.5 -53q-2 -2 -4.5 -3t-10.5 -9l1 1q-14 -11 -28.5 -21t-25.5 -10q-5 0 -13 1t-15 3t-12 5.5t-5 6.5zM568 1090q24 15 47.5 31.5t46.5 33.5q-17 -10 -36 -21.5t-35 -25.5zM662 1155q39 29 72 57t56 54q5 5 14.5 10.5t15.5 5.5 q4 0 9 -19.5t8.5 -44.5t5.5 -48.5t2 -30.5q4 -54 6 -103t2 -97q0 -14 -9.5 -28.5t-27.5 -14.5q-8 0 -14 9t-6 20q0 9 2 16.5t4 15.5v-1l4.5 18t2.5 20q0 54 -12 110t-44 115q-27 -24 -47.5 -37.5t-39.5 -24.5zM845 1139h35v4l-35 -1v-3z" />
<glyph unicode="&#xd5;" horiz-adv-x="1306" d="M-125 -31q0 69 27.5 143.5t73.5 150t106 146.5t125 133t132 110.5t125 77.5h-1q12 6 33 6q14 0 25 -16.5t20 -39.5q24 17 45 25.5t38 8.5q18 0 32 -11.5t23.5 -30t15.5 -41.5t10 -46.5t5 -45t1 -36.5q0 -108 -24.5 -189t-71.5 -145.5t-114.5 -118.5t-153.5 -109 q-34 -23 -75.5 -46t-85.5 -41.5t-89 -30t-87 -11.5q-37 0 -63 11.5t-42 32t-23 49.5t-7 64zM-89 -27q0 -117 116 -117q45 0 86.5 12.5t83.5 30.5q93 40 181 95.5t156.5 128.5t110.5 164t42 203q0 47 -7.5 94t-21.5 96q-51 -15 -85.5 -37.5t-59.5 -51.5t-42 -63t-33 -72l1 1 q-6 -13 -12.5 -27t-12.5 -33q-8 11 -8 28q0 14 3 27.5t7 26.5q4 17 7.5 32.5t3.5 31.5q0 1 7.5 11.5t19.5 26.5q7 11 15.5 23t17 28t16.5 36t15 48q-54 -32 -120.5 -82t-133.5 -111.5t-130.5 -131.5t-113.5 -142t-79.5 -142.5t-29.5 -133.5zM374 928l15 1v6v10zM389 929 l18 2q11 1 21.5 2t23.5 3q-13 -5 -26.5 -8.5t-29.5 -3.5q-5 0 -7 5zM452 936q9 2 18 3.5t18 4.5q14 2 27 6.5t28 10.5l23 9h-6q-27 0 -47.5 -8t-41.5 -18q-5 -2 -9.5 -4t-9.5 -4zM567 970l18 4t17 2l8 -15q11 -17 27 -37t43 -31q-29 2 -39.5 13.5t-16.5 22.5q-9 15 -20.5 27 t-36.5 14zM680 893q9 -4 20.5 -6.5t24.5 -2.5q13 -1 27 3.5t27 11.5q-22 -4 -44 -5.5t-37 -1.5h-9t-9 1zM779 899q11 7 21.5 14.5t20.5 13.5h-1q13 7 21 13v-1q0 -15 -18.5 -24.5t-43.5 -15.5zM841 940l6 4q-6 0 -6 -3v-1z" />
<glyph unicode="&#xd6;" horiz-adv-x="1300" d="M-130 -27q0 49 17 104.5t45 112.5t65.5 113t78.5 109q44 52 92 101t97.5 91t98.5 75t94 52q10 5 17 7.5t13 2.5q14 0 25.5 -16t20.5 -40q52 35 84 35q29 0 46 -25t26 -59.5t12.5 -71t3.5 -57.5q0 -108 -25 -188.5t-71 -145.5t-113.5 -119.5t-153.5 -108.5 q-35 -23 -76 -46t-85 -41.5t-88.5 -30t-87.5 -11.5q-74 0 -104 43q-32 46 -32 114zM-94 -23q2 -56 31 -87.5t86 -31.5q43 0 86 13.5t84 31.5q92 40 180.5 95t157 128.5t110.5 164.5t42 204q0 49 -8 94.5t-20 94.5q-51 -15 -86 -37.5t-60 -51.5t-42 -63t-33 -72l1 1 q-6 -12 -12.5 -26t-13.5 -33q-7 10 -8 25q0 16 3 29t7 26v-1q4 16 7.5 32t3.5 34l8 10t8 11t9 15q16 23 34.5 53.5t32.5 82.5q-54 -31 -120 -80.5t-132.5 -111.5t-130 -132t-113 -142.5t-80 -143t-32.5 -132.5zM461 989q0 9 7 15.5t17.5 9.5t22.5 4.5t21 1.5q33 0 67 -9 q-7 -13 -9 -22t-3 -14q0 -1 -1 -1.5t-6.5 -1.5l-16.5 -3t-33 -5v-5q-11 -8 -22.5 -15.5t-24.5 -15.5q-4 2 -7.5 9.5t-6 17.5t-4 19t-1.5 15zM527 959l1 2l10 -33h-8zM596 1011l4.5 9t6.5 10l8 -25zM764 981q0 11 5.5 17.5t15 9.5t20.5 3.5t22 0.5q36 0 74 -8q0 -12 -3 -19.5 t-8.5 -11.5t-12.5 -5t-13 -2q-5 -1 -10 -1.5t-12 -3.5t-18 -9.5t-27 -19.5l-19 -12q-2 4 -4.5 12.5t-4.5 17.5t-3.5 18t-1.5 13zM780 920q5 3 9 6.5t8 5.5q8 5 14.5 9.5t13.5 10.5l11 -32h-56zM900 1015l12 -15l-11 4q0 2 -0.5 5t-0.5 6z" />
<glyph unicode="&#xd7;" horiz-adv-x="1183" d="M73 23l22 -13l-3 9l-3 10q-5 -2 -8.5 -3.5t-7.5 -2.5zM83 57q0 11 4.5 20.5t12.5 18.5q17 16 38.5 32.5t44.5 34.5q33 26 65 51.5t61 57.5q17 17 34 42.5t17 58.5q0 24 -11.5 42t-30.5 33.5t-42.5 28t-47.5 25.5q-35 16 -61.5 33t-26.5 35q0 14 12 25t27 11 q27 0 59 -23.5t66 -52.5q18 -16 38 -31.5t41 -27.5t43.5 -20t44.5 -8q38 1 80 25t81 58t72.5 72t55.5 67q10 10 13.5 21t5.5 23q1 7 3 14t7.5 13t15 10t26.5 4q15 0 28 -14.5t13 -28.5q0 -17 -12.5 -34t-33 -33t-46.5 -32t-54 -33q-32 -18 -63.5 -38.5t-56.5 -43t-41 -47.5 t-16 -53q0 -27 14 -47t34 -36t45.5 -29t47.5 -23l39 -17q16 -6 27.5 -12.5t19 -12.5t13 -12t10.5 -13q5 -8 11.5 -15.5t15.5 -15.5q-14 -15 -32.5 -31.5t-28.5 -16.5q-27 0 -61 27.5t-73 63.5v-1q-24 22 -48 43t-48.5 38.5t-49.5 28t-50 10.5q-24 0 -45 -11.5t-41.5 -30 t-41 -43t-42.5 -51.5q-41 -49 -89 -98q-20 -20 -41.5 -35t-45.5 -24q-6 15 -6 28zM826 160l15 -14l-1 27l-5 -5q-2 -2 -4.5 -4t-4.5 -4z" />
<glyph unicode="&#xd8;" horiz-adv-x="1257" d="M-43 137q0 75 22.5 144.5t61.5 132.5t90.5 119t109.5 103q24 19 45.5 37.5t45.5 37.5q70 56 137.5 113t134.5 116q28 23 62 40t69 17q72 0 145 -67l31 42q17 27 40 56t43 49q8 -17 8 -41q-1 -9 -7.5 -22.5t-15.5 -28t-20 -30t-20 -27.5l-24 -36q65 -95 92 -194t27 -208 q0 -63 -24 -130.5t-66 -132t-97.5 -122.5t-119 -101t-130.5 -68.5t-131 -25.5h-148q-45 0 -88.5 3t-92.5 15q-17 -35 -36.5 -64t-40.5 -59q-10 -2 -17.5 -5t-15.5 -5q4 19 9.5 35t13 32t18 34l24.5 42q-135 74 -135 199zM7 195q0 -36 12.5 -65t33.5 -52t47.5 -41.5 t56.5 -32.5q79 81 168 182t176 208.5t164.5 215t135.5 201.5l-4 35q-26 3 -45 4.5t-36 1.5q-40 0 -92 -19.5t-109 -53t-117 -78.5t-116 -96q-55 -51 -105 -106.5t-88 -109t-60 -103.5t-22 -91zM175 -7q52 -17 101 -29t96 -12q146 0 256 67q108 68 176 174q71 105 102 233 q31 127 31 253q0 42 -18 79.5t-57 68.5q-115 -150 -242 -304t-249 -299q-23 -27 -48 -56t-50 -59l-50 -60t-48 -56z" />
<glyph unicode="&#xd9;" horiz-adv-x="898" d="M-34 57q0 35 10.5 67.5t27 63t37 59t42.5 56.5l14 20q5 8 13 18t14 19v-1l19 26q24 31 43.5 65t38.5 66q38 67 81 131.5t102 109.5l18 -8q-3 -30 -18.5 -51t-34.5 -42l-8 -10q-27 -32 -47 -63.5t-39 -62.5q-14 -24 -27.5 -46t-28.5 -43q-15 -20 -30.5 -41.5t-31.5 -42.5 q-22 -29 -43.5 -58t-41.5 -62t-38 -72t-33 -86q89 11 170.5 41.5t157.5 73t145 92t133 97.5q33 25 66 49t65 47q12 24 38.5 58.5t57 67t61 56t50.5 26.5q-3 -31 -19.5 -52.5t-35.5 -41.5q-9 -9 -19 -19.5t-18 -20.5q-12 -17 -26 -32q-47 -58 -91.5 -116t-84 -119t-73 -128 t-59.5 -145q38 -19 82 -19q28 0 59.5 11.5t63 28.5t60.5 36.5t52 35.5l12 10q-23 -36 -63 -66.5t-87.5 -53t-95 -35.5t-83.5 -13h-15q-12 20 -17 42t-5 47q0 27 9.5 54.5t23 55t31 54.5t35.5 53l33 51l-2 37q-24 -12 -40 -22t-30 -18.5t-26 -16.5t-25 -17 q-27 -17 -55.5 -35.5t-60.5 -37.5q-33 -19 -64.5 -37.5t-61 -35t-54 -29t-42.5 -21.5l1 3q-8 -4 -15.5 -8.5t-14.5 -7.5q-29 -13 -57 -24t-58 -11q-11 0 -20 2l-18 4q-1 0 -1.5 1.5t-2.5 1.5q-5 14 -5 34zM268 -168l70 -68l-8 68h-62zM528 1084q0 27 13.5 44.5t37.5 27.5 q27 -16 44 -47t31 -67q13 -33 20.5 -66.5t11.5 -64.5q-28 8 -56 26.5t-50.5 43t-37 51.5t-14.5 52zM686 911l2 -23l20 19q-5 1 -11 1.5t-11 2.5zM852 106q11 9 17.5 14.5t10.5 5.5h7l-19 17q-2 -10 -6.5 -18.5t-9.5 -18.5zM949 677q2 0 2.5 0.5t2.5 0.5t-1 4l-3 9 q0 -9 -1 -14z" />
<glyph unicode="&#xda;" horiz-adv-x="910" d="M-35 57q0 35 10.5 67.5t27 63t37 59t42.5 56.5l14 20q5 8 13 18t14 19v-1l19 26q24 31 43.5 65t38.5 66q38 67 81 131.5t102 109.5l18 -8q-3 -30 -18.5 -51t-34.5 -42l-8 -10q-27 -32 -47 -63.5t-39 -62.5q-14 -24 -27.5 -46t-28.5 -43q-15 -20 -30.5 -41.5t-31.5 -42.5 q-22 -29 -43.5 -58t-41.5 -62t-38 -72t-33 -86q89 11 170.5 41.5t157.5 73t145 92t133 97.5q33 25 66 49t65 47q12 24 38.5 58.5t57 67t61 56t50.5 26.5q-3 -31 -19.5 -52.5t-35.5 -41.5q-9 -9 -19 -19.5t-18 -20.5q-12 -17 -26 -32q-47 -58 -91.5 -116t-84 -119t-73 -128 t-59.5 -145q38 -19 82 -19q43 0 90 22t89 51l44 32l26 20q-20 -38 -61 -69.5t-89.5 -53.5t-96.5 -34.5t-84 -13.5h-15q-12 20 -17 42t-5 47q0 27 9.5 54.5t23.5 55t31.5 54.5t35.5 53l62 96q-33 -14 -58 -26.5t-45 -24t-37.5 -23t-33.5 -21.5q-23 -14 -47 -29t-48 -31 q-33 -18 -64.5 -37t-61 -35t-54.5 -29t-42 -22l1 3q-8 -4 -15.5 -8.5t-14.5 -7.5q-29 -13 -57 -24t-58 -11q-11 0 -20 2l-18 4q-1 0 -1.5 1.5t-2.5 1.5q-5 14 -5 34zM847 975v1q6 11 23 34t40.5 51t50.5 56.5t53 52t48.5 39t37.5 15.5q17 0 17 -23q0 -13 -13.5 -34.5 t-32.5 -44t-38.5 -43t-32.5 -32.5v-3l-4 -4q-9 -9 -23 -23.5t-28.5 -27.5t-28 -22.5t-20.5 -9.5q-12 0 -23.5 5t-22.5 11zM948 677q2 0 2.5 0.5t2.5 0.5t-1 4l-3 9q0 -9 -1 -14zM1000 1044l16 -28l-14 31z" />
<glyph unicode="&#xdb;" horiz-adv-x="909" d="M-34 57q0 35 10.5 67.5t27 63t37 59t42.5 56.5l14 20q5 8 13 18t14 19v-1l19 26q24 31 43.5 65t38.5 66q38 67 81 131.5t102 109.5l18 -8q-3 -30 -18.5 -51t-34.5 -42l-8 -10q-27 -32 -47 -63.5t-39 -62.5q-14 -24 -27.5 -46t-28.5 -43q-15 -20 -30.5 -41.5t-31.5 -42.5 q-22 -29 -43.5 -58t-41.5 -62t-38 -72t-33 -86q89 11 170.5 41.5t157.5 73t145 92t133 97.5q33 25 66 49t65 47q12 24 38.5 58.5t57 67t61 56t50.5 26.5q-3 -31 -19.5 -52.5t-35.5 -41.5q-9 -9 -19 -19.5t-18 -20.5q-12 -17 -26 -32q-47 -58 -91.5 -116t-84 -119t-73 -128 t-59.5 -145q38 -19 82 -19q43 0 90 22t89 51l44 32l26 20q-20 -38 -61 -69.5t-89.5 -53.5t-96.5 -34.5t-84 -13.5h-15q-12 20 -17 42t-5 47q0 27 9.5 54.5t23 55t31 54.5t35.5 53l63 96q-33 -14 -58 -26.5t-45 -24t-37.5 -23t-33.5 -21.5q-23 -14 -47 -29t-48 -31 q-33 -18 -64.5 -37t-61 -35t-54.5 -29t-42 -22l1 3q-8 -4 -15.5 -8.5t-14.5 -7.5q-29 -13 -57 -24t-58 -11q-11 0 -20 2l-18 4q-1 0 -1.5 1.5t-2.5 1.5q-5 14 -5 34zM367 933q0 7 10 14.5t25.5 16t33.5 16.5t33 14l31 13q17 11 37.5 26.5t43.5 29.5q67 45 143 98t141 118 q8 5 16.5 9.5t13.5 4.5q3 0 7 -19.5t7.5 -45t6.5 -49t3 -30.5q5 -52 6 -102t1 -97q0 -15 -9.5 -29t-25.5 -14q-10 0 -16.5 9t-6.5 19q0 7 2 14.5t4 16.5t6 18t4 21q0 55 -12 110.5t-45 114.5q-27 -24 -47 -38t-38 -23q-19 -10 -39.5 -23.5t-37.5 -29.5q-43 -34 -93.5 -76 t-91.5 -81l-4 -2t-9 -8q-14 -11 -28.5 -21t-26.5 -10q-5 0 -13 1t-15 3t-12 4.5t-5 6.5zM847 1306h45q-6 -7 -13 -13.5t-14 -13.5l-8 -6zM919 1149v3l35 1v-4h-35zM949 677q1 5 1 14l3 -9q3 -4 1 -4t-2.5 -0.5t-2.5 -0.5z" />
<glyph unicode="&#xdc;" horiz-adv-x="912" d="M-35 57q0 35 10.5 67.5t27 63t37.5 59t42 56.5l15 20q5 8 13 18t13 19v-1l20 26q23 31 43 65t39 66q38 67 81 131.5t102 109.5l17 -8q-3 -30 -18 -51t-34 -42l-8 -10q-27 -32 -47.5 -63.5t-38.5 -62.5q-14 -24 -27.5 -46t-28.5 -43q-15 -20 -30.5 -41.5t-31.5 -42.5 q-22 -29 -43.5 -58t-41.5 -62t-38.5 -72t-33.5 -86q89 11 171 41.5t158 73t145 92t133 97.5q33 25 66 49t65 47q12 24 38 58.5t56.5 67t61.5 56t51 26.5q-3 -31 -19.5 -52.5t-36.5 -41.5q-9 -9 -18.5 -19.5t-17.5 -20.5q-7 -8 -13 -16t-13 -16q-47 -58 -91.5 -116 t-84.5 -119t-73 -128t-59 -145q36 -19 82 -19q28 0 59 11.5t63 28.5t60.5 36.5t51.5 35.5q10 7 15 14t8 12.5t4.5 8.5t3.5 3q0 -16 -12 -33.5t-32 -35t-45 -34.5t-51 -31q-54 -29 -110 -45.5t-97 -16.5h-16q-11 20 -16 42t-5 47q0 27 9.5 54.5t23 55t31 54.5t35.5 53l63 96 q-33 -14 -58 -26.5t-45 -24t-37.5 -23t-33.5 -21.5q-23 -14 -47 -29t-49 -31q-33 -18 -64.5 -37t-61 -35t-54 -29t-41.5 -22l1 3q-8 -4 -15.5 -8.5t-15.5 -7.5q-29 -13 -56.5 -24t-57.5 -11q-12 0 -20.5 2t-17.5 4q-1 0 -1.5 1.5t-2.5 1.5q-4 8 -5 16.5t-1 17.5zM535 983 q0 10 7 16t17 9t22.5 3.5t21.5 0.5q15 0 32.5 -2.5t33.5 -5.5q-5 -11 -8 -19.5t-4 -13.5h-1q-1 -2 -6 -3t-22 -5l-23 -6l4 -35l-10 32l-46 -29q-4 3 -7 10t-5.5 15.5t-4 17.5t-1.5 15zM799 975q0 23 10 35.5t25.5 19.5t33 9t31.5 2q45 0 97 -16l13 -14q3 -31 -3 -48.5 t-16.5 -26t-25 -11.5t-28.5 -4q-16 -2 -18 -5l-57 -40q-7 0 -17.5 13.5t-20.5 31t-17 33.5t-7 21zM949 677q1 5 1 14l3 -9q3 -4 1 -4t-2.5 -0.5t-2.5 -0.5z" />
<glyph unicode="&#xde;" horiz-adv-x="995" d="M2 -14q4 14 22 37t35 45q12 13 23.5 27.5t16.5 22.5q7 11 11 30.5t7 42.5v-1q4 24 7.5 45.5t9.5 34.5l42 -25l48 64q23 29 44 59t39 64.5t32 76.5t22 94q-55 -31 -105 -53.5t-101 -36.5q-3 5 -3 6t-4 4q-6 47 29 56q28 7 52 13.5t44 14.5q23 9 45 17t41 14l57 19 q2 5 6 16.5t6 19.5v-1q6 19 15 45t17 50t16.5 43t15.5 27q6 9 17 12t26 4q-2 -17 -13.5 -44.5t-21.5 -51.5l-13 -28q-3 -17 -9.5 -42t-18.5 -58q6 2 18.5 6t26.5 9t27 9t20 7q32 12 63.5 23t58.5 11q90 0 137.5 -47t47.5 -137q0 -52 -18 -94t-49.5 -74t-73.5 -56.5 t-90 -41.5q-67 -27 -142.5 -44t-143.5 -32q-33 -6 -62.5 -12.5t-55.5 -12.5q-33 -9 -56 -24t-38.5 -33t-27 -38.5t-20.5 -39.5q-11 -24 -23.5 -45.5t-32.5 -32.5q-6 2 -8.5 2.5t-6.5 2.5q-3 9 -4.5 15t-3.5 16zM217 240l30 -36q41 1 101 8t125 22t130 38.5t116 56.5t83 77.5 t32 100.5q0 43 -16 75t-42.5 54t-62.5 33t-76 11q-62 0 -107.5 -14.5t-78 -42t-56.5 -69t-45 -95.5q-44 -58 -76.5 -110t-56.5 -109zM532 887l17 -14h-14q1 3 1 6q-1 2 -2.5 4t-1.5 4z" />
<glyph unicode="&#xdf;" horiz-adv-x="944" d="M17 -103q5 69 29.5 131t53.5 124l218 367l9 17q15 27 33.5 60t34.5 67.5t26.5 68.5t10.5 62q0 34 11 65t43 48q30 16 73 18h8q20 1 39.5 1.5t36.5 0.5q32 0 67.5 -2t65 -13t49 -33.5t19.5 -63.5q1 -49 -30 -97t-76.5 -91t-98 -80.5t-95.5 -66.5l-67 -43q6 -2 19 -6 t27.5 -7.5t28 -7t21.5 -5.5q38 -9 80.5 -20.5t78 -29t59 -43t23.5 -63.5q0 -40 -22.5 -74.5t-59 -63t-83.5 -51t-94.5 -38t-92.5 -23.5t-79 -7q-17 0 -40.5 3t-43.5 10.5t-34.5 21.5t-14.5 36v15q18 -11 40.5 -22.5t45.5 -20.5t45.5 -15.5t41.5 -6.5t52 11t70.5 29.5 t75.5 42.5t69.5 50t51 52t19.5 49q0 25 -12 45.5t-32 38t-47 32t-57 25.5q-39 15 -81.5 24.5t-77.5 14.5q-3 -2 -5.5 -3.5t4.5 3.5q28 22 63.5 50.5t73 60t73 66t64 68t46 65t18.5 58.5q0 26 -14.5 45.5t-36.5 32.5t-48 19.5t-49 6.5h-12q-28 0 -60 -2t-55 -18h1 q-15 -9 -24.5 -23.5t-15 -31t-7 -34.5t-1.5 -34q0 -18 -14.5 -56t-38 -87.5t-53.5 -106t-61 -115.5q-35 -66 -71.5 -135t-69.5 -136.5t-58.5 -129.5t-39.5 -112zM87 129l13 23l21 39l-34 10v-72z" />
<glyph unicode="&#xe0;" horiz-adv-x="745" d="M-42 -11q0 20 15.5 53t41 72.5t60 82.5t72.5 85t77.5 79.5t76.5 67t68.5 46.5t54.5 17q24 0 34.5 -20t10.5 -45q0 -56 -53 -56l-2 2q-3 3 -4 6v-1q-7 10 -17.5 18t-34.5 8q-58 -37 -108 -82.5t-94 -98t-83 -111.5t-75 -121q48 1 81 9t55 24q20 13 40 27t40 29l57 45 q17 15 42 28.5t49 26.5q34 17 68 39.5t58 51.5q15 18 32 51q7 13 15.5 26.5t16.5 24.5t16.5 18t16.5 7q6 0 11.5 -2t10.5 -4q-6 -15 -11 -24t-12 -25h1q-15 -33 -30.5 -66.5t-28 -68.5t-20 -70.5t-7.5 -70.5q0 -65 45 -137q43 0 74 5.5t54.5 13.5t41.5 18t34 22 q13 9 28.5 18.5t35.5 19.5q-13 -25 -44 -49.5t-67.5 -44.5t-72 -33t-58.5 -13q-35 0 -56 17.5t-33.5 43.5t-17 58t-4.5 61q0 24 1.5 55.5t5.5 74.5q-33 -14 -66.5 -33.5t-65.5 -41.5q-26 -18 -51.5 -35.5t-52.5 -35.5q-5 -3 -9.5 -7t-9.5 -7q-31 -20 -61 -39.5t-57 -33.5 t-50.5 -23t-40.5 -9q-23 0 -33.5 16.5t-10.5 40.5zM113 877q0 27 13 44.5t37 28.5q26 -16 44 -45t31 -63.5t21.5 -71t13.5 -68.5q-29 7 -57.5 26.5t-51.5 44t-37 52t-14 52.5zM157 954l14 -1l-8 -3z" />
<glyph unicode="&#xe1;" horiz-adv-x="731" d="M-25 -16q0 28 26.5 76.5t68.5 104.5t94 114t103.5 104.5t97.5 76t75 29.5q24 0 35 -20t11 -44q0 -58 -54 -58q-1 0 -2 2l-2.5 2.5t-2.5 3.5q-8 8 -17 16t-32 12q-58 -37 -108.5 -83t-95 -99t-83.5 -112t-75 -120q48 1 81 9t56 24q20 13 39.5 26.5t39.5 29.5l58 45v-1 q19 14 40.5 26t43.5 23q37 19 71.5 40t61.5 54q5 8 13 21t14 24q8 15 17 30.5t17.5 28t17.5 20t17 7.5q7 0 12 -2t11 -4q-6 -16 -13.5 -33t-15.5 -32q-30 -62 -54.5 -127t-24.5 -133q0 -70 41 -137q47 0 79 5t55 12.5t40.5 18t34.5 23.5q13 10 27.5 19t34.5 19 q-14 -25 -44.5 -50.5t-67 -45.5t-72 -33t-57.5 -13q-35 0 -56.5 17.5t-34 44.5t-17 59t-4.5 61q0 26 1.5 56.5t5.5 68.5q-35 -14 -68.5 -32t-64.5 -40q-30 -22 -60.5 -43.5t-62.5 -42.5q-31 -22 -61 -40.5t-56.5 -32.5t-49.5 -22.5t-41 -8.5q-23 0 -33 16.5t-10 39.5z M459 662l2 -23l9 15l-10 8l3 -4zM470 654q20 30 36.5 52t28.5 36t25 29t28 30q14 14 28.5 28t28.5 25q27 24 47.5 38t33.5 14q17 0 17 -22q0 -13 -14 -35.5t-33.5 -45.5t-40 -44t-31.5 -32v-2q-8 -8 -23.5 -22.5t-32 -29.5t-30.5 -25.5t-18 -10.5q-13 0 -25.5 4.5 t-24.5 12.5zM624 725l15 -29l-13 31z" />
<glyph unicode="&#xe2;" horiz-adv-x="647" d="M-67 7q0 27 26.5 75t68.5 104t94 113.5t104 105t98 77t75 29.5q24 0 34.5 -20.5t10.5 -44.5q1 -25 -6 -40t-20 -18q-9 0 -17 2t-8 4t1.5 11t3.5 17q12 69 -71 24q-125 -95 -229 -213q-55 -62 -84.5 -111.5t-35.5 -89.5q0 -73 99 -9q30 19 63.5 41.5t70.5 49.5h-1l31 20 l125 87q14 10 30.5 21.5t34.5 26.5q30 24 46.5 47.5t27.5 43.5l7 13q11 18 23 31.5t25 13.5q11 0 21 -5q-8 -18 -13.5 -31t-13.5 -31q-15 -32 -29.5 -63.5t-26 -65t-18 -67t-6.5 -69.5q0 -69 27 -114q35 -58 89 -21h-1l9 7q17 12 39 27.5t48 34.5q48 38 78 39q2 -2 -25 -23 q-27 -22 -48 -38.5t-42 -32.5l-23 -19q-26 -19 -43.5 -30t-36.5 -11q-36 0 -57.5 17.5t-33.5 44t-16 58t-4 61.5q0 50 31 160q-20 -13 -46.5 -30.5t-54.5 -36.5t-54.5 -37.5t-48.5 -32.5h1l-78 -54q-31 -22 -60.5 -40.5t-56 -33.5t-49.5 -23.5t-41 -8.5q-23 0 -33.5 17 t-10.5 41zM150 594q0 6 8 12.5t21.5 14t29 14.5t30.5 13q12 5 24.5 12t22.5 12q29 17 64.5 39.5t74.5 49.5l-162 -139l-3 -2q-14 -13 -32.5 -27.5t-31.5 -14.5q-5 0 -13 1t-15 3.5t-12.5 5.5t-5.5 6zM425 761q23 15 44 30.5t43 30.5q-14 -9 -29.5 -18t-31.5 -21zM512 822 q43 31 80 61.5t62 58.5q3 4 13.5 9.5t15.5 5.5q4 0 8.5 -19.5t8 -45t6 -49.5t2.5 -31q4 -52 6 -103t2 -99q0 -14 -10 -28.5t-25 -14.5q-9 0 -16 10t-7 21q0 14 6 30q2 10 5 19.5t3 18.5q0 56 -11.5 112.5t-44.5 117.5q-28 -27 -51 -42t-45 -28q-2 -2 -4 -2.5t-4 -1.5z M708 812h35v4l-35 -1v-3z" />
<glyph unicode="&#xe3;" horiz-adv-x="608" d="M-67 7q0 27 26.5 75t68.5 104t94 113.5t104 105t98 77t75 29.5q24 0 34.5 -20.5t10.5 -44.5q1 -25 -6 -40t-20 -18q-9 0 -17 2t-8 4t1.5 11t3.5 17q12 69 -71 24q-125 -95 -229 -213q-55 -62 -84.5 -111.5t-35.5 -89.5q0 -73 99 -9q30 19 63.5 41.5t70.5 49.5h-1l31 20 l125 87q14 10 30.5 21.5t34.5 26.5q30 24 46.5 47.5t27.5 43.5l7 13q11 18 23 31.5t25 13.5q11 0 21 -5q-8 -18 -13.5 -31t-13.5 -31q-15 -32 -29.5 -63.5t-26 -65t-18 -67t-6.5 -69.5q0 -69 27 -114q35 -58 89 -21h-1l9 7q17 12 39 27.5t48 34.5q48 38 78 39q2 -2 -25 -23 q-27 -22 -48 -38.5t-42 -32.5l-23 -19q-26 -19 -43.5 -30t-36.5 -11q-36 0 -57.5 17.5t-33.5 44t-16 58t-4 61.5q0 50 31 160q-20 -13 -46.5 -30.5t-54.5 -36.5t-54.5 -37.5t-48.5 -32.5h1l-78 -54q-31 -22 -60.5 -40.5t-56 -33.5t-49.5 -23.5t-41 -8.5q-23 0 -33.5 17 t-10.5 41zM191 772q8 2 12 2v5l1 2q0 1 0.5 4t0.5 5zM203 774q12 2 22.5 3t20.5 3q5 0 10 0.5t10 1.5q-14 -6 -27.5 -10.5t-26.5 -4.5q-7 0 -9 7zM266 782q20 1 39 6h-1q13 3 28 8.5t26 10.5l25 9h-5q-26 0 -48.5 -7.5t-43.5 -18.5v1q-10 -5 -20 -9zM384 816q8 2 17 4t17 2 q-1 0 2 -5.5t8 -10.5q10 -17 26.5 -37.5t42.5 -32.5q-30 4 -42 16.5t-19 24.5l1 -1q-10 14 -19.5 26t-33.5 14zM497 736q19 -9 46 -9q23 0 50 16q-22 -5 -42.5 -6.5t-32.5 -1.5h-11t-10 1zM593 743q20 11 40 26q8 5 13 9t10 6l2 -3q-3 -15 -22.5 -23.5t-42.5 -14.5z" />
<glyph unicode="&#xe4;" horiz-adv-x="632" d="M-67 7q0 27 26.5 75t68.5 104t94 113.5t104 105t98 77t75 29.5q24 0 34.5 -20.5t10.5 -44.5q1 -25 -6 -40t-20 -18q-9 0 -17 2t-8 4t1.5 11t3.5 17q12 69 -71 24q-125 -95 -229 -213q-55 -62 -84.5 -111.5t-35.5 -89.5q0 -73 99 -9q30 19 63.5 41.5t70.5 49.5h-1l31 20 l125 87q14 10 30.5 21.5t34.5 26.5q30 24 46.5 47.5t27.5 43.5l7 13q11 18 23 31.5t25 13.5q11 0 21 -5q-8 -18 -13.5 -31t-13.5 -31q-15 -32 -29.5 -63.5t-26 -65t-18 -67t-6.5 -69.5q0 -69 27 -114q35 -58 89 -21h-1l9 7q17 12 39 27.5t48 34.5q48 38 78 39q2 -2 -25 -23 q-27 -22 -48 -38.5t-42 -32.5l-23 -19q-26 -19 -43.5 -30t-36.5 -11q-36 0 -57.5 17.5t-33.5 44t-16 58t-4 61.5q0 50 31 160q-20 -13 -46.5 -30.5t-54.5 -36.5t-54.5 -37.5t-48.5 -32.5h1l-78 -54q-31 -22 -60.5 -40.5t-56 -33.5t-49.5 -23.5t-41 -8.5q-23 0 -33.5 17 t-10.5 41zM6 781q0 10 6.5 16t16.5 9t22 3.5t22 0.5q16 0 33 -2.5t33 -5.5q-6 -13 -8 -21t-3 -14q0 -1 -1 -2t-6 -2t-16 -3.5t-30 -6.5q-12 -7 -25 -16.5t-25 -17.5q-4 2 -8 9.5t-6 17.5t-3.5 19.5t-1.5 15.5zM139 802q2 5 4.5 9.5t7.5 10.5l10 -26zM309 773q0 10 6.5 16.5 t15.5 9.5t20.5 4t22.5 1q17 0 36 -3t39 -8q0 -26 -13 -31.5t-28 -7.5q-5 0 -11.5 -1t-15.5 -5.5t-23.5 -12t-36.5 -21.5q-4 9 -8 29.5t-4 29.5zM315 711l6 3l3 -3h-9zM449 793v12l13 -15z" />
<glyph unicode="&#xe5;" horiz-adv-x="645" d="M-67 7q0 27 26.5 75t68.5 104t94 113.5t104 105t98 77t75 29.5q24 0 34.5 -20.5t10.5 -44.5q1 -25 -6 -40t-20 -18q-9 0 -17 2t-8 4t1.5 11t3.5 17q12 69 -71 24q-125 -95 -229 -213q-55 -62 -84.5 -111.5t-35.5 -89.5q0 -73 99 -9q30 19 63.5 41.5t70.5 49.5h-1l31 20 l125 87q14 10 30.5 21.5t34.5 26.5q30 24 46.5 47.5t27.5 43.5l7 13q11 18 23 31.5t25 13.5q11 0 21 -5q-8 -18 -13.5 -31t-13.5 -31q-15 -32 -29.5 -63.5t-26 -65t-18 -67t-6.5 -69.5q0 -69 27 -114q35 -58 89 -21h-1l9 7q17 12 39 27.5t48 34.5q48 38 78 39q2 -2 -25 -23 q-27 -22 -48 -38.5t-42 -32.5l-23 -19q-26 -19 -43.5 -30t-36.5 -11q-36 0 -57.5 17.5t-33.5 44t-16 58t-4 61.5q0 50 31 160q-20 -13 -46.5 -30.5t-54.5 -36.5t-54.5 -37.5t-48.5 -32.5h1l-78 -54q-31 -22 -60.5 -40.5t-56 -33.5t-49.5 -23.5t-41 -8.5q-23 0 -33.5 17 t-10.5 41zM131 757q17 31 49 58t70 46.5t78.5 30.5t74.5 11q22 0 45 -2.5t43 -11.5t33 -26.5t13 -46.5v-1q-1 -31 -26 -54.5t-58.5 -38.5t-71 -23t-64.5 -7q-25 0 -48 1.5t-45.5 8.5t-45.5 19.5t-47 35.5zM147 756q0 -23 17 -35.5t41 -19t50 -7.5t44 -1q28 0 68 6.5t77 20 t64.5 35.5t27.5 54q0 28 -11 45.5t-29 28.5t-40.5 15.5t-45.5 4.5q-17 0 -43.5 -5.5t-55.5 -15.5t-58.5 -23t-53 -29.5t-38 -35.5t-14.5 -38z" />
<glyph unicode="&#xe6;" horiz-adv-x="1310" d="M-137 108q0 79 40 147.5t101 125.5t133 103t136 82q19 10 46 22t54.5 23t53.5 18t45 7q16 0 33 -11t31 -26t22.5 -33.5t8.5 -34.5v-103q80 55 155 93.5t148 62.5q24 -10 44 -15t37 -10q22 -5 40.5 -10.5t31.5 -18t20.5 -34t7.5 -58.5q0 -47 -27.5 -78.5t-67.5 -50.5 t-86 -27.5t-84 -8.5q-26 0 -52 1.5t-56 6.5q-54 9 -99 44q-22 -10 -42 -24.5t-35.5 -32t-25 -38t-9.5 -43.5q0 -48 22 -76.5t55.5 -44t72.5 -20t74 -4.5q68 0 132.5 5.5t126.5 12.5q26 3 50 6t51 5q-42 -17 -96 -27.5t-108.5 -16t-105 -8t-84.5 -2.5q-42 0 -84.5 6t-83 20 t-78 38t-67.5 61q-66 -44 -122.5 -71t-104.5 -42t-86.5 -20.5t-67.5 -6.5q-100 0 -100 106zM-108 137q0 -48 29.5 -74.5t68.5 -34.5q14 -2 34.5 -0.5t46.5 6.5q24 5 48.5 12t47.5 16q20 8 47 22.5t55 32.5q57 37 90 87q14 24 28 43t26 36q12 15 26.5 29.5t28.5 24.5 q19 13 34 25.5t20 22.5q27 51 38 99q15 57 -41 105l-4 3q-31 13 -73 13q-38 0 -77 -13t-78 -30.5t-73 -41.5v1q-39 -24 -68.5 -44t-47.5 -37q-16 -14 -37 -35.5t-46 -48.5q-25 -28 -47 -56.5t-39 -56.5t-27 -54.5t-10 -51.5zM657 438q13 -26 31 -48t38 -38.5t44 -26.5 t50 -10q60 0 104 33.5t80 82.5v25q-30 30 -64 49.5t-80 19.5q-57 0 -105.5 -26.5t-97.5 -60.5zM1119 102l4 -13l5 8l8 -15l13 12l-19 5l11 14h-18l4 -14z" />
<glyph unicode="&#xe7;" horiz-adv-x="989" d="M-76 228q0 68 38.5 128.5t101 112.5t142 96t160 78.5t157 58.5t131.5 37q14 -9 25 -22.5t11 -30.5q0 -19 -9 -56.5t-24.5 -74.5t-35 -64t-40.5 -27q-13 0 -30 7t-17 19q0 7 13.5 28t32.5 45t37.5 46t27.5 31q-31 11 -56.5 16.5t-45.5 5.5q-46 -1 -106 -17.5t-123.5 -45 t-125.5 -67t-110.5 -84.5t-79 -97t-31.5 -104q0 -66 31 -109t80 -66q48 -24 101.5 -28t102.5 -4q20 1 45.5 1.5t58.5 0.5t61 1.5t50 6.5l117 20q36 8 66.5 14.5t53.5 14.5l35 12q-52 -19 -110.5 -35.5t-120.5 -27t-125 -16t-124 -3.5q14 -23 20 -32t12 -16q10 -11 18.5 -24 t8.5 -22q0 -36 -16.5 -67.5t-43 -57t-60 -43t-67.5 -24.5l52 52q13 13 26.5 28t24 29t18 25t7.5 19q-2 20 -18 39t-37 37q-14 12 -25.5 25.5t-17.5 31.5q-47 6 -94.5 18.5t-86 35.5t-62.5 58.5t-24 86.5zM115 -261l13 -30l33 34q-8 -2 -18 -3t-18 -1h-10zM769 111 q11 2 21.5 4.5t21.5 4.5q2 0 3.5 0.5t3.5 0.5q1 0 2 1l10 14q-14 -7 -30 -13.5t-32 -11.5z" />
<glyph unicode="&#xe8;" horiz-adv-x="806" d="M-103 -14h6l-2 -4q0 4 -4 4zM-97 -14q6 7 26 20.5t45.5 29t50.5 30t43 23.5l21 12q17 77 49 147.5t84 123.5q23 23 53 50.5t64 51t68.5 39t68.5 15.5q15 0 27.5 -11.5t21.5 -28.5t13.5 -36t4.5 -33q0 -45 -20.5 -79t-54 -59.5t-75.5 -45.5t-84 -38q-45 -20 -87 -41 t-78 -52q0 -8 -0.5 -10t-0.5 -3q-3 -8 -3 -16q0 -37 9.5 -58.5t26.5 -33.5t41.5 -15.5t54.5 -3.5q44 0 87 12t84.5 30.5t81.5 41.5t79 46l73 44q-15 -17 -31.5 -31t-32.5 -25l-14 -12q-77 -58 -163 -103q-39 -20 -85.5 -29.5t-98.5 -9.5q-65 0 -107.5 36.5t-48.5 118.5 q-29 -13 -48.5 -23t-31.5 -18q-15 -9 -31 -18.5t-31 -17t-28.5 -13t-22.5 -7.5zM164 186l24 -23q12 7 24.5 12t26.5 10q52 23 102 48.5t90 61.5t65 88t27 129q-75 -17 -129.5 -48t-96 -72.5t-73 -93t-60.5 -112.5zM318 787q0 26 13.5 43.5t37.5 29.5q25 -17 43 -46t31 -63 t20.5 -71t12.5 -69q-28 7 -56 26t-50.5 44.5t-37 52.5t-14.5 53zM360 865h18l-9 -5z" />
<glyph unicode="&#xe9;" horiz-adv-x="806" d="M-103 -17q4 -3 4 -5q0 2 3 6q-3 -1 -7 -1zM-96 -16q6 8 25.5 21t43 28t47.5 29t41 23q8 4 14.5 6t14.5 9q17 77 48.5 147t83.5 123q22 25 52 52.5t64 51t69.5 39t68.5 15.5q15 0 27.5 -11.5t21.5 -28.5t13.5 -36t4.5 -33q0 -46 -20.5 -80.5t-54 -60.5t-75.5 -46t-85 -38 q-46 -18 -87.5 -39.5t-76.5 -52.5q0 -7 -0.5 -9t-0.5 -3q-3 -9 -3 -17q0 -35 9.5 -56.5t26.5 -34t41.5 -16.5t54.5 -4q44 0 87 12t84.5 30.5t81.5 41.5t79 46l73 44q-13 -13 -28 -25.5t-28 -22.5l1 1l-24 -19q-80 -62 -162 -105q-39 -20 -85.5 -29.5t-98.5 -9.5 q-65 0 -107.5 37t-49.5 123l-71 -40q-31 -19 -65.5 -38t-54.5 -24zM142 141l87 38q52 23 103.5 48.5t93 63t68 89.5t29.5 129q-75 -14 -131.5 -48.5t-101 -83t-80.5 -109t-68 -127.5zM409 626l7 -24l6 12l-8 8zM422 614q20 36 48.5 70.5t71.5 77.5q20 20 40.5 39.5 t38.5 34.5t33 24t24 9q19 0 19 -22q0 -13 -13 -35t-33 -45l-37 -41q-11 -11 -22 -23.5t-20 -23.5q-32 -31 -50 -46t-35 -27q-5 -3 -9 -5.5t-6 -2.5q-14 0 -26 4t-24 12z" />
<glyph unicode="&#xea;" horiz-adv-x="806" d="M-102 -36q3 0 3 -6l5 7q-2 0 -4 -0.5t-4 -0.5zM-94 -35q7 7 22.5 17.5t34.5 22.5t39.5 24.5t37.5 22.5h-1l50 29q17 76 48.5 146.5t83.5 123.5q24 23 54 50.5t64 50.5t68.5 39t68.5 16q15 0 27.5 -11.5t21.5 -28t13.5 -36t4.5 -34.5q0 -46 -20.5 -79.5t-54 -59.5 t-75.5 -45.5t-85 -38.5q-45 -19 -86 -39t-78 -51q0 -8 -0.5 -10.5t-0.5 -3.5q-3 -8 -3 -16q0 -37 9.5 -59t26.5 -33.5t41.5 -15t54.5 -3.5q42 0 83 10.5t81 28t79 39.5t76 45q23 14 44.5 27t45.5 26q-12 -11 -31 -27.5t-35 -29.5l-17 -13h1q-39 -31 -80 -56.5t-83 -46.5 q-77 -39 -185 -39q-65 0 -106.5 35t-49.5 119q-57 -28 -79 -39q-30 -17 -60 -34.5t-50 -22.5zM136 580q0 6 9.5 13.5t23 14.5t30 14t31.5 13q26 10 40 18l46 31q27 17 57 37t62 42l-74 -62q-28 -24 -55.5 -47t-56.5 -49l-6 -5q-14 -13 -30 -25.5t-30 -12.5q-5 0 -12.5 1 t-15.5 3t-13.5 5t-5.5 9zM164 165l23 -23q13 6 25 11.5t27 10.5q52 23 101.5 48.5t89.5 61.5t65 88t27 128q-74 -17 -128.5 -47.5t-96.5 -72.5t-74 -94t-59 -111zM435 763l42 31q-10 -7 -21 -14t-19 -15zM477 794q47 34 89 67t71 63q7 5 17 11t15 6q-2 0 2 -18t10 -40 q6 -28 10 -53.5t4 -30.5q0 -2 0.5 -5t0.5 -7q2 -50 3.5 -97t1.5 -95q0 -15 -8.5 -29.5t-25.5 -14.5q-9 0 -15.5 10t-6.5 21q0 6 2 13l4 14v-1q8 23 8 44q0 55 -10.5 109.5t-48.5 115.5q-28 -27 -49 -39.5t-39 -23.5q-8 -5 -17.5 -9.5t-17.5 -10.5z" />
<glyph unicode="&#xeb;" horiz-adv-x="806" d="M-103 22q4 0 7 1q-3 -4 -3 -6q0 2 -4 5zM-96 23q6 8 25.5 20.5t43 27.5t47.5 29t41 23q8 4 14.5 6t14.5 10q17 76 48.5 146.5t83.5 123.5q22 25 52 52t64.5 51t69.5 39t68 15q15 0 27.5 -11.5t21.5 -29t13.5 -37t4.5 -33.5q0 -45 -20.5 -79t-54 -59.5t-75.5 -45.5 t-85 -39q-44 -20 -86 -40.5t-78 -50.5q0 -8 -0.5 -10t-0.5 -3q-3 -9 -3 -16q0 -35 9.5 -57t26.5 -34.5t41.5 -16.5t54.5 -4q43 0 83.5 11t80 28t78 39t76.5 45q48 30 91 53q-15 -19 -35 -33.5t-37 -25.5h2l-12 -8q-77 -61 -163 -106q-39 -20 -85.5 -29.5t-98.5 -9.5 q-65 0 -107.5 37t-49.5 123l-71 -40l-32.5 -19.5t-33 -19t-30 -14.5t-24.5 -8zM142 179l87 38q52 23 103.5 48.5t93 63t68 89.5t29.5 129q-75 -14 -131.5 -48.5t-101 -83t-80.5 -109t-68 -127.5zM233 698q0 10 7 16t16.5 9t21.5 3.5t22 0.5q17 0 34 -2.5t33 -5.5 q-6 -13 -8.5 -21t-3.5 -13q0 -1 -1 -2t-6 -2.5t-15.5 -4t-30.5 -6.5q-11 -7 -24.5 -16.5t-24.5 -17.5q-5 2 -8.5 10t-5.5 18t-4 19t-2 15zM367 719q3 5 5.5 9.5t6.5 11.5l9 -26zM537 690q0 10 6 16.5t15 9.5t20.5 4t22.5 1q18 0 36.5 -3t39.5 -7q0 -13 -3.5 -20.5 t-9.5 -11.5t-13 -5l-14 -2q-10 -1 -20.5 -3.5t-18.5 -9.5q-11 -8 -23 -15.5t-23 -15.5q-3 4 -5.5 12.5t-4.5 18.5t-3.5 18.5t-1.5 12.5zM677 711v11l13 -15z" />
<glyph unicode="&#xec;" horiz-adv-x="473" d="M82 -2h7h9q1 -5 1 -9v-9zM93 35q0 13 6.5 32t16.5 38.5t22 37.5t22 28q4 26 14.5 58.5t25.5 66.5t33 64.5t37 51.5q9 -9 17 -19t8 -19q0 -6 -4.5 -21t-12.5 -36.5t-17.5 -47t-19.5 -53.5q-11 -28 -21.5 -54t-20.5 -50q-11 -25 -18 -43t-10 -28q-8 -13 -16 -24t-20 -16h1 q-5 -2 -15.5 -2.5t-22.5 -0.5q0 7 -2 15q-1 7 -2 11.5t-1 10.5zM117 769q0 25 12.5 42t35.5 30q26 -18 44 -47t31.5 -63t21 -69.5t12.5 -67.5q-28 6 -56 25t-50.5 43.5t-36.5 52.5t-14 54zM159 846h17l-11 -5z" />
<glyph unicode="&#xed;" horiz-adv-x="411" d="M26 -4l17 -19v10t-1 9h-6h-10zM39 35q0 12 6 31t16 38.5t21 37t21 27.5q4 26 15.5 59t27 67t33.5 64.5t36 51.5q9 -9 16.5 -19.5t7.5 -19.5q0 -8 -8 -32.5t-19.5 -57.5t-26.5 -70.5t-29 -72t-25 -61t-16 -37.5q-6 -13 -14.5 -24t-20.5 -16q-7 -4 -17 -4.5t-21 -0.5 q0 3 -0.5 6t-0.5 6q-1 8 -1.5 14.5t-0.5 12.5zM198 607l11 -25q2 4 4 7.5t4 7.5l-6 4zM217 597q20 33 50 68t70 77q20 22 40.5 41.5t39 34.5t33 23.5t22.5 8.5q20 0 21 -23q0 -12 -15 -34t-33 -45v1q-11 -13 -20.5 -24.5t-20.5 -22.5q-10 -10 -36.5 -36t-70.5 -69 q-26 -16 -28 -16q-14 0 -26.5 5t-25.5 11z" />
<glyph unicode="&#xee;" horiz-adv-x="380" d="M-1 -2l18 -18q0 13 -1 18h-9h-8zM12 35q0 14 7.5 33t17 38.5t21 37t20.5 28.5q6 26 16.5 59t25 66.5t32.5 63.5t37 51q10 -9 17.5 -19t7.5 -19q0 -6 -4.5 -21t-12.5 -36.5t-17.5 -47t-19.5 -53.5t-21 -54t-21 -50q-9 -24 -16.5 -40.5t-10.5 -27.5q-8 -12 -16.5 -24 t-20.5 -19q-6 -2 -16 -2.5t-22 -0.5q0 3 -0.5 6.5t-0.5 6.5q-3 13 -3 24zM17 478q0 7 11 15.5t26.5 16.5t33.5 16t34 14l24 10q31 19 70 44.5t81 53.5l-43 -37q-31 -27 -61 -52t-61 -53l-14 -13q-13 -10 -27 -20.5t-29 -10.5q-4 0 -11.5 1t-14.5 3.5t-13 5.5t-6 6zM297 648 q24 14 47 30.5t45 34.5l-36 -22t-35 -25zM389 713q39 29 73.5 58t57.5 55q3 5 13.5 10.5t16.5 5.5q5 0 9.5 -20t7.5 -45t5 -49.5t2 -31.5q4 -52 6.5 -102t2.5 -99q0 -14 -10 -28.5t-25 -14.5q-9 0 -16 8.5t-7 19.5q0 9 2 17.5t4 15.5v-1q2 8 5 18.5t3 19.5q0 55 -11.5 111.5 t-45.5 115.5q-28 -24 -48 -37.5t-40 -23.5zM574 696h36v4l-36 -1v-3z" />
<glyph unicode="&#xef;" horiz-adv-x="411" d="M28 36h14q0 -6 2 -12q1 -3 1 -6zM39 73q0 13 6 30.5t15.5 34.5t19.5 33t18 29l1.5 3t5.5 6q5 27 16 59.5t25.5 66t32.5 63.5t38 52q8 -8 16 -18.5t8 -18.5q0 -9 -8 -34.5t-19.5 -58t-26.5 -70t-29 -71.5t-25 -61t-16 -38q-5 -14 -14.5 -25t-24.5 -17q-5 -3 -14.5 -3 t-20.5 1h-1q0 4 -0.5 8t-0.5 7q-1 5 -1.5 10t-0.5 12zM39 675q0 10 7 15.5t17.5 8.5t23 3.5t21.5 0.5q17 0 34 -2.5t33 -5.5q-6 -11 -8 -20.5t-4 -16.5q2 4 -18 2q-36 -2 -89 -44q-8 6 -12.5 26.5t-4.5 32.5zM161 650q0 2 1 4zM162 654q0 1 0.5 2t0.5 2zM175 695q3 8 10 22 l11 -27zM344 667q0 10 6 16t15.5 9t21 4t22.5 1q18 0 36.5 -3t38.5 -7q0 -18 -5 -25.5t-13 -9.5q-5 -2 -13 -2.5t-16 -1.5q-9 -2 -29 -12.5t-49 -31.5q-3 4 -5.5 13.5t-4.5 19t-3.5 18.5t-1.5 12zM484 687v12l14 -15z" />
<glyph unicode="&#xf1;" horiz-adv-x="831" d="M-105 -17l18 -20l3 18h-2q-5 0 -7 1q-2 0 -5.5 0.5t-6.5 0.5zM-84 -19q11 62 41.5 115.5t65.5 106.5q32 47 62 97.5t52 125.5h-38q-8 0 -18.5 -0.5t-22.5 -0.5h-35.5t-18.5 -2q0 7 16 12.5t36.5 9.5t40 5.5t27.5 1.5q11 0 22.5 -2.5t22.5 -5.5q15 -5 15 -21q0 -8 -18 -40 t-42 -72l-11 -16l-33 -54q-9 -15 -16.5 -26.5t-14.5 -24t-15 -26.5t-19 -35l26 -19q50 43 107 84.5t117.5 78t123.5 66.5t127 48q3 -12 3 -28q0 -27 -16.5 -56.5t-36.5 -61.5q-26 -40 -48 -82.5t-22 -89.5q0 -40 15 -66q14 -9 28 -14.5t26 -5.5q28 0 51 12.5t44 28.5 q15 11 31.5 20.5t33.5 12.5q-18 -20 -42.5 -40t-50.5 -35.5t-53 -25t-52 -9.5q-39 0 -53 22.5t-14 61.5q0 33 10 62t24 58q7 18 15.5 36.5t14.5 41t10 50t4 64.5q-11 -7 -26.5 -17t-32.5 -19.5t-32.5 -19t-28.5 -17.5q-52 -30 -107.5 -67.5t-126.5 -103.5h6l-3 -3 q-19 -18 -41 -38.5t-44 -37.5t-44.5 -28t-41.5 -11zM288 717q8 2 13 2v5l1 1q0 2 0.5 4.5t0.5 4.5zM301 719q16 3 30.5 4.5t28.5 3.5h8q-15 -6 -29 -10t-29 -4q-8 0 -9 6zM368 727q8 1 17 1.5t17 2.5q14 2 27 7.5t27 11.5l28 10q-2 1 -9 1q-26 0 -47.5 -8t-43.5 -19v1z M484 760q8 3 16.5 5t16.5 2q-1 -1 7 -15q10 -17 25.5 -37.5t41.5 -31.5q-27 4 -37 16t-18 23q-9 14 -19.5 25t-32.5 13zM591 683q22 -11 50 -11q12 0 26 4.5t27 11.5q-22 -4 -43.5 -5.5t-35.5 -1.5q-7 0 -12.5 0.5t-11.5 1.5zM625 57q5 1 8.5 1.5t7.5 0.5h2q3 -2 7 -3t13 -1 l-16 29q-8 -12 -22 -27zM694 688q21 11 41 26q6 4 11.5 7.5t10.5 5.5q-1 -15 -19.5 -24.5t-43.5 -14.5zM757 727l7 4h-7v-3v-1z" />
<glyph unicode="&#xf2;" horiz-adv-x="1067" d="M-32 -43q0 52 15 98t39.5 88.5t57 82.5t66.5 79q22 24 51 53t61.5 54.5t66 43t64.5 17.5q44 0 58 -27q18 -31 18 -74q0 -50 -19 -112q-9 -33 -20 -58.5t-26 -46.5q-27 -43 -70 -86t-94.5 -77t-106 -55.5t-104.5 -21.5q-14 0 -29.5 1t-21.5 9q-5 5 -5.5 10.5t-0.5 12.5v9z M-1 -52q83 25 160 60.5t138.5 86.5t104 120t57.5 160q-17 11 -32 15t-27 4q-29 0 -57 -22q-4 -3 -10.5 -4t-15.5 -1q-13 0 -29 4l-20 -3q-14 -15 -32 -33.5t-34 -33.5q-35 -34 -68 -68.5t-60 -76t-47 -92.5t-28 -116zM439 790q0 27 14 44t35 28q25 -16 43.5 -45t32 -63.5 t21.5 -71t11 -67.5q-28 7 -55.5 26t-50 44t-37 52.5t-14.5 52.5zM480 867l17 -1l-9 -4z" />
<glyph unicode="&#xf3;" horiz-adv-x="997" d="M-92 -43q0 51 14.5 97.5t38 89t55 82t67.5 76.5q22 23 51.5 52.5t62 56t67 44.5t65.5 18q22 0 35.5 -8.5t22 -23.5t11.5 -33.5t3 -37.5q0 -26 -4 -54t-12 -59t-19.5 -57t-26.5 -47q-27 -41 -70.5 -83.5t-95 -77.5t-106 -57t-103.5 -22q-14 0 -29.5 2t-21.5 10 q-4 5 -4.5 10t-0.5 12v10zM-63 -54q83 26 160 61.5t139.5 86.5t105 119.5t55.5 159.5q-17 11 -31.5 15t-26.5 4q-29 0 -58 -23q-5 -2 -27 -2q-7 0 -25 4l-24 -3q-17 -20 -37.5 -40.5t-38.5 -37.5q-34 -34 -64.5 -67.5t-56 -73t-44.5 -89.5t-27 -114zM539 628l7 -25l6 13 l-8 8zM552 616v2q5 8 17.5 23.5t28.5 35t35.5 42t40.5 45.5q22 24 41.5 42.5t39.5 34.5q38 29 53 28q19 0 19 -20q0 -14 -14 -36t-33 -45.5t-39 -44t-31 -30.5l13 -31l-13 29q-7 -8 -22 -23t-31.5 -29.5t-32 -26t-23.5 -12.5q-14 0 -26 4.5t-23 11.5z" />
<glyph unicode="&#xf4;" horiz-adv-x="997" d="M-90 -58q0 52 14.5 98t39 88t56 82t66.5 79q22 24 51 53t61.5 54t66.5 42.5t66 17.5q43 0 55 -26q15 -31 15 -75q0 -49 -17 -112q-17 -57 -46 -107h1q-27 -42 -70.5 -84t-94.5 -76t-106 -55.5t-104 -21.5q-14 0 -29 1t-20 7t-5 10.5v12.5v12zM-61 -69q82 26 158.5 62 t138.5 86.5t105 119t56 159.5q-35 19 -56 20q-16 0 -31 -6t-29 -18q-10 -4 -27 -4q-3 0 -9 1t-18 6l-21 -7l-14.5 -14.5t-17.5 -18t-18 -18t-14 -14.5q-33 -32 -65.5 -68t-60.5 -79t-49 -94t-28 -113zM259 567q0 6 10.5 13.5t26 15.5t34 16.5t34.5 14.5l25 10 q29 18 64.5 40.5t74.5 49.5q-39 -33 -78.5 -66t-76.5 -68l-3 -2q-14 -13 -32.5 -27.5t-32.5 -14.5q-4 0 -11.5 1t-15.5 3.5t-13.5 5.5t-5.5 8zM528 727q28 18 55 37t54 40l-5 -3q-17 -11 -33.5 -21.5t-37.5 -25.5l-14 -12zM637 804q38 29 70 56t56 53q3 5 13 10.5t17 5.5 q5 0 9.5 -20t7.5 -45t5 -49t2 -32q4 -52 6 -102.5t2 -98.5q0 -14 -8.5 -28.5t-25.5 -14.5q-9 0 -16 9.5t-7 20.5q0 10 5 28q3 10 5.5 21t2.5 21q0 55 -11.5 111t-44.5 118q-30 -28 -50 -40.5t-38 -23.5zM817 783h36v4l-36 -1v-3z" />
<glyph unicode="&#xf5;" horiz-adv-x="1007" d="M-84 -5q0 53 14 99t38 88.5t55.5 81t67.5 76.5q23 25 52 54.5t61.5 55.5t66 43.5t66.5 17.5q43 0 56 -27q18 -31 18 -73q0 -27 -4.5 -56.5t-13 -59t-20.5 -56.5t-27 -49q-27 -41 -70 -83t-94 -77t-105 -57t-105 -22q-16 0 -30 2t-21 10q-4 5 -4.5 9.5t-0.5 13.5v9z M-52 -13q83 26 159 61.5t137 85.5t103.5 117.5t59.5 159.5q-20 11 -35.5 15t-23.5 4q-32 0 -60 -22q-5 -2 -11 -3t-14 -1q-2 0 -8.5 1.5t-16.5 4.5l-25 -4q-20 -23 -41.5 -45.5t-42.5 -42.5q-32 -32 -62 -64t-54.5 -71t-41.5 -86.5t-23 -109.5zM331 676l6 2t5 1v5l2 2 q0 1 0.5 4t0.5 4zM342 679q13 2 23 3t21 3q4 0 8.5 0.5t9.5 1.5q-14 -5 -27 -9t-27 -4q-6 0 -8 5zM404 687q18 1 40 6q14 3 26 8t25 10l26 10h-6q-27 0 -48 -7.5t-41 -17.5zM521 721l18 4t18 2q-1 -1 2 -5.5l7 -10.5h-1q9 -16 23.5 -35.5t38.5 -31.5q-24 5 -33 15.5 t-16 21.5q-9 14 -19.5 26t-37.5 14zM627 644q22 -12 58 -12q12 0 26.5 5t28.5 13q-24 -5 -46 -6.5t-37 -1.5h-16t-14 2zM740 650q11 6 21.5 13.5t20.5 13.5q11 9 17 11q-1 -15 -18 -24t-41 -14zM799 688q3 2 5 3l4 2h-2q-3 0 -4 -0.5t-2 -0.5h-1v-2v-2z" />
<glyph unicode="&#xf6;" horiz-adv-x="1007" d="M-84 -5q0 52 14.5 98.5t39 88.5t56 81.5t67.5 76.5q20 25 49.5 54.5t62.5 55.5t67 43.5t65 17.5q45 0 58 -27q18 -31 18 -73q0 -27 -5.5 -56t-14 -58.5t-20.5 -56.5t-25 -50q-28 -39 -71.5 -83.5t-93.5 -76.5q-52 -33 -107.5 -56t-101.5 -23q-15 0 -29.5 2t-21.5 10 q-6 6 -6.5 10t-0.5 13v9zM-53 -13q84 26 160.5 61t138 85t104 118t59.5 160q-20 11 -35.5 15t-23.5 4q-32 0 -60 -22q-4 -2 -10.5 -3t-14.5 -1q-4 0 -12.5 1.5t-16.5 4.5l-21 -4q-19 -20 -39.5 -42t-39.5 -41q-33 -33 -63.5 -66t-56 -72.5t-44 -87.5t-25.5 -110zM349 698 q0 9 7.5 15t17.5 9t22 4t20 1q34 0 66 -9q-6 -13 -7 -21.5t-2 -13.5v-1q-2 0 -9 -1t-19 -5v-1q-6 -2 -15.5 -3.5t-17.5 -3.5v-3q-11 -6 -22 -14.5t-22 -14.5q-4 2 -8 10t-6 18t-3.5 19t-1.5 15zM412 665l3 2l9 -33h-8zM482 718q2 5 4.5 9.5t8.5 9.5l8 -25zM654 690 q0 20 20.5 25.5t44.5 5.5q17 0 36 -3t37 -7q-1 -27 -13.5 -33t-25.5 -7q-9 -1 -20 -3t-25 -12q-11 -9 -20 -14.5t-20 -13.5q-3 4 -5.5 12.5t-4.5 18.5t-3 18.5t-1 12.5zM792 711v12l13 -16z" />
<glyph unicode="&#xf7;" horiz-adv-x="884" d="M10 299q10 -4 27 -6l-20 -23zM37 293l2 2q0 14 3 33.5t12 28.5l297 25q32 1 66 5.5t65 9.5q42 7 81.5 12t76.5 5q16 0 27.5 -6.5t11.5 -24.5q0 -9 -0.5 -19t-3.5 -18.5t-9 -14t-16 -5.5q-14 0 -29 4.5t-29 10.5l-34 12t-36 6q-56 0 -111 -11t-110 -24 q-52 -13 -104.5 -23.5t-108.5 -10.5q-30 0 -51 3zM299 175q0 9 6 16t16 10.5t21.5 5t21.5 1.5q17 0 35 -3t35 -8q-2 -4 -2 -9q-2 -8 -5 -17t-7 -13l-12 -2q-18 -3 -29.5 -5.5t-20.5 -6t-18 -10t-25 -18.5q-7 8 -11.5 28t-4.5 31zM301 570q0 10 6 16.5t15.5 9.5t21 3.5 t22.5 0.5q35 0 73 -8q-1 -22 -10.5 -28.5t-20.5 -8.5l-11 -2q-18 -1 -33 -11t-28 -21l-15 -13q-4 4 -8 12t-6.5 17.5t-4 18.5t-1.5 14zM434 197q2 5 3.5 10t3.5 10l12 -24zM439 592v11l15 -14z" />
<glyph unicode="&#xf8;" horiz-adv-x="970" d="M-50 191q0 48 33.5 93t87 84t121 70.5t134 54.5t127 35.5t100.5 12.5q27 0 58.5 -6t65.5 -14q22 14 39 29t35 30q16 14 32 27t33 24q3 -3 3 -6q0 -6 -16.5 -21t-38 -31.5t-42.5 -30.5t-30 -19q74 -44 115.5 -97t41.5 -122q-1 -52 -30 -93t-76 -71.5t-105 -51.5 t-118 -34.5t-116 -19t-97 -4.5q-57 0 -115.5 4.5t-116.5 22.5l-91 -89q-13 -1 -28 -5q10 17 29.5 32t38.5 30h-1l46 31q-24 12 -45.5 27t-38 32t-26 36.5t-9.5 39.5zM-10 179q27 -32 56 -54.5t62 -39.5l18 1q129 80 258.5 184t257.5 212q-42 5 -57.5 6t-26.5 1h-11 q-74 0 -155 -24.5t-156.5 -66.5t-140 -98t-105.5 -121zM103 83q54 -18 98.5 -27t80.5 -9q37 0 90 5.5t112 18t117.5 33t105.5 49.5t76 68t29 89q0 37 -14.5 64.5t-37.5 48t-52 34.5t-60 24q-75 -57 -152.5 -113t-152.5 -110z" />
<glyph unicode="&#xf9;" horiz-adv-x="1146" d="M-81 -39q0 28 22 88q11 33 23.5 65.5t26.5 62.5q15 33 30.5 65t30 60t27 51t21.5 37q5 8 18.5 16t21.5 8q4 0 13 -4q-7 -26 -23.5 -56t-33.5 -60q-11 -20 -22 -39t-17 -33l1 1q-27 -51 -50.5 -120t-46.5 -143q154 76 281.5 165t232.5 192q8 -5 13.5 -9t5.5 -12 q0 -15 -15 -47q-8 -19 -13.5 -32t-9.5 -20q-16 -50 -28.5 -100t-12.5 -102v-36q34 -14 56 -14q39 0 71 14t61 29q28 14 50 21q-4 -23 -34 -41.5t-70 -33.5t-82 -24t-69 -13q-10 7 -15.5 18.5t-8.5 25t-4 28t-1 26.5q0 43 9.5 90.5t23.5 98.5q-36 -17 -64 -34t-51.5 -33 t-44.5 -32t-41 -32q-32 -25 -63.5 -48.5t-63.5 -42.5t-67 -32.5t-74 -16.5q-9 9 -11.5 21.5t-2.5 26.5zM591 885q0 27 13.5 44t35.5 28q25 -17 43.5 -45.5t32.5 -63.5t22 -71.5t12 -66.5q-28 7 -56 26t-51 43.5t-37.5 52.5t-14.5 53zM633 963l15 -1q-6 -2 -8 -5zM653 9 q1 2 1 7l3 -6q-1 0 -2 -0.5t-2 -0.5z" />
<glyph unicode="&#xfa;" horiz-adv-x="1093" d="M-129 -37q0 27 21 87q11 31 24 62t29 66q15 35 30.5 68t29 61t26 50t21.5 35l-1 -1q7 8 19 16.5t23 8.5q6 0 11 -3q-8 -28 -26.5 -65t-35.5 -66v1q-9 -14 -17 -29t-14 -29q-28 -54 -52.5 -122t-49.5 -140q158 75 286 164.5t233 191.5q17 -10 17 -21q0 -14 -13 -47h1 l-26 -58q-16 -46 -26.5 -96t-10.5 -100v-34q33 -16 54 -16q37 0 69.5 14t61.5 29l26 13t21 8q-6 -20 -35.5 -37.5t-65.5 -32.5q-43 -17 -84.5 -28t-67.5 -14q-22 14 -24 42.5t-2 55.5q0 38 9 87t20 105q-36 -18 -63.5 -35t-50 -33.5t-42 -31t-38.5 -30.5q-32 -26 -64 -49.5 t-64.5 -43.5t-68 -33.5t-75.5 -17.5q-11 9 -13 22t-2 26zM602 11q1 1 5 1l3 -3l-5 14q0 -2 -1 -6t-2 -6zM655 700q18 32 51.5 70t70.5 77q24 24 44.5 43t38.5 35q19 14 32 21.5t21 7.5q17 0 18 -22q0 -14 -13.5 -36.5t-33 -45.5t-40.5 -45.5t-37 -38.5q-41 -39 -63.5 -58 t-37.5 -23q-14 1 -26 4.5t-25 10.5z" />
<glyph unicode="&#xfb;" horiz-adv-x="1091" d="M-129 -65q0 27 21 88q11 31 24 62t29 66q13 32 28 63.5t28.5 59.5t26 51.5t21.5 39.5q8 7 20.5 15t20.5 8q6 0 12 -4q-10 -33 -32 -74t-42 -76v2l-14 -26q-30 -61 -55.5 -130t-47.5 -145q157 77 282 164.5t232 193.5q10 -6 14 -10t4 -13q0 -14 -13 -47h1l-27 -58 q-13 -46 -24.5 -94.5t-11.5 -101.5v-36q15 -6 28.5 -10t24.5 -4q40 0 74.5 15t62.5 30q13 7 24.5 13t19.5 10q-6 -24 -37 -43t-70 -33t-79.5 -24.5t-65.5 -14.5q-17 17 -23 44t-6 53q0 41 9 90.5t23 103.5q-69 -36 -112.5 -68t-82.5 -62q-32 -26 -64 -50.5t-65 -44.5 t-68.5 -34t-75.5 -17q-9 9 -11.5 22.5t-2.5 25.5zM372 692q0 6 8 13t20.5 13.5t27.5 13t30 12.5q14 6 27.5 12t21.5 11l21 15q28 18 61.5 40t67.5 45l-14 -12q-41 -34 -80.5 -67.5t-77.5 -69.5l-4 -2q-14 -13 -32 -27.5t-32 -14.5q-5 0 -13 1.5t-15 4t-12 5.5t-5 7zM602 -13 q4 0 5 1q2 -2 3 -3.5t3 -2.5l-9 15q0 -4 -2 -10zM657 867l72 49q-14 -8 -29.5 -16.5t-26.5 -19.5h1zM729 916q43 32 80.5 62.5t62.5 56.5q4 5 14.5 12t17.5 7q4 0 8 -20t8 -45t6.5 -49t2.5 -30q0 -2 0.5 -4.5t0.5 -5.5q2 -50 3.5 -97t1.5 -96q0 -14 -8.5 -28.5t-26.5 -14.5 q-9 0 -15 10t-6 20q0 5 2 13t4 15v-1q8 22 8 43q0 56 -11.5 111.5t-43.5 116.5q-30 -27 -53 -41.5t-43 -25.5q-3 -2 -6.5 -3.5t-6.5 -5.5z" />
<glyph unicode="&#xfc;" horiz-adv-x="1093" d="M-129 -7q0 20 10.5 54.5t26.5 76t36.5 86.5t40.5 86t38 74t29 52l-1 -1q7 8 20 16t24 8q4 0 11 -5q-6 -24 -24.5 -55.5t-36.5 -63.5v-2q-10 -17 -19 -33t-15 -29q-27 -57 -50.5 -122t-47.5 -142q156 77 283 165.5t235 191.5q14 -8 14 -22t-13 -47l-11 -24l-12 -32 q-17 -49 -28 -97.5t-11 -100.5v-33q26 -17 55 -18q38 0 70.5 14t59.5 29q14 8 27 14.5t23 9.5q-3 -24 -34 -42.5t-72.5 -33.5t-83 -24.5t-65.5 -13.5q-10 7 -15.5 18.5t-8 25.5t-3 27.5t-0.5 26.5q0 41 8.5 88.5t22.5 99.5q-71 -33 -117.5 -66t-84.5 -64 q-30 -24 -61.5 -47.5t-64.5 -43t-67.5 -33t-70.5 -17.5q-11 12 -14 23.5t-3 25.5zM483 813q0 10 7.5 16t18 9t23 3.5t21.5 0.5q16 0 32.5 -2.5t32.5 -5.5q-5 -13 -7 -21t-3 -13q0 -1 -0.5 -2t-6 -2.5t-17 -4.5t-32.5 -7q-10 -6 -23.5 -14.5t-24.5 -15.5q-4 3 -7.5 10 t-7 15.5t-5 18t-1.5 15.5zM605 43q0 1 1 2t1 3l1 -5h-3zM618 834q2 5 5.5 9.5t7.5 10.5l10 -27zM790 805q0 10 6 16t15 9.5t20.5 4.5t22.5 1q18 0 36 -3.5t39 -8.5q-1 -27 -14 -32t-27 -7q-10 -1 -20.5 -3t-25.5 -11l-38 -29q-3 3 -5.5 12t-4.5 19t-3 19.5t-1 12.5zM929 824 v14l14 -17z" />
<glyph unicode="&#x2c6;" horiz-adv-x="880" d="M61 559q0 6 9.5 13.5t24 15t31 15t32.5 13.5h-1l38 18q30 18 66 40.5t75 49.5l-69 -57l-93 -80q-13 -14 -31.5 -28.5t-36.5 -14.5q-4 0 -11.5 1t-14.5 3t-13 5t-6 6zM336 724q24 16 45.5 31.5t44.5 32.5q-17 -10 -34 -20.5t-33 -22.5zM426 788q39 30 74 60t60 56 q3 5 14 10.5t18 5.5q4 0 7.5 -19t6.5 -43t5 -48t2 -33q6 -51 9 -101t3 -99q0 -15 -10 -29t-27 -14q-9 0 -15 9.5t-6 19.5q0 18 6 39q2 8 4 14.5t2 14.5q0 55 -10.5 110.5t-43.5 116.5q-29 -24 -50.5 -39t-41.5 -26zM613 775h36v4l-36 -2v-2z" />
<glyph unicode="&#x2dc;" horiz-adv-x="813" d="M85 792q3 0 6 0.5t7 1.5v3l1 2q0 2 0.5 5t0.5 5zM98 794l24 2l36 3q-13 -5 -25.5 -8.5t-24.5 -3.5q-8 0 -10 7zM158 799q10 2 20 3.5t21 3.5q12 2 26.5 7t25.5 10l29 10q-3 1 -9 1q-27 0 -48 -8.5t-42 -16.5q-6 -3 -12 -5.5t-11 -4.5zM280 833q17 7 32 7q-1 -2 7 -16 q10 -16 24 -35.5t37 -30.5q-23 5 -33 15t-16 22q-9 13 -20 24t-31 14zM381 758q22 -13 54 -13q14 0 30 6t31 14q-24 -5 -48 -7t-38 -2h-16t-13 2zM496 765q11 6 21.5 13.5t19.5 13.5q8 6 12 8q-2 -13 -17.5 -21.5t-35.5 -13.5zM549 800l9 6h-2q-3 0 -4 -0.5t-2 -0.5h-1v-2 v-3z" />
<glyph unicode="&#x2000;" horiz-adv-x="715" />
<glyph unicode="&#x2001;" horiz-adv-x="1430" />
<glyph unicode="&#x2002;" horiz-adv-x="715" />
<glyph unicode="&#x2003;" horiz-adv-x="1430" />
<glyph unicode="&#x2004;" horiz-adv-x="476" />
<glyph unicode="&#x2005;" horiz-adv-x="357" />
<glyph unicode="&#x2006;" horiz-adv-x="238" />
<glyph unicode="&#x2007;" horiz-adv-x="238" />
<glyph unicode="&#x2008;" horiz-adv-x="178" />
<glyph unicode="&#x2009;" horiz-adv-x="286" />
<glyph unicode="&#x200a;" horiz-adv-x="79" />
<glyph unicode="&#x2010;" horiz-adv-x="594" d="M110.5 272.5q-2.5 10.5 19.5 16.5q33 -3 58.5 -3.5t47.5 1t43.5 4t45.5 3.5q28 1 47 1t37 -1t37.5 -3t47.5 -4q5 0 9.5 -4.5t6 -10.5t-0.5 -10t-8 -3q-14 3 -23 4t-17 1h-18.5t-27.5 1q-40 3 -74 1.5t-66 -3.5t-66.5 -4t-76.5 1q-19 2 -21.5 12.5z" />
<glyph unicode="&#x2011;" horiz-adv-x="594" d="M110.5 272.5q-2.5 10.5 19.5 16.5q33 -3 58.5 -3.5t47.5 1t43.5 4t45.5 3.5q28 1 47 1t37 -1t37.5 -3t47.5 -4q5 0 9.5 -4.5t6 -10.5t-0.5 -10t-8 -3q-14 3 -23 4t-17 1h-18.5t-27.5 1q-40 3 -74 1.5t-66 -3.5t-66.5 -4t-76.5 1q-19 2 -21.5 12.5z" />
<glyph unicode="&#x2012;" horiz-adv-x="594" d="M110.5 272.5q-2.5 10.5 19.5 16.5q33 -3 58.5 -3.5t47.5 1t43.5 4t45.5 3.5q28 1 47 1t37 -1t37.5 -3t47.5 -4q5 0 9.5 -4.5t6 -10.5t-0.5 -10t-8 -3q-14 3 -23 4t-17 1h-18.5t-27.5 1q-40 3 -74 1.5t-66 -3.5t-66.5 -4t-76.5 1q-19 2 -21.5 12.5z" />
<glyph unicode="&#x2013;" horiz-adv-x="761" d="M-7 301l9 -26l16 20zM18 295l2 3q0 19 2.5 34.5t14.5 27.5q18 3 45 5.5t56 4.5t59 3.5t56 3.5l79 5q24 3 49 6.5t48 7.5q50 8 100.5 15t96.5 7q34 0 34 -33q0 -9 -0.5 -19.5t-3 -19t-7.5 -14.5t-13 -6q-14 0 -29.5 5t-29.5 11q-17 6 -34 12.5t-37 6.5q-56 0 -110 -11 t-109 -24q-52 -13 -104 -23.5t-109 -10.5q-33 0 -56 3z" />
<glyph unicode="&#x2014;" horiz-adv-x="1136" d="M-57 304q0 14 1 28t10 22l268 22q117 8 232 17t232 21q55 6 108 11t109 5q17 0 27 -6.5t10 -24.5q0 -8 -0.5 -18.5t-2.5 -20t-6.5 -16t-14.5 -6.5q-15 0 -29.5 5t-29.5 12q-16 8 -33.5 14.5t-40.5 6.5q-102 0 -201.5 -14t-198.5 -30q-99 -17 -196.5 -30.5t-193.5 -13.5 q-37 0 -50 16z" />
<glyph unicode="&#x2018;" horiz-adv-x="235" d="M105 490q0 28 11 56.5t28 56.5t38 54t40 49q9 -5 18 -12t9 -15q0 -5 -10.5 -20t-23 -33t-25.5 -33t-19 -22q-14 -35 -16 -68t-2 -64v-2q-20 5 -34 17.5t-14 35.5zM153 437q0 -4 0.5 -8t2.5 -8l-1 4v2l15 9h-9t-8 1z" />
<glyph unicode="&#x2019;" horiz-adv-x="321" d="M139 711q0 10 6 20t15 10q18 0 23.5 -17.5t11.5 -38.5q2 -8 2.5 -13t4.5 -18q5 -15 9 -29.5t4 -31.5q0 -34 -15.5 -64t-44.5 -43q10 20 16 43t6 41q0 22 -6 40.5t-13 35.5v-1q-8 17 -13.5 32.5t-5.5 33.5z" />
<glyph unicode="&#x201a;" horiz-adv-x="348" d="M117 -89q0 12 3.5 38.5t9.5 59.5t14.5 69t16.5 66.5t16.5 53.5t15.5 29q14 14 25 15q19 0 23 -16t4 -33q0 -10 -4 -33.5t-11 -53.5t-15 -63t-17 -61.5t-17 -49t-14 -25.5q-10 -2 -24.5 -4t-25.5 -3v11z" />
<glyph unicode="&#x201c;" horiz-adv-x="346" d="M33 623q0 23 6.5 53t16.5 61t21.5 60t20.5 51l50 -15q9 -26 11 -44.5t2 -35.5q0 -14 -3.5 -46.5t-12.5 -66t-24 -59t-37 -25.5q-14 0 -24 6t-16 16t-8.5 21.5t-2.5 23.5zM136 811l20 18l-9 7q3 0 6.5 1t6.5 1l-2 -7l2 3l4 -11l-7 5l-5 -24zM169 605q0 23 7 58t19 70.5 t28.5 65.5t34.5 45l28 -7q9 -24 12 -48t3 -47q0 -8 -5.5 -36.5t-13 -61t-15 -59t-11.5 -30.5q-2 -2 -4 -3t-3.5 -2t-2.5 -1h1q-8 -5 -15.5 -9t-21.5 0h-26q-15 37 -15 65zM253 839l4 8l3 -8h-7zM260 839l5 -10l5 10h-10zM262 823l7 -3l-4 9zM270 839l8 11l6 -10z" />
<glyph unicode="&#x201d;" horiz-adv-x="292" d="M134 681v10t0.5 15t1 14t2.5 6q13 0 23 -16t16 -37.5t9 -43.5t3 -34q0 -22 -5.5 -30t-16.5 -17l-3 -3l-4 16q-8 29 -17 61.5t-9 58.5zM152 534l4 1l15 -14l-7 24zM288 763v5v13t1 14.5t3 12t5 4.5q7 0 12.5 -12.5t9.5 -28t5.5 -32t1.5 -24.5q0 -30 -4 -60t-9 -61 q-9 11 -14 34.5t-7.5 50t-3 50t-0.5 34.5zM309 567l18 19q-8 0 -14 8q-2 -8 -2 -12q0 -2 -1 -7t-1 -8z" />
<glyph unicode="&#x201e;" horiz-adv-x="667" d="M221 187q0 14 2.5 27.5t15.5 13.5q16 0 32.5 -12.5t29 -31.5t21 -41t8.5 -40t-7 -25l-54 -31l-9 -1q-2 8 -6 19q-3 8 -6.5 18t-6.5 21q-8 27 -14 52t-6 31zM467 267q0 17 4 33.5t24 16.5q15 0 26 -9t19 -23.5t11.5 -31t3.5 -30.5q0 -27 -5.5 -48.5t-11.5 -45.5 q-2 -6 -4.5 -13t-4.5 -16q-23 5 -35 24t-18 44.5t-7.5 52t-1.5 46.5z" />
<glyph unicode="&#x2026;" horiz-adv-x="968" d="M-16 173q0 16 14 22q12 3 24 5t23 2q39 0 75 -14q-2 -20 -19.5 -28t-39.5 -14l-18 -4q-4 -2 -10 -5.5t-13 -8.5h2q-4 -3 -8.5 -5.5t-7.5 -4.5q-4 -3 -7 -4q-4 0 -6.5 7t-4.5 16.5t-3 19.5t-1 16zM120 188q1 3 0.5 6.5t-0.5 6.5l11 -16zM315 173q0 16 15 22q12 3 24 5 t23 2q18 0 36 -3t39 -9q-3 -14 -7.5 -21.5t-9 -11t-10 -4t-9.5 -0.5q-11 0 -21 -2.5t-20 -11.5l-39 -22q-3 2 -3 4q-1 2 -3.5 4.5l-4.5 4.5q0 5 -1.5 9t-4.5 11q-2 5 -3 10.5t-1 12.5zM452 190q0 4 2 15l11 -20q-5 1 -13 5zM666 165q0 9 6 14.5t15.5 9.5t20.5 5.5t20 1.5 q18 0 37.5 -4.5t38.5 -9.5q-1 -15 -12 -23.5t-23.5 -13.5t-24.5 -6t-16 -1l-10 -10t-13.5 -11.5t-13 -10t-7.5 -4.5q-5 0 -8 8.5t-5.5 19t-3.5 21t-1 14.5zM804 182q1 2 0.5 4.5t-0.5 7.5l13 -15z" />
<glyph unicode="&#x202f;" horiz-adv-x="286" />
<glyph unicode="&#x2039;" horiz-adv-x="1087" d="M-5 355q1 12 6 24.5t17 18.5q17 11 35 14.5t34 3.5q12 0 35 9.5t53 26t64 38.5t70 47q74 49 157 112q59 45 117.5 90.5t108.5 85.5t89 72t61 50l10 -3q2 -5 3 -10t1 -7q0 -18 -24.5 -48t-65.5 -67t-95 -78.5t-112 -84t-117.5 -82.5t-111 -74t-92 -59.5t-62.5 -39.5 q44 -31 90.5 -50.5t97.5 -37.5q49 -18 99.5 -38t91.5 -45t66.5 -56.5t24.5 -71.5v-19q-43 12 -77.5 38.5t-64.5 55.5q-25 22 -48.5 41.5t-49.5 34.5q-50 39 -107.5 52.5t-119.5 13.5q-20 0 -43.5 -9.5t-46.5 -21.5q-12 32 -37 49t-57 25z" />
<glyph unicode="&#x203a;" horiz-adv-x="1155" d="M16 7v7q35 9 81 32t99 54.5t108.5 70.5t110.5 82t105.5 87.5t92 87.5t71.5 82.5t43 72.5q-13 35 -41 62t-64.5 50t-80 42t-86.5 36h1q-41 17 -80 34t-68.5 35t-48 37.5t-18.5 43.5q0 17 9 31t23 25q67 -58 139.5 -117.5t152 -108t165.5 -81t178 -35.5q0 -27 -2.5 -49 t-11.5 -36q-4 -8 -31.5 -30.5t-69.5 -54.5t-94 -69.5t-104 -73.5t-100 -69.5t-81 -56.5q-16 -11 -25.5 -19t-13.5 -10q-72 -47 -134 -104t-120 -119q-10 -12 -17 -18t-21 -6q-19 0 -32 6.5t-20.5 18.5t-11 27.5t-3.5 32.5zM264 988l21 -1l-12 -8z" />
<glyph unicode="&#x205f;" horiz-adv-x="357" />
<glyph unicode="&#x20ac;" horiz-adv-x="1124" d="M-146 257v13t1 6.5t3.5 4.5t7.5 7q11 -2 36.5 1.5t54.5 9t55 10t38 5.5q4 8 9.5 20.5t10 25.5t9 24.5t9.5 21.5t13.5 26.5t17.5 33t17 32.5t15 26q-52 -10 -86 -15.5t-59.5 -8t-49.5 -2t-54 3.5q-7 1 -10 5.5t-1.5 9t6 7.5t11.5 2q16 -3 40 -1.5t50 4.5t48.5 7.5 t35.5 5.5q9 1 16.5 2t18 2.5t23.5 3.5t32 5q43 56 105 118.5t132.5 116.5t145.5 91t143 41q78 -2 115.5 -37t37.5 -116q0 -33 -2 -66.5t-5 -67.5q-1 -9 -4 -16.5t-7.5 -10.5t-8 0.5t-5.5 16.5q-5 34 -0.5 68t4.5 68q0 62 -28.5 97.5t-84.5 35.5q-65 0 -132 -30.5 t-129.5 -78.5t-118 -105t-97.5 -112l203 18q4 1 7 -4t3.5 -12t-1.5 -12.5t-7 -5.5q-41 -2 -65 -3.5t-46 -4t-48.5 -5.5t-72.5 -7l-17 -19v-1l-15 -25h1q-10 -15 -20.5 -31t-21 -35.5t-22 -43t-23.5 -54.5q80 17 153.5 27t144.5 10q7 0 15.5 -3.5t14 -7.5t6.5 -7.5t-6 -4.5 q-25 -3 -51.5 -5.5t-49.5 -4t-41 -2.5t-25 -1q-25 0 -45 -3.5t-39 -8.5t-39.5 -11.5t-44.5 -13.5q-13 -53 -13 -102q0 -75 31 -121.5t82 -73t118.5 -37t138.5 -13.5q57 -2 115.5 6t117 22t116.5 31t113 33q9 3 16 1t8 -6.5t-5.5 -11.5t-22.5 -13q-58 -15 -116 -30.5 t-117 -28t-119 -20t-120 -7.5q-82 0 -158.5 17t-131.5 58.5t-80.5 111.5t-6.5 179q-28 -5 -49.5 -10t-43 -9t-45.5 -6t-55 0z" />
<glyph unicode="&#x2122;" horiz-adv-x="1105" d="M-84 815l5 -2h3l3 -7zM-83 828l4 7q9 4 20 4.5t22 -0.5q5 0 10 -0.5t10 -0.5q12 0 24.5 0.5t25.5 1.5q-16 -3 -30 -7t-29 -7l-50 -13zM33 840q47 11 97.5 21.5t96.5 21.5v-7l-18 -5q-41 -10 -85.5 -18.5t-90.5 -12.5zM39 432q2 9 5 18h2q5 -1 9.5 -2.5t10.5 -6.5zM42 451 l5 9l-3 -10zM47 460l1 1zM48 461q11 28 23 53.5t25 46.5l14 23q30 52 57.5 104.5t48.5 107.5q-5 -23 -11 -42q-9 -29 -23 -60t-28 -59q-23 -41 -49.5 -85t-50.5 -79h2zM216 796q4 19 7 39.5t4 40.5l19 5q-5 -22 -13 -42.5t-17 -42.5zM246 881q0 1 0.5 1t0.5 1q14 9 40 17.5 t57 15.5t62.5 12t57.5 7q-42 -8 -86.5 -19.5t-83.5 -22.5zM390 488q17 37 30 64t25 51.5t24 50.5t29 62l9 9l14 11q-4 -7 -7.5 -13.5t-5.5 -13.5v1q-10 -25 -23 -54.5t-28 -59.5t-31.5 -58t-35.5 -50zM464 935q32 6 59 10t49 4q2 0 5.5 -1t8.5 -2q-8 -14 -22 -20 q-18 6 -36 8t-29 2h-16.5t-18.5 -1zM521 736l11 24l6 -1q-1 -2 -2 -2.5t-2 -1.5q-2 -5 -5.5 -9.5t-7.5 -9.5zM535 918q14 1 29 8q2 -1 4.5 -2t5.5 -2l-23 -33zM538 759q11 10 16 23q6 -11 9.5 -21.5t6.5 -21.5l-1 1l4 -15l15 -138q16 0 37 11q-14 -12 -25.5 -19.5 t-16.5 -7.5t-9 25t-6.5 56.5t-3.5 61t-1 40.5zM542 802l24 -2q-10 -7 -10 -9t-2 -9q-3 5 -5.5 10t-6.5 10zM586 946q3 4 4 8v7l14 -19zM625 598q16 13 34 29.5t38 35.5l85 80q6 6 17 16t22.5 21t22 20t15.5 14v-15l-50 -47q-23 -23 -47 -46t-48 -43.5t-46.5 -37.5t-42.5 -27 zM748 449q4 22 13.5 47t23.5 54l-3 -12v1q-7 -28 -15 -51.5t-19 -38.5zM785 550q7 27 17 53.5t23 44.5q5 17 11 32.5t11 30.5q-9 -42 -24 -77t-29 -68zM847 711q5 20 8 41.5t4 46.5l41 38l1 -2q-9 -25 -17 -43t-18 -40zM899 843l7 -7l-4 2q-1 -1 -2 -1z" />
<glyph unicode="&#x25fc;" horiz-adv-x="588" d="M0 0v589h589v-589h-589z" />
</font>
</defs>
</svg>
