<?xml version="1.0" encoding="UTF-8" standalone="no"?>
<svg width="300px" height="60px" viewBox="0 0 300 60" version="1.1" xmlns="http://www.w3.org/2000/svg" xmlns:xlink="http://www.w3.org/1999/xlink">
    <!-- Generator: Sketch 3.7.1 (28215) - http://www.bohemiancoding.com/sketch -->
    <title>Icons</title>
    <desc>Created with Sketch.</desc>
    <defs></defs>
    <g id="Welcome" stroke="none" stroke-width="1" fill="none" fill-rule="evenodd">
        <g id="Icons">
            <g id="FullscreenExit" transform="translate(180.000000, 0.000000)">
                <rect id="rectangle" x="0" y="0" width="60" height="60"></rect>
                <path d="M35,36 L35,51 L42,51 L42,43 L50,43 L50,36 L35,36 Z M9,36 L9,43 L17,43 L17,51 L24,51 L24,36 L9,36 Z M35,10 L35,25 L50,25 L50,18 L42,18 L42,10 L35,10 Z M17,10 L17,18 L9,18 L9,25 L24,25 L24,10 L17,10 Z" id="vector" fill="#FFFFFF"></path>
            </g>
            <g id="FullscreenEnter" transform="translate(120.000000, 0.000000)">
                <rect id="rectangle" x="0" y="0" width="60" height="60"></rect>
                <path d="M8,8 L8,23 L15,23 L15,15 L23,15 L23,8 L8,8 Z M36.9998,8 L36.9998,15 L44.9998,15 L44.9998,23 L51.9998,23 L51.9998,8 L36.9998,8 Z M8,36.9998 L8,51.9998 L23,51.9998 L23,44.9998 L15,44.9998 L15,36.9998 L8,36.9998 Z M44.9999,36.9998 L44.9999,44.9998 L36.9999,44.9998 L36.9999,51.9998 L51.9999,51.9998 L51.9999,36.9998 L44.9999,36.9998 Z" id="vector" fill="#FFFFFF"></path>
            </g>
            <g id="PauseIcon" transform="translate(60.000000, 0.000000)">
                <rect id="rectangle" x="0" y="0" width="60" height="60"></rect>
                <path d="M35,9 L48.8955078,9 L48.8955078,52.2304687 L35,52.2304687 L35,9 Z M12,9 L25.8955078,9 L25.8955078,52.2304687 L12,52.2304687 L12,9 Z" id="vector" fill="#FFFFFF"></path>
            </g>
            <g id="TextIcon" transform="translate(240.000000, 0.000000)">
                <rect id="rectangle" x="0" y="0" width="60" height="60"></rect>
                <path d="M10,10 L52.4322229,10 L52.4322229,16.244786 L10,16.244786 L10,10 Z M10,21.4487744 L47.9656731,21.4487744 L47.9656731,27.6935604 L10,27.6935604 L10,21.4487744 Z M10,32.8975487 L45.5513219,32.8975487 L45.5513219,39.1423348 L10,39.1423348 L10,32.8975487 Z M10,44.3463231 L50.1385892,44.3463231 L50.1385892,50.5911091 L10,50.5911091 L10,44.3463231 Z" id="vector" fill="#FFFFFF"></path>
            </g>
            <g id="PlayIcon">
                <rect id="rectangle" x="0" y="0" width="60" height="60"></rect>
                <polygon id="vector" fill="#FFFFFF" points="14 9 14 53.517291 52.1180866 29.2118801"></polygon>
            </g>
        </g>
    </g>
</svg>