<?xml version="1.0" encoding="UTF-8" standalone="no"?>
<svg width="300px" height="60px" viewBox="0 0 300 60" version="1.1" xmlns="http://www.w3.org/2000/svg" xmlns:xlink="http://www.w3.org/1999/xlink">
    <!-- Generator: Sketch 3.7.1 (28215) - http://www.bohemiancoding.com/sketch -->
    <title>Icons</title>
    <desc>Created with Sketch.</desc>
    <defs></defs>
    <g id="Welcome" stroke="none" stroke-width="1" fill="none" fill-rule="evenodd">
        <g id="Icons" fill="#FFFFFF">
            <path d="M215,36 L215,51 L222,51 L222,43 L230,43 L230,36 L215,36 Z M189,36 L189,43 L197,43 L197,51 L204,51 L204,36 L189,36 Z M215,10 L215,25 L230,25 L230,18 L222,18 L222,10 L215,10 Z M197,10 L197,18 L189,18 L189,25 L204,25 L204,10 L197,10 Z" id="vector"></path>
            <path d="M128,8 L128,23 L135,23 L135,15 L143,15 L143,8 L128,8 Z M156.9998,8 L156.9998,15 L164.9998,15 L164.9998,23 L171.9998,23 L171.9998,8 L156.9998,8 Z M128,36.9998 L128,51.9998 L143,51.9998 L143,44.9998 L135,44.9998 L135,36.9998 L128,36.9998 Z M164.9999,36.9998 L164.9999,44.9998 L156.9999,44.9998 L156.9999,51.9998 L171.9999,51.9998 L171.9999,36.9998 L164.9999,36.9998 Z" id="vector"></path>
            <path d="M95,9 L108.895508,9 L108.895508,52.2304687 L95,52.2304687 L95,9 Z M72,9 L85.8955078,9 L85.8955078,52.2304687 L72,52.2304687 L72,9 Z" id="vector"></path>
            <path d="M250,10 L292.432223,10 L292.432223,16.244786 L250,16.244786 L250,10 Z M250,21.4487744 L287.965673,21.4487744 L287.965673,27.6935604 L250,27.6935604 L250,21.4487744 Z M250,32.8975487 L285.551322,32.8975487 L285.551322,39.1423348 L250,39.1423348 L250,32.8975487 Z M250,44.3463231 L290.138589,44.3463231 L290.138589,50.5911091 L250,50.5911091 L250,44.3463231 Z" id="vector"></path>
            <polygon id="vector" points="14 9 14 53.517291 52.1180866 29.2118801"></polygon>
        </g>
    </g>
</svg>